<?xml version="1.0" encoding="utf-8"?>
<!-- Generator: Adobe Illustrator 17.0.0, SVG Export Plug-In . SVG Version: 6.00 Build 0)  -->
<!DOCTYPE svg PUBLIC "-//W3C//DTD SVG 1.1//EN" "http://www.w3.org/Graphics/SVG/1.1/DTD/svg11.dtd">
<svg version="1.1"
	 id="svg2" sodipodi:docname="alphabet.svg" inkscape:version="0.91 r13725" xmlns:sodipodi="http://sodipodi.sourceforge.net/DTD/sodipodi-0.dtd" xmlns:dc="http://purl.org/dc/elements/1.1/" xmlns:inkscape="http://www.inkscape.org/namespaces/inkscape" xmlns:svg="http://www.w3.org/2000/svg" xmlns:cc="http://creativecommons.org/ns#" xmlns:rdf="http://www.w3.org/1999/02/22-rdf-syntax-ns#"
	 xmlns="http://www.w3.org/2000/svg" xmlns:xlink="http://www.w3.org/1999/xlink" x="0px" y="0px" width="32.128px"
	 height="23.522px" viewBox="0 0 32.128 23.522" enable-background="new 0 0 32.128 23.522" xml:space="preserve">
<sodipodi:namedview  id="base" inkscape:window-x="-8" inkscape:window-y="-8" inkscape:window-width="1366" inkscape:window-height="705" fit-margin-right="0" inkscape:pageopacity="0.0" inkscape:pageshadow="2" fit-margin-bottom="0" inkscape:current-layer="g4572" inkscape:document-units="px" inkscape:window-maximized="1" fit-margin-top="0" inkscape:cy="-130.49973" showgrid="false" bordercolor="#666666" inkscape:cx="11.549977" borderopacity="1.0" inkscape:zoom="0.98994949" pagecolor="#ffffff" fit-margin-left="0">
	</sodipodi:namedview>
<g id="layer1" transform="translate(-326.67529,-425.77354)" inkscape:groupmode="layer" inkscape:label="Layer 1">
	<g id="g4572" transform="translate(45.614518,492.85206)">
		<g id="g4392">
			<g id="g4394">
				<g id="line4396">
					<path fill="#C62828" d="M300.216-43.368c-0.419,0-0.809-0.265-0.948-0.684l-7.304-21.9c-0.175-0.524,0.108-1.09,0.632-1.265
						c0.526-0.173,1.091,0.109,1.265,0.632l7.303,21.9c0.175,0.524-0.108,1.09-0.632,1.265
						C300.427-43.384,300.32-43.368,300.216-43.368z"/>
				</g>
				<g id="path4398">
					<path fill="#C62828" d="M297.773-43.368c-0.42,0-0.811-0.266-0.949-0.686l-5.438-16.438l-6.563,16.493
						c-0.204,0.513-0.786,0.765-1.299,0.559c-0.513-0.204-0.764-0.785-0.56-1.299l7.448-18.716c0.178-0.447,0.608-0.73,1.101-0.71
						c0.48,0.022,0.895,0.348,1.031,0.809l6.177,18.674c0.174,0.524-0.11,1.091-0.635,1.264
						C297.983-43.384,297.877-43.368,297.773-43.368z"/>
				</g>
				<g id="line4400">
					<path fill="#C62828" d="M287.603-43.368h-5.73c-0.552,0-1-0.447-1-1s0.448-1,1-1h5.73c0.552,0,1,0.447,1,1
						S288.155-43.368,287.603-43.368z"/>
				</g>
				<g id="line4402">
					<path fill="#C62828" d="M300.866-43.368h-5.731c-0.552,0-1-0.447-1-1s0.448-1,1-1h5.731c0.553,0,1,0.447,1,1
						S301.419-43.368,300.866-43.368z"/>
				</g>
				<g id="line4404">
					<path fill="#C62828" d="M294.126-53.288h-6.283c-0.552,0-1-0.447-1-1c0-0.552,0.448-1,1-1h6.283c0.552,0,1,0.448,1,1
						C295.126-53.736,294.678-53.288,294.126-53.288z"/>
				</g>
			</g>
			<g id="line4406">
				<path fill="#C62828" d="M312.378-53.288h-10.225c-0.553,0-1-0.447-1-1c0-0.552,0.447-1,1-1h10.225c0.553,0,1,0.448,1,1
					C313.378-53.736,312.931-53.288,312.378-53.288z"/>
			</g>
			<g id="line4408">
				<path fill="#C62828" d="M307.265-55.817c-0.553,0-1-0.448-1-1v-2.584c0-0.552,0.447-1,1-1s1,0.448,1,1v2.584
					C308.265-56.264,307.817-55.817,307.265-55.817z"/>
			</g>
			<g id="line4410">
				<path fill="#C62828" d="M307.265-48.176c-0.553,0-1-0.447-1-1v-5.126c0-0.552,0.447-1,1-1s1,0.448,1,1v5.126
					C308.265-48.623,307.817-48.176,307.265-48.176z"/>
			</g>
		</g>
	</g>
</g>
</svg>
