<?xml version="1.0" encoding="UTF-8" standalone="no"?>
<!-- Created with Inkscape (http://www.inkscape.org/) -->

<svg
   xmlns:dc="http://purl.org/dc/elements/1.1/"
   xmlns:cc="http://creativecommons.org/ns#"
   xmlns:rdf="http://www.w3.org/1999/02/22-rdf-syntax-ns#"
   xmlns:svg="http://www.w3.org/2000/svg"
   xmlns="http://www.w3.org/2000/svg"
   xmlns:sodipodi="http://sodipodi.sourceforge.net/DTD/sodipodi-0.dtd"
   xmlns:inkscape="http://www.inkscape.org/namespaces/inkscape"
   width="5.7089319mm"
   height="7.7878513mm"
   viewBox="0 0 20.2285 27.594749"
   id="svg2"
   version="1.1"
   inkscape:version="0.91 r13725"
   sodipodi:docname="arrow-top.svg">
  <defs
     id="defs4" />
  <sodipodi:namedview
     id="base"
     pagecolor="#ffffff"
     bordercolor="#666666"
     borderopacity="1.0"
     inkscape:pageopacity="0.0"
     inkscape:pageshadow="2"
     inkscape:zoom="0.98994949"
     inkscape:cx="-203.45299"
     inkscape:cy="-86.59678"
     inkscape:document-units="px"
     inkscape:current-layer="g3488"
     showgrid="false"
     inkscape:window-width="1366"
     inkscape:window-height="705"
     inkscape:window-x="-8"
     inkscape:window-y="-8"
     inkscape:window-maximized="1"
     fit-margin-top="0"
     fit-margin-left="0"
     fit-margin-right="0"
     fit-margin-bottom="0" />
  <metadata
     id="metadata7">
    <rdf:RDF>
      <cc:Work
         rdf:about="">
        <dc:format>image/svg+xml</dc:format>
        <dc:type
           rdf:resource="http://purl.org/dc/dcmitype/StillImage" />
        <dc:title></dc:title>
      </cc:Work>
    </rdf:RDF>
  </metadata>
  <g
     inkscape:label="Layer 1"
     inkscape:groupmode="layer"
     id="layer1"
     transform="translate(-629.22692,-216.94666)">
    <g
       id="g3337"
       transform="translate(73.766909,-85.354495)">
      <g
         id="g3379"
         transform="translate(99.14922,57.467312)">
        <g
           id="g3488"
           transform="translate(396.19754,239.88559)">
          <g
             id="g3444">
            <g
               id="g3446">
              <g
                 id="g3448">
                <path
                   id="path3450"
                   d="m 71.742,32.543 c -0.414,0 -0.75,-0.336 -0.75,-0.75 l 0,-15.092 c 0,-0.414 0.336,-0.75 0.75,-0.75 0.414,0 0.75,0.336 0.75,0.75 l 0,15.092 c 0,0.414 -0.336,0.75 -0.75,0.75 z"
                   inkscape:connector-curvature="0"
                   style="fill:#bbbbbd" />
              </g>
              <g
                 id="g3452">
                <path
                   id="path3454"
                   d="m 68.812,32.501 c -0.414,0 -0.75,-0.336 -0.75,-0.75 l 0,-19.12 c 0,-0.414 0.336,-0.75 0.75,-0.75 0.414,0 0.75,0.336 0.75,0.75 l 0,19.121 c 0,0.414 -0.336,0.749 -0.75,0.749 z"
                   inkscape:connector-curvature="0"
                   style="fill:#bbbbbd" />
              </g>
              <g
                 id="g3456">
                <path
                   id="path3458"
                   d="m 79.591,20.919 c -0.192,0 -0.384,-0.073 -0.53,-0.22 l -9.364,-9.364 c -0.293,-0.293 -0.293,-0.768 0,-1.061 0.293,-0.293 0.768,-0.293 1.061,0 l 9.364,9.364 c 0.293,0.293 0.293,0.768 0,1.061 -0.148,0.147 -0.34,0.22 -0.531,0.22 z"
                   inkscape:connector-curvature="0"
                   style="fill:#bbbbbd" />
              </g>
              <g
                 id="g3460">
                <path
                   id="path3462"
                   d="m 60.863,20.919 c -0.192,0 -0.384,-0.073 -0.53,-0.22 -0.293,-0.293 -0.293,-0.768 0,-1.061 l 9.364,-9.364 c 0.293,-0.293 0.768,-0.293 1.061,0 0.293,0.293 0.293,0.768 0,1.061 l -9.364,9.364 c -0.147,0.147 -0.339,0.22 -0.531,0.22 z"
                   inkscape:connector-curvature="0"
                   style="fill:#bbbbbd" />
              </g>
              <g
                 id="g3464">
                <path
                   id="path3466"
                   d="m 79.591,15.813 c -0.192,0 -0.384,-0.073 -0.53,-0.22 L 69.697,6.229 c -0.293,-0.293 -0.293,-0.768 0,-1.061 0.293,-0.293 0.768,-0.293 1.061,0 l 9.364,9.364 c 0.293,0.293 0.293,0.768 0,1.061 -0.148,0.147 -0.34,0.22 -0.531,0.22 z"
                   inkscape:connector-curvature="0"
                   style="fill:#bbbbbd" />
              </g>
              <g
                 id="g3468">
                <path
                   id="path3470"
                   d="m 60.863,15.813 c -0.192,0 -0.384,-0.073 -0.53,-0.22 -0.293,-0.293 -0.293,-0.768 0,-1.061 l 9.364,-9.364 c 0.293,-0.293 0.768,-0.293 1.061,0 0.293,0.293 0.293,0.768 0,1.061 l -9.364,9.364 c -0.147,0.147 -0.339,0.22 -0.531,0.22 z"
                   inkscape:connector-curvature="0"
                   style="fill:#bbbbbd" />
              </g>
            </g>
          </g>
        </g>
      </g>
    </g>
  </g>
</svg>
