<?xml version="1.0" encoding="UTF-8" standalone="no"?>
<!-- Created with Inkscape (http://www.inkscape.org/) -->

<svg
   xmlns:dc="http://purl.org/dc/elements/1.1/"
   xmlns:cc="http://creativecommons.org/ns#"
   xmlns:rdf="http://www.w3.org/1999/02/22-rdf-syntax-ns#"
   xmlns:svg="http://www.w3.org/2000/svg"
   xmlns="http://www.w3.org/2000/svg"
   xmlns:sodipodi="http://sodipodi.sourceforge.net/DTD/sodipodi-0.dtd"
   xmlns:inkscape="http://www.inkscape.org/namespaces/inkscape"
   width="4.1762395mm"
   height="2.3833861mm"
   viewBox="0 0 14.797699 8.4450692"
   id="svg2"
   version="1.1"
   inkscape:version="0.91 r13725"
   sodipodi:docname="arrow-bottom.svg">
  <defs
     id="defs4" />
  <sodipodi:namedview
     id="base"
     pagecolor="#ffffff"
     bordercolor="#666666"
     borderopacity="1.0"
     inkscape:pageopacity="0.0"
     inkscape:pageshadow="2"
     inkscape:zoom="0.98994949"
     inkscape:cx="-344.93838"
     inkscape:cy="-122.06489"
     inkscape:document-units="px"
     inkscape:current-layer="g3488"
     showgrid="false"
     inkscape:window-width="1366"
     inkscape:window-height="705"
     inkscape:window-x="-8"
     inkscape:window-y="-8"
     inkscape:window-maximized="1"
     fit-margin-top="0"
     fit-margin-left="0"
     fit-margin-right="0"
     fit-margin-bottom="0" />
  <metadata
     id="metadata7">
    <rdf:RDF>
      <cc:Work
         rdf:about="">
        <dc:format>image/svg+xml</dc:format>
        <dc:type
           rdf:resource="http://purl.org/dc/dcmitype/StillImage" />
        <dc:title></dc:title>
      </cc:Work>
    </rdf:RDF>
  </metadata>
  <g
     inkscape:label="Layer 1"
     inkscape:groupmode="layer"
     id="layer1"
     transform="translate(-694.15622,-227.52134)">
    <g
       id="g3337"
       transform="translate(73.766909,-85.354495)">
      <g
         id="g3379"
         transform="translate(99.14922,57.467312)">
        <g
           id="g3488"
           transform="translate(396.19754,239.88559)">
          <g
             id="g3472">
            <g
               id="g3474">
              <path
                 id="path3476"
                 d="m 132.645,23.968 c -0.252,0 -0.504,-0.095 -0.699,-0.285 l -6.602,-6.444 c -0.395,-0.386 -0.403,-1.019 -0.017,-1.415 0.387,-0.395 1.019,-0.402 1.415,-0.017 l 6.602,6.444 c 0.395,0.386 0.403,1.019 0.017,1.415 -0.196,0.202 -0.456,0.302 -0.716,0.302 z"
                 inkscape:connector-curvature="0"
                 style="fill:#bbbbbc" />
            </g>
            <g
               id="g3478">
              <path
                 id="path3480"
                 d="m 132.661,23.958 c -0.256,0 -0.512,-0.098 -0.707,-0.293 -0.391,-0.391 -0.391,-1.023 0,-1.414 l 6.179,-6.179 c 0.391,-0.391 1.023,-0.391 1.414,0 0.391,0.391 0.391,1.023 0,1.414 l -6.179,6.179 c -0.195,0.195 -0.451,0.293 -0.707,0.293 z"
                 inkscape:connector-curvature="0"
                 style="fill:#bbbbbc" />
            </g>
          </g>
        </g>
      </g>
    </g>
  </g>
</svg>
