<?xml version="1.0" encoding="utf-8"?>
<!-- Generator: Adobe Illustrator 17.0.0, SVG Export Plug-In . SVG Version: 6.00 Build 0)  -->
<!DOCTYPE svg PUBLIC "-//W3C//DTD SVG 1.1//EN" "http://www.w3.org/Graphics/SVG/1.1/DTD/svg11.dtd">
<svg version="1.1"
	 id="svg2" sodipodi:docname="berry.svg" inkscape:version="0.91 r13725" xmlns:sodipodi="http://sodipodi.sourceforge.net/DTD/sodipodi-0.dtd" xmlns:dc="http://purl.org/dc/elements/1.1/" xmlns:inkscape="http://www.inkscape.org/namespaces/inkscape" xmlns:svg="http://www.w3.org/2000/svg" xmlns:cc="http://creativecommons.org/ns#" xmlns:rdf="http://www.w3.org/1999/02/22-rdf-syntax-ns#"
	 xmlns="http://www.w3.org/2000/svg" xmlns:xlink="http://www.w3.org/1999/xlink" x="0px" y="0px" width="36.443px"
	 height="44.735px" viewBox="0 0 36.443 44.735" enable-background="new 0 0 36.443 44.735" xml:space="preserve">
<sodipodi:namedview  id="base" inkscape:window-x="-8" inkscape:window-y="-8" inkscape:window-width="1366" inkscape:window-height="705" fit-margin-right="0" inkscape:pageopacity="0.0" inkscape:pageshadow="2" fit-margin-bottom="0" inkscape:current-layer="g4572" inkscape:document-units="px" inkscape:window-maximized="1" fit-margin-top="0" inkscape:cy="39.123999" showgrid="false" bordercolor="#666666" inkscape:cx="358.15945" borderopacity="1.0" inkscape:zoom="0.98994949" pagecolor="#ffffff" fit-margin-left="0">
	</sodipodi:namedview>
<g id="layer1" transform="translate(-58.837519,-412.51497)" inkscape:groupmode="layer" inkscape:label="Layer 1">
	<g id="g4572" transform="translate(45.614518,492.85206)">
		<g id="g4358">
			<g id="path4360">
				<path fill="#C62828" d="M31.33-35.402c-10.608,0-18.307-7.708-18.307-18.327c0-10.313,5.451-16.136,15.382-16.489
					c-0.029-1.618-0.409-4.154-1.992-4.355c-0.548-0.07-0.936-0.57-0.866-1.118c0.07-0.549,0.571-0.933,1.118-0.866
					c3.377,0.429,3.921,4.856,3.71,7.405L30.3-68.236h-0.921c-9.526,0-14.356,4.881-14.356,14.506
					c0,9.461,6.858,16.327,16.307,16.327c9.45,0,16.309-6.866,16.309-16.327c0-8.336-4.005-13.329-11.581-14.437
					c-0.547-0.08-0.925-0.587-0.845-1.134c0.079-0.546,0.588-0.927,1.134-0.845c8.571,1.253,13.292,7.083,13.292,16.416
					C49.639-43.11,41.938-35.402,31.33-35.402z"/>
			</g>
			<g id="path4362">
				<path fill="#C62828" d="M31.331-39.213c-0.552,0-1-0.447-1-1s0.448-1,1-1c7.247,0,12.309-5.068,12.309-12.324
					c0-7.122-3.973-11.044-11.187-11.044h-1.038l0.039-1.037c0.016-0.413,0.44-10.137,6.03-12.803
					c2.518-1.2,5.061-1.313,7.104-1.404c1.47-0.065,2.739-0.122,3.488-0.551c0.396-0.228,0.879-0.215,1.257,0.032
					c0.371,0.242,0.573,0.667,0.526,1.11c-0.2,1.944-1.326,8.393-7.38,9.678c-0.546,0.119-1.071-0.23-1.187-0.771
					c-0.114-0.54,0.23-1.071,0.771-1.186c3.798-0.806,5.133-4.391,5.598-6.605c-0.885,0.197-1.887,0.242-2.984,0.291
					c-1.96,0.087-4.182,0.186-6.332,1.211c-3.583,1.708-4.56,7.665-4.811,10.062c7.711,0.396,12.105,5.09,12.105,13.017
					C45.64-45.237,39.622-39.213,31.331-39.213z"/>
			</g>
		</g>
	</g>
</g>
</svg>
