<?xml version="1.0" encoding="utf-8"?>
<!-- Generator: Adobe Illustrator 17.0.0, SVG Export Plug-In . SVG Version: 6.00 Build 0)  -->
<!DOCTYPE svg PUBLIC "-//W3C//DTD SVG 1.1//EN" "http://www.w3.org/Graphics/SVG/1.1/DTD/svg11.dtd">
<svg version="1.1"
	 id="svg2" sodipodi:docname="bibble.svg" inkscape:version="0.91 r13725" xmlns:sodipodi="http://sodipodi.sourceforge.net/DTD/sodipodi-0.dtd" xmlns:dc="http://purl.org/dc/elements/1.1/" xmlns:inkscape="http://www.inkscape.org/namespaces/inkscape" xmlns:svg="http://www.w3.org/2000/svg" xmlns:cc="http://creativecommons.org/ns#" xmlns:rdf="http://www.w3.org/1999/02/22-rdf-syntax-ns#"
	 xmlns="http://www.w3.org/2000/svg" xmlns:xlink="http://www.w3.org/1999/xlink" x="0px" y="0px" width="28.407px"
	 height="32.06px" viewBox="0 0 28.407 32.06" enable-background="new 0 0 28.407 32.06" xml:space="preserve">
<sodipodi:namedview  id="base" inkscape:window-x="-8" inkscape:window-y="-8" inkscape:window-width="1366" inkscape:window-height="705" fit-margin-right="0" inkscape:pageopacity="0.0" inkscape:pageshadow="2" fit-margin-bottom="0" inkscape:current-layer="g4572" inkscape:document-units="px" inkscape:window-maximized="1" fit-margin-top="0" inkscape:cy="233.94597" showgrid="false" bordercolor="#666666" inkscape:cx="184.66528" borderopacity="1.0" inkscape:zoom="0.49497475" pagecolor="#ffffff" fit-margin-left="0">
	</sodipodi:namedview>
<g id="layer1" transform="translate(-63.376276,-702.61096)" inkscape:groupmode="layer" inkscape:label="Layer 1">
	<g id="g4572" transform="translate(45.614518,492.85206)">
		<g id="g4316">
			<g id="polyline4318">
				<g>
					<path fill="#C62828" d="M45.369,242.008H22.184c-0.002,0-0.003,0-0.003,0c-0.001,0-0.002,0-0.002,0l0,0
						c-0.248-0.001-0.475-0.093-0.649-0.243l-3.606-3.078c-0.222-0.19-0.351-0.468-0.351-0.761v-27.367
						c0-0.404,0.244-0.769,0.617-0.924c0.374-0.155,0.803-0.07,1.09,0.217l3.611,3.611c0.188,0.188,0.293,0.442,0.293,0.707v25.837
						h21.185v-24.839l-18.29,0.002c-0.552,0-1-0.448-1-1s0.448-1,1-1l19.29-0.002c0.265,0,0.52,0.105,0.707,0.293
						s0.293,0.442,0.293,0.707v26.839C46.369,241.561,45.922,242.008,45.369,242.008z M19.573,237.465l1.611,1.375v-24.255
						l-1.611-1.611V237.465z"/>
				</g>
			</g>
			<g id="line4320">
				<g>
					<path fill="#C62828" d="M41.24,211.559H18.573c-0.552,0-1-0.448-1-1s0.448-1,1-1H41.24c0.553,0,1,0.448,1,1
						S41.793,211.559,41.24,211.559z"/>
				</g>
			</g>
			<g id="path4322">
				<g>
					
						<path inkscape:connector-curvature="0" fill="none" stroke="#C62828" stroke-width="2" stroke-linecap="round" stroke-linejoin="round" stroke-miterlimit="10" d="
						M24.136,235.306"/>
				</g>
			</g>
			<g id="g4324">
				<g id="line4326">
					<g>
						<path fill="#C62828" d="M31.814,237.69c-0.552,0-1-0.447-1-1v-18.123c0-0.552,0.448-1,1-1c0.552,0,1,0.448,1,1v18.123
							C32.814,237.243,32.366,237.69,31.814,237.69z"/>
					</g>
				</g>
				<g id="line4328">
					<g>
						<path fill="#C62828" d="M35.292,237.69c-0.553,0-1-0.447-1-1v-18.123c0-0.552,0.447-1,1-1s1,0.448,1,1v18.123
							C36.292,237.243,35.844,237.69,35.292,237.69z"/>
					</g>
				</g>
				<g id="line4330">
					<g>
						<path fill="#C62828" d="M40.314,224.315h-5.022c-0.553,0-1-0.448-1-1s0.447-1,1-1h5.022c0.553,0,1,0.448,1,1
							S40.867,224.315,40.314,224.315z"/>
					</g>
				</g>
				<g id="line4332">
					<g>
						<path fill="#C62828" d="M40.314,227.811h-5.022c-0.553,0-1-0.447-1-1c0-0.552,0.447-1,1-1h5.022c0.553,0,1,0.448,1,1
							S40.867,227.811,40.314,227.811z"/>
					</g>
				</g>
				<g id="line4334">
					<g>
						<path fill="#C62828" d="M29.303,224.315h-2.512c-0.552,0-1-0.448-1-1s0.448-1,1-1h2.512c0.552,0,1,0.448,1,1
							S29.855,224.315,29.303,224.315z"/>
					</g>
				</g>
				<g id="line4336">
					<g>
						<path fill="#C62828" d="M29.303,227.811h-2.512c-0.552,0-1-0.447-1-1c0-0.552,0.448-1,1-1h2.512c0.552,0,1,0.448,1,1
							C30.303,227.363,29.855,227.811,29.303,227.811z"/>
					</g>
				</g>
			</g>
		</g>
	</g>
</g>
</svg>
