<?xml version="1.0" encoding="utf-8"?>
<!-- Generator: Adobe Illustrator 17.0.0, SVG Export Plug-In . SVG Version: 6.00 Build 0)  -->
<!DOCTYPE svg PUBLIC "-//W3C//DTD SVG 1.1//EN" "http://www.w3.org/Graphics/SVG/1.1/DTD/svg11.dtd">
<svg version="1.1"
	 id="svg2" sodipodi:docname="brush.svg" inkscape:version="0.91 r13725" xmlns:sodipodi="http://sodipodi.sourceforge.net/DTD/sodipodi-0.dtd" xmlns:dc="http://purl.org/dc/elements/1.1/" xmlns:inkscape="http://www.inkscape.org/namespaces/inkscape" xmlns:svg="http://www.w3.org/2000/svg" xmlns:cc="http://creativecommons.org/ns#" xmlns:rdf="http://www.w3.org/1999/02/22-rdf-syntax-ns#"
	 xmlns="http://www.w3.org/2000/svg" xmlns:xlink="http://www.w3.org/1999/xlink" x="0px" y="0px" width="43.186px"
	 height="37.023px" viewBox="0 0 43.186 37.023" enable-background="new 0 0 43.186 37.023" xml:space="preserve">
<sodipodi:namedview  id="base" inkscape:window-x="-8" inkscape:window-y="-8" inkscape:window-width="1366" inkscape:window-height="705" fit-margin-right="0" inkscape:pageopacity="0.0" inkscape:pageshadow="2" fit-margin-bottom="0" inkscape:current-layer="g4572" inkscape:document-units="px" inkscape:window-maximized="1" fit-margin-top="0" inkscape:cy="382.16934" showgrid="false" bordercolor="#666666" inkscape:cx="697.00502" borderopacity="1.0" inkscape:zoom="0.49497475" pagecolor="#ffffff" fit-margin-left="0">
	</sodipodi:namedview>
<g id="layer1" transform="translate(-234.69234,-598.46803)" inkscape:groupmode="layer" inkscape:label="Layer 1">
	<g id="g4572" transform="translate(45.614518,492.85206)">
		<g id="g4272">
			<g id="path4274">
				<path fill="#C62828" d="M200.63,142.841c-3.895,0-7.719-1.479-11.365-4.395c-0.296-0.237-0.433-0.621-0.353-0.991
					s0.362-0.664,0.729-0.759l3.09-0.794c1.388-0.356,2.59-1.276,3.299-2.522c0.349-0.613,0.57-1.28,0.656-1.983l0.222-1.815
					c0.332-2.709,2.076-4.972,4.552-5.908c2.231-0.843,4.297-1.033,6.054-0.551c0.167,0.045,0.319,0.134,0.442,0.256l6.037,6.016
					c0.17,0.169,0.273,0.395,0.291,0.634c0.016,0.208,0.34,5.141-3.155,8.636C209.109,140.683,205.29,142.841,200.63,142.841z
					 M192.192,138.107c2.759,1.815,5.589,2.734,8.438,2.734c4.054,0,7.427-1.935,9.084-3.592c2.369-2.369,2.581-5.651,2.584-6.721
					l-5.559-5.538c-1.299-0.288-2.855-0.096-4.573,0.554c-1.778,0.672-3.032,2.312-3.273,4.28l-0.222,1.814
					c-0.118,0.968-0.422,1.887-0.903,2.731c-0.976,1.714-2.63,2.979-4.54,3.47L192.192,138.107z"/>
			</g>
			<g id="path4276">
				<path fill="#C62828" d="M214.714,131.661c-0.828,0-1.604-0.321-2.188-0.903l-6.243-6.244c-1.206-1.206-1.207-3.17,0-4.377
					l1.462-1.462c1.168-1.166,3.213-1.165,4.378,0l6.242,6.243c1.206,1.206,1.206,3.169,0.001,4.377l-1.463,1.462
					C216.319,131.339,215.543,131.661,214.714,131.661z M209.933,119.771c-0.294,0-0.57,0.113-0.775,0.318l-1.461,1.461
					c-0.427,0.427-0.427,1.123,0,1.549l6.243,6.243c0.411,0.411,1.14,0.41,1.549,0l1.462-1.462c0.427-0.427,0.427-1.122,0-1.549
					l-6.242-6.243C210.503,119.884,210.228,119.771,209.933,119.771z"/>
			</g>
			<g id="path4278">
				<path fill="#C62828" d="M218.787,126.64c-0.975,0-1.915-0.387-2.608-1.08l-4.822-4.822c-0.746-0.746-1.137-1.777-1.074-2.83
					s0.576-2.03,1.406-2.681l11.753-9.579c0.43-0.349,1.059-0.284,1.407,0.144c0.349,0.428,0.284,1.058-0.144,1.407l-11.768,9.59
					c-0.4,0.314-0.629,0.75-0.658,1.239c-0.03,0.489,0.145,0.949,0.491,1.296l4.822,4.822c0.347,0.346,0.796,0.515,1.296,0.491
					c0.488-0.029,0.925-0.258,1.227-0.644l9.603-11.782c0.979-1.248,0.991-2.991,0.089-4.259l-12.938,10.544
					c-0.429,0.349-1.058,0.284-1.407-0.144c-0.349-0.428-0.284-1.058,0.144-1.407l13.669-11.14c0.389-0.315,0.951-0.297,1.316,0.047
					l0.221,0.208c2.015,2.011,2.206,5.184,0.469,7.4l-9.603,11.781c-0.639,0.815-1.616,1.328-2.669,1.393
					C218.936,126.638,218.861,126.64,218.787,126.64z"/>
			</g>
			<g id="path4280">
				<path fill="#C62828" d="M195.325,139.144c-0.264,0-0.529-0.013-0.794-0.037l-4.734-0.444c-0.55-0.052-0.954-0.54-0.902-1.09
					c0.052-0.549,0.539-0.958,1.089-0.902l4.734,0.444c1.9,0.182,3.77-0.485,5.132-1.821c1.362-1.335,2.062-3.19,1.922-5.093
					l-0.094-1.275c-0.04-0.551,0.374-1.03,0.925-1.07c0.542-0.048,1.029,0.374,1.07,0.924l0.093,1.275
					c0.183,2.489-0.734,4.92-2.517,6.668C199.656,138.284,197.532,139.144,195.325,139.144z"/>
			</g>
		</g>
	</g>
</g>
</svg>
