<?xml version="1.0" encoding="utf-8"?>
<!-- Generator: Adobe Illustrator 17.0.0, SVG Export Plug-In . SVG Version: 6.00 Build 0)  -->
<!DOCTYPE svg PUBLIC "-//W3C//DTD SVG 1.1//EN" "http://www.w3.org/Graphics/SVG/1.1/DTD/svg11.dtd">
<svg version="1.1"
	 id="svg2" sodipodi:docname="colorswatch.svg" inkscape:version="0.91 r13725" xmlns:sodipodi="http://sodipodi.sourceforge.net/DTD/sodipodi-0.dtd" xmlns:dc="http://purl.org/dc/elements/1.1/" xmlns:inkscape="http://www.inkscape.org/namespaces/inkscape" xmlns:svg="http://www.w3.org/2000/svg" xmlns:cc="http://creativecommons.org/ns#" xmlns:rdf="http://www.w3.org/1999/02/22-rdf-syntax-ns#"
	 xmlns="http://www.w3.org/2000/svg" xmlns:xlink="http://www.w3.org/1999/xlink" x="0px" y="0px" width="36.272px" height="37.6px"
	 viewBox="0 0 36.272 37.6" enable-background="new 0 0 36.272 37.6" xml:space="preserve">
<sodipodi:namedview  id="base" inkscape:window-x="-8" inkscape:window-y="-8" inkscape:window-width="1366" inkscape:window-height="705" fit-margin-right="0" inkscape:pageopacity="0.0" inkscape:pageshadow="2" fit-margin-bottom="0" inkscape:current-layer="g4572" inkscape:document-units="px" inkscape:window-maximized="1" fit-margin-top="0" inkscape:cy="152.47548" showgrid="false" bordercolor="#666666" inkscape:cx="504.79133" borderopacity="1.0" inkscape:zoom="0.49497475" pagecolor="#ffffff" fit-margin-left="0">
	</sodipodi:namedview>
<g id="layer1" transform="translate(-239.02347,-697.83406)" inkscape:groupmode="layer" inkscape:label="Layer 1">
	<g id="g4572" transform="translate(45.614518,492.85206)">
		<g id="g4258">
			<g id="path4260">
				<path fill="#C62828" d="M212.218,242.782c-9.646,0-17.953-7.486-18.911-17.044c-0.545-5.448,1.163-10.668,4.81-14.7
					c3.598-3.976,8.734-6.256,14.092-6.256c4.262,0,8.28,1.376,11.622,3.979c1.26,0.965,2.398,2.101,3.378,3.37
					c1.756,2.473,2.672,5.346,2.672,8.34c0,7.922-6.445,14.368-14.368,14.368l-0.107-0.002c-0.371,0-0.702,0.179-0.908,0.491
					c-0.205,0.312-0.238,0.687-0.091,1.03l0.985,2.296c0.389,0.904,0.304,1.94-0.227,2.773c-0.518,0.813-1.396,1.315-2.35,1.346
					l-0.163,0.004C212.51,242.78,212.363,242.782,212.218,242.782z M212.209,206.782c-4.794,0-9.39,2.041-12.609,5.598
					c-3.264,3.607-4.792,8.28-4.303,13.159c0.856,8.548,8.289,15.243,16.921,15.243l0.528-0.008c0.304-0.01,0.567-0.163,0.732-0.421
					c0.174-0.274,0.202-0.614,0.075-0.91l-0.985-2.296c-0.411-0.958-0.314-2.05,0.259-2.92c0.574-0.871,1.537-1.391,2.578-1.391
					l0.107,0.002c6.82,0,12.368-5.548,12.368-12.368c0-2.577-0.788-5.049-2.279-7.15c-0.85-1.1-1.865-2.112-2.993-2.977
					C219.615,208.012,216.022,206.782,212.209,206.782z"/>
			</g>
			<g id="circle4262">
				<path fill="#C62828" d="M205.239,218.666c-1.901,0-3.448-1.547-3.448-3.448c0-1.901,1.547-3.448,3.448-3.448
					c1.901,0,3.448,1.547,3.448,3.448C208.687,217.119,207.14,218.666,205.239,218.666z M205.239,213.77
					c-0.798,0-1.448,0.65-1.448,1.448s0.65,1.448,1.448,1.448s1.448-0.649,1.448-1.448S206.037,213.77,205.239,213.77z"/>
			</g>
			<g id="circle4264">
				<path fill="#C62828" d="M201.173,227.706c-1.901,0-3.448-1.547-3.448-3.448c0-1.901,1.547-3.448,3.448-3.448
					c1.901,0,3.448,1.547,3.448,3.448C204.621,226.159,203.074,227.706,201.173,227.706z M201.173,222.81
					c-0.798,0-1.448,0.65-1.448,1.448s0.649,1.448,1.448,1.448s1.448-0.649,1.448-1.448S201.971,222.81,201.173,222.81z"/>
			</g>
			<g id="circle4266">
				<path fill="#C62828" d="M205.904,236.296c-1.901,0-3.448-1.547-3.448-3.448s1.547-3.448,3.448-3.448
					c1.901,0,3.448,1.547,3.448,3.448S207.805,236.296,205.904,236.296z M205.904,231.399c-0.798,0-1.448,0.649-1.448,1.448
					s0.65,1.448,1.448,1.448s1.448-0.649,1.448-1.448S206.703,231.399,205.904,231.399z"/>
			</g>
			<g id="circle4268">
				<path fill="#C62828" d="M214.957,216.544c-1.9,0-3.447-1.546-3.447-3.447s1.547-3.447,3.447-3.447s3.447,1.546,3.447,3.447
					S216.857,216.544,214.957,216.544z M214.957,211.649c-0.798,0-1.447,0.649-1.447,1.447s0.649,1.447,1.447,1.447
					s1.447-0.649,1.447-1.447S215.755,211.649,214.957,211.649z"/>
			</g>
			<g id="circle4270">
				<path fill="#C62828" d="M222.395,223.002c-1.9,0-3.447-1.546-3.447-3.447s1.547-3.447,3.447-3.447s3.447,1.546,3.447,3.447
					S224.295,223.002,222.395,223.002z M222.395,218.108c-0.798,0-1.447,0.649-1.447,1.447s0.649,1.447,1.447,1.447
					s1.447-0.649,1.447-1.447S223.192,218.108,222.395,218.108z"/>
			</g>
		</g>
	</g>
</g>
</svg>
