<?xml version="1.0" encoding="utf-8"?>
<!-- Generator: Adobe Illustrator 17.0.0, SVG Export Plug-In . SVG Version: 6.00 Build 0)  -->
<!DOCTYPE svg PUBLIC "-//W3C//DTD SVG 1.1//EN" "http://www.w3.org/Graphics/SVG/1.1/DTD/svg11.dtd">
<svg version="1.1"
	 id="svg2" sodipodi:docname="documents.svg" inkscape:version="0.91 r13725" xmlns:sodipodi="http://sodipodi.sourceforge.net/DTD/sodipodi-0.dtd" xmlns:dc="http://purl.org/dc/elements/1.1/" xmlns:inkscape="http://www.inkscape.org/namespaces/inkscape" xmlns:svg="http://www.w3.org/2000/svg" xmlns:cc="http://creativecommons.org/ns#" xmlns:rdf="http://www.w3.org/1999/02/22-rdf-syntax-ns#"
	 xmlns="http://www.w3.org/2000/svg" xmlns:xlink="http://www.w3.org/1999/xlink" x="0px" y="0px" width="30.429px"
	 height="40.333px" viewBox="0 0 30.429 40.333" enable-background="new 0 0 30.429 40.333" xml:space="preserve">
<sodipodi:namedview  id="base" inkscape:window-x="-8" inkscape:window-y="-8" inkscape:window-width="1366" inkscape:window-height="705" fit-margin-right="0" inkscape:pageopacity="0.0" inkscape:pageshadow="2" fit-margin-bottom="0" inkscape:current-layer="g4572" inkscape:document-units="px" inkscape:window-maximized="1" fit-margin-top="0" inkscape:cy="2.3353616" showgrid="false" bordercolor="#666666" inkscape:cx="169.78856" borderopacity="1.0" inkscape:zoom="0.49497475" pagecolor="#ffffff" fit-margin-left="0">
	</sodipodi:namedview>
<g id="layer1" transform="translate(-509.87452,-415.26582)" inkscape:groupmode="layer" inkscape:label="Layer 1">
	<g id="g4572" transform="translate(45.614518,492.85206)">
		<g id="g4438">
			<g id="g4440">
				<g id="polyline4442">
					<path fill="#C62828" d="M493.867-41.205H469.18c-0.552,0-1-0.447-1-1v-34.581c0-0.552,0.448-1,1-1h18.139c0.553,0,1,0.448,1,1
						s-0.447,1-1,1H470.18v32.581h22.687v-27.012c0-0.552,0.447-1,1-1s1,0.448,1,1v28.012
						C494.867-41.652,494.42-41.205,493.867-41.205z"/>
				</g>
				<g id="polyline4444">
					<path fill="#C62828" d="M493.878-69.227h-6.569c-0.553,0-1-0.448-1-1v-6.548c0-0.552,0.447-1,1-1s1,0.448,1,1v5.548h5.569
						c0.553,0,1,0.448,1,1S494.431-69.227,493.878-69.227z"/>
				</g>
				<g id="line4446">
					<path fill="#C62828" d="M493.867-69.217c-0.256,0-0.512-0.098-0.707-0.293l-6.548-6.547c-0.391-0.391-0.391-1.023,0-1.414
						s1.023-0.391,1.414,0l6.548,6.547c0.391,0.391,0.391,1.023,0,1.414C494.379-69.315,494.123-69.217,493.867-69.217z"/>
				</g>
				<g id="line4448">
					<path fill="#C62828" d="M472.401-44.42c-0.552,0-1-0.447-1-1v-24.807c0-0.552,0.448-1,1-1s1,0.448,1,1v24.807
						C473.401-44.867,472.953-44.42,472.401-44.42z"/>
				</g>
			</g>
			<g id="polyline4450">
				<path fill="#C62828" d="M489.747-37.054H465.06c-0.552,0-1-0.447-1-1v-34.581c0-0.552,0.448-1,1-1h4.12c0.552,0,1,0.448,1,1
					s-0.448,1-1,1h-3.12v32.581h22.687v-3.151c0-0.553,0.447-1,1-1s1,0.447,1,1v4.151C490.747-37.501,490.3-37.054,489.747-37.054z"
					/>
			</g>
		</g>
	</g>
</g>
</svg>
