<?xml version="1.0" encoding="utf-8"?>
<!-- Generator: Adobe Illustrator 17.0.0, SVG Export Plug-In . SVG Version: 6.00 Build 0)  -->
<!DOCTYPE svg PUBLIC "-//W3C//DTD SVG 1.1//EN" "http://www.w3.org/Graphics/SVG/1.1/DTD/svg11.dtd">
<svg version="1.1"
	 id="svg2" sodipodi:docname="document.svg" inkscape:version="0.91 r13725" xmlns:sodipodi="http://sodipodi.sourceforge.net/DTD/sodipodi-0.dtd" xmlns:dc="http://purl.org/dc/elements/1.1/" xmlns:inkscape="http://www.inkscape.org/namespaces/inkscape" xmlns:svg="http://www.w3.org/2000/svg" xmlns:cc="http://creativecommons.org/ns#" xmlns:rdf="http://www.w3.org/1999/02/22-rdf-syntax-ns#"
	 xmlns="http://www.w3.org/2000/svg" xmlns:xlink="http://www.w3.org/1999/xlink" x="0px" y="0px" width="26.309px"
	 height="36.181px" viewBox="0 0 26.309 36.181" enable-background="new 0 0 26.309 36.181" xml:space="preserve">
<sodipodi:namedview  id="base" inkscape:window-x="-8" inkscape:window-y="-8" inkscape:window-width="1366" inkscape:window-height="705" fit-margin-right="0" inkscape:pageopacity="0.0" inkscape:pageshadow="2" fit-margin-bottom="0" inkscape:current-layer="g4572" inkscape:document-units="px" inkscape:window-maximized="1" fit-margin-top="0" inkscape:cy="36.921543" showgrid="false" bordercolor="#666666" inkscape:cx="324.82856" borderopacity="1.0" inkscape:zoom="0.49497475" pagecolor="#ffffff" fit-margin-left="0">
	</sodipodi:namedview>
<g id="layer1" transform="translate(-421.12652,-417.86082)" inkscape:groupmode="layer" inkscape:label="Layer 1">
	<g id="g4572" transform="translate(45.614518,492.85206)">
		<g id="g4428">
			<g id="polyline4430">
				<path fill="#C62828" d="M400.999-38.611h-24.687c-0.552,0-1-0.447-1-1v-34.581c0-0.552,0.448-1,1-1h18.14c0.553,0,1,0.448,1,1
					s-0.447,1-1,1h-17.14v32.581h22.687v-27.011c0-0.552,0.447-1,1-1s1,0.448,1,1v28.011
					C401.999-39.058,401.551-38.611,400.999-38.611z"/>
			</g>
			<g id="polyline4432">
				<path fill="#C62828" d="M401.009-66.632h-6.569c-0.553,0-1-0.448-1-1v-6.548c0-0.552,0.447-1,1-1s1,0.448,1,1v5.548h5.569
					c0.553,0,1,0.448,1,1S401.562-66.632,401.009-66.632z"/>
			</g>
			<g id="line4434">
				<path fill="#C62828" d="M400.999-66.622c-0.256,0-0.512-0.098-0.707-0.293l-6.547-6.548c-0.391-0.391-0.391-1.024,0-1.414
					c0.391-0.391,1.023-0.391,1.414,0l6.547,6.548c0.391,0.391,0.391,1.024,0,1.414C401.51-66.72,401.254-66.622,400.999-66.622z"/>
			</g>
			<g id="line4436">
				<path fill="#C62828" d="M379.533-41.825c-0.552,0-1-0.447-1-1v-24.807c0-0.552,0.448-1,1-1s1,0.448,1,1v24.807
					C380.533-42.272,380.085-41.825,379.533-41.825z"/>
			</g>
		</g>
	</g>
</g>
</svg>
