<?xml version="1.0" encoding="utf-8"?>
<!-- Generator: Adobe Illustrator 17.0.0, SVG Export Plug-In . SVG Version: 6.00 Build 0)  -->
<!DOCTYPE svg PUBLIC "-//W3C//DTD SVG 1.1//EN" "http://www.w3.org/Graphics/SVG/1.1/DTD/svg11.dtd">
<svg version="1.1"
	 id="svg2" sodipodi:docname="door-frame.svg" inkscape:version="0.91 r13725" xmlns:sodipodi="http://sodipodi.sourceforge.net/DTD/sodipodi-0.dtd" xmlns:dc="http://purl.org/dc/elements/1.1/" xmlns:inkscape="http://www.inkscape.org/namespaces/inkscape" xmlns:svg="http://www.w3.org/2000/svg" xmlns:cc="http://creativecommons.org/ns#" xmlns:rdf="http://www.w3.org/1999/02/22-rdf-syntax-ns#"
	 xmlns="http://www.w3.org/2000/svg" xmlns:xlink="http://www.w3.org/1999/xlink" x="0px" y="0px" width="38.768px"
	 height="33.653px" viewBox="0 0 38.768 33.653" enable-background="new 0 0 38.768 33.653" xml:space="preserve">
<sodipodi:namedview  id="base" inkscape:window-x="-8" inkscape:window-y="-8" inkscape:window-width="1366" inkscape:window-height="705" fit-margin-right="0" inkscape:pageopacity="0.0" inkscape:pageshadow="2" fit-margin-bottom="0" inkscape:current-layer="g4572" inkscape:document-units="px" inkscape:window-maximized="1" fit-margin-top="0" inkscape:cy="394.58007" showgrid="false" bordercolor="#666666" inkscape:cx="534.13459" borderopacity="1.0" inkscape:zoom="0.49497475" pagecolor="#ffffff" fit-margin-left="0">
	</sodipodi:namedview>
<g id="layer1" transform="translate(-325.49126,-700.30605)" inkscape:groupmode="layer" inkscape:label="Layer 1">
	<g id="g4572" transform="translate(45.614518,492.85206)">
		<g id="g4188">
			<g id="rect4190">
				<path fill="#C62828" d="M315.036,214.077h-33.775c-0.552,0-1-0.448-1-1v-4.823c0-0.552,0.448-1,1-1h33.775c0.553,0,1,0.448,1,1
					v4.823C316.036,213.629,315.589,214.077,315.036,214.077z M282.261,212.077h31.775v-2.823h-31.775V212.077z"/>
			</g>
			<g id="g4192">
				<g id="line4194">
					<path fill="#C62828" d="M286.091,237.094c-0.552,0-1-0.447-1-1v-23.017c0-0.552,0.448-1,1-1s1,0.448,1,1v23.017
						C287.091,236.647,286.643,237.094,286.091,237.094z"/>
				</g>
			</g>
			<g id="g4196">
				<g id="line4198">
					<path fill="#C62828" d="M290.371,238.37c-0.552,0-1-0.447-1-1v-24.292c0-0.552,0.448-1,1-1s1,0.448,1,1v24.292
						C291.371,237.922,290.924,238.37,290.371,238.37z"/>
				</g>
			</g>
			<g id="line4200">
				<path fill="#C62828" d="M280.686,241.3c-0.298,0-0.593-0.133-0.79-0.386c-0.339-0.436-0.261-1.064,0.175-1.403l5.405-4.206
					c0.436-0.341,1.064-0.261,1.403,0.175c0.339,0.436,0.261,1.064-0.175,1.403l-5.405,4.206
					C281.118,241.232,280.901,241.3,280.686,241.3z"/>
			</g>
			<g id="line4202">
				<path fill="#C62828" d="M286.606,241.3c-0.298,0-0.593-0.133-0.79-0.386c-0.339-0.436-0.261-1.064,0.175-1.403l10.811-8.412
					c0.435-0.342,1.063-0.261,1.403,0.175c0.339,0.436,0.261,1.064-0.175,1.403l-10.811,8.412
					C287.037,241.232,286.821,241.3,286.606,241.3z"/>
			</g>
			<g id="g4204">
				<g id="line4206">
					<path fill="#C62828" d="M306.51,237.094c-0.553,0-1-0.447-1-1v-23.017c0-0.552,0.447-1,1-1s1,0.448,1,1v23.017
						C307.51,236.647,307.062,237.094,306.51,237.094z"/>
				</g>
			</g>
			<g id="g4208">
				<g id="line4210">
					<path fill="#C62828" d="M310.79,238.37c-0.553,0-1-0.447-1-1v-24.292c0-0.552,0.447-1,1-1s1,0.448,1,1v24.292
						C311.79,237.922,311.343,238.37,310.79,238.37z"/>
				</g>
			</g>
			<g id="line4212">
				<path fill="#C62828" d="M301.105,241.3c-0.298,0-0.593-0.133-0.79-0.386c-0.339-0.436-0.261-1.064,0.175-1.403l5.405-4.206
					c0.438-0.341,1.064-0.26,1.403,0.175c0.339,0.436,0.261,1.064-0.175,1.403l-5.405,4.206
					C301.536,241.232,301.319,241.3,301.105,241.3z"/>
			</g>
			<g id="line4214">
				<path fill="#C62828" d="M307.025,241.3c-0.298,0-0.593-0.133-0.79-0.386c-0.339-0.437-0.261-1.064,0.175-1.403l10.812-8.412
					c0.437-0.341,1.065-0.26,1.403,0.175c0.339,0.437,0.261,1.064-0.175,1.403l-10.812,8.412
					C307.456,241.232,307.239,241.3,307.025,241.3z"/>
			</g>
		</g>
	</g>
</g>
</svg>
