<?xml version="1.0" encoding="utf-8"?>
<!-- Generator: Adobe Illustrator 17.0.0, SVG Export Plug-In . SVG Version: 6.00 Build 0)  -->
<!DOCTYPE svg PUBLIC "-//W3C//DTD SVG 1.1//EN" "http://www.w3.org/Graphics/SVG/1.1/DTD/svg11.dtd">
<svg version="1.1"
	 id="svg2" sodipodi:docname="envelope.svg" inkscape:version="0.91 r13725" xmlns:sodipodi="http://sodipodi.sourceforge.net/DTD/sodipodi-0.dtd" xmlns:dc="http://purl.org/dc/elements/1.1/" xmlns:inkscape="http://www.inkscape.org/namespaces/inkscape" xmlns:svg="http://www.w3.org/2000/svg" xmlns:cc="http://creativecommons.org/ns#" xmlns:rdf="http://www.w3.org/1999/02/22-rdf-syntax-ns#"
	 xmlns="http://www.w3.org/2000/svg" xmlns:xlink="http://www.w3.org/1999/xlink" x="0px" y="0px" width="36.19px"
	 height="26.305px" viewBox="0 0 36.19 26.305" enable-background="new 0 0 36.19 26.305" xml:space="preserve">
<sodipodi:namedview  id="base" inkscape:window-x="-8" inkscape:window-y="-8" inkscape:window-width="1366" inkscape:window-height="705" fit-margin-right="0" inkscape:pageopacity="0.0" inkscape:pageshadow="2" fit-margin-bottom="0" inkscape:current-layer="g4572" inkscape:document-units="px" inkscape:window-maximized="1" fit-margin-top="0" inkscape:cy="132.24397" showgrid="false" bordercolor="#666666" inkscape:cx="0.028051125" borderopacity="1.0" inkscape:zoom="0.49497475" pagecolor="#ffffff" fit-margin-left="0">
	</sodipodi:namedview>
<g id="layer1" transform="translate(-596.39754,-514.42074)" inkscape:groupmode="layer" inkscape:label="Layer 1">
	<g id="g4572" transform="translate(45.614518,492.85206)">
		<g id="rect4494">
			<path fill="#C62828" d="M586.164,48.062h-34.581c-0.552,0-1-0.447-1-1V22.375c0-0.552,0.448-1,1-1h34.581c0.553,0,1,0.448,1,1
				v24.687C587.164,47.615,586.717,48.062,586.164,48.062z M552.583,46.062h32.581V23.375h-32.581V46.062z"/>
		</g>
		<g id="polyline4496">
			<path fill="#C62828" d="M568.873,35.719c-0.204,0-0.407-0.063-0.581-0.187l-11.949-8.531c-0.45-0.321-0.554-0.945-0.233-1.395
				c0.32-0.45,0.945-0.554,1.395-0.233l11.368,8.117l16.71-11.93c0.45-0.319,1.076-0.216,1.395,0.233
				c0.321,0.45,0.217,1.074-0.232,1.395l-17.291,12.344C569.28,35.657,569.077,35.719,568.873,35.719z"/>
		</g>
		<g id="line4498">
			<path fill="#C62828" d="M582.093,48.062c-0.553,0-1-0.447-1-1V31.029c0-0.552,0.447-1,1-1s1,0.448,1,1v16.033
				C583.093,47.615,582.646,48.062,582.093,48.062z"/>
		</g>
	</g>
</g>
</svg>
