<?xml version="1.0" encoding="utf-8"?>
<!-- Generator: Adobe Illustrator 17.0.0, SVG Export Plug-In . SVG Version: 6.00 Build 0)  -->
<!DOCTYPE svg PUBLIC "-//W3C//DTD SVG 1.1//EN" "http://www.w3.org/Graphics/SVG/1.1/DTD/svg11.dtd">
<svg version="1.1"
	 id="svg2" sodipodi:docname="glasses.svg" inkscape:version="0.91 r13725" xmlns:sodipodi="http://sodipodi.sourceforge.net/DTD/sodipodi-0.dtd" xmlns:dc="http://purl.org/dc/elements/1.1/" xmlns:inkscape="http://www.inkscape.org/namespaces/inkscape" xmlns:svg="http://www.w3.org/2000/svg" xmlns:cc="http://creativecommons.org/ns#" xmlns:rdf="http://www.w3.org/1999/02/22-rdf-syntax-ns#"
	 xmlns="http://www.w3.org/2000/svg" xmlns:xlink="http://www.w3.org/1999/xlink" x="0px" y="0px" width="40.31px"
	 height="18.187px" viewBox="0 0 40.31 18.187" enable-background="new 0 0 40.31 18.187" xml:space="preserve">
<sodipodi:namedview  id="base" inkscape:window-x="-8" inkscape:window-y="-8" inkscape:window-width="1366" inkscape:window-height="705" fit-margin-right="0" inkscape:pageopacity="0.0" inkscape:pageshadow="2" fit-margin-bottom="0" inkscape:current-layer="g4572" inkscape:document-units="px" inkscape:window-maximized="1" fit-margin-top="0" inkscape:cy="312.99433" showgrid="false" bordercolor="#666666" inkscape:cx="-891.3243" borderopacity="1.0" inkscape:zoom="0.49497475" pagecolor="#ffffff" fit-margin-left="0">
	</sodipodi:namedview>
<g id="layer1" transform="translate(-594.73952,-607.44906)" inkscape:groupmode="layer" inkscape:label="Layer 1">
	<g id="g4572" transform="translate(45.614518,492.85206)">
		<g id="g4500">
			<g id="circle4502">
				<path fill="#C62828" d="M558.219,132.985c-5.125,0-9.293-4.169-9.293-9.294c0-5.125,4.169-9.293,9.293-9.293
					s9.293,4.169,9.293,9.293C567.512,128.816,563.343,132.985,558.219,132.985z M558.219,116.397c-4.021,0-7.293,3.272-7.293,7.293
					s3.272,7.294,7.293,7.294s7.293-3.272,7.293-7.294S562.24,116.397,558.219,116.397z"/>
			</g>
			<g id="circle4504">
				<path fill="#C62828" d="M580.342,132.985c-5.125,0-9.294-4.169-9.294-9.294c0-5.125,4.169-9.293,9.294-9.293
					s9.294,4.169,9.294,9.293C589.636,128.816,585.467,132.985,580.342,132.985z M580.342,116.397c-4.021,0-7.294,3.272-7.294,7.293
					s3.272,7.294,7.294,7.294s7.294-3.272,7.294-7.294S584.363,116.397,580.342,116.397z"/>
			</g>
			<g id="path4506">
				<path fill="#C62828" d="M572.047,123.764c-0.214,0-0.43-0.068-0.611-0.21c-2.337-1.809-4.086-0.255-4.279-0.072
					c-0.396,0.379-1.029,0.371-1.411-0.025c-0.382-0.394-0.379-1.019,0.012-1.405c1.066-1.051,3.88-2.423,6.902-0.078
					c0.437,0.338,0.517,0.966,0.178,1.403C572.641,123.632,572.346,123.764,572.047,123.764z"/>
			</g>
			<g id="path4508">
				<path fill="#C62828" d="M583.89,128.399c-0.263,0-0.526-0.104-0.723-0.309c-0.382-0.399-0.368-1.032,0.031-1.414
					c0.822-0.787,1.275-1.848,1.275-2.985c0-2.278-1.854-4.131-4.131-4.131c-0.553,0-1-0.448-1-1s0.447-1,1-1
					c3.381,0,6.131,2.75,6.131,6.131c0,1.689-0.672,3.263-1.893,4.431C584.388,128.307,584.139,128.399,583.89,128.399z"/>
			</g>
		</g>
	</g>
</g>
</svg>
