<?xml version="1.0" encoding="utf-8"?>
<!-- Generator: Adobe Illustrator 17.0.0, SVG Export Plug-In . SVG Version: 6.00 Build 0)  -->
<!DOCTYPE svg PUBLIC "-//W3C//DTD SVG 1.1//EN" "http://www.w3.org/Graphics/SVG/1.1/DTD/svg11.dtd">
<svg version="1.1"
	 id="svg2" sodipodi:docname="heart.svg" inkscape:version="0.91 r13725" xmlns:sodipodi="http://sodipodi.sourceforge.net/DTD/sodipodi-0.dtd" xmlns:dc="http://purl.org/dc/elements/1.1/" xmlns:inkscape="http://www.inkscape.org/namespaces/inkscape" xmlns:svg="http://www.w3.org/2000/svg" xmlns:cc="http://creativecommons.org/ns#" xmlns:rdf="http://www.w3.org/1999/02/22-rdf-syntax-ns#"
	 xmlns="http://www.w3.org/2000/svg" xmlns:xlink="http://www.w3.org/1999/xlink" x="0px" y="0px" width="38.164px"
	 height="34.466px" viewBox="0 0 38.164 34.466" enable-background="new 0 0 38.164 34.466" xml:space="preserve">
<sodipodi:namedview  id="base" inkscape:window-x="-8" inkscape:window-y="-8" inkscape:window-width="1366" inkscape:window-height="705" fit-margin-right="0" inkscape:pageopacity="0.0" inkscape:pageshadow="2" fit-margin-bottom="0" inkscape:current-layer="g4572" inkscape:document-units="px" inkscape:window-maximized="1" fit-margin-top="0" inkscape:cy="-8.4720886" showgrid="false" bordercolor="#666666" inkscape:cx="-106.79297" borderopacity="1.0" inkscape:zoom="0.49497475" pagecolor="#ffffff" fit-margin-left="0">
	</sodipodi:namedview>
<g id="layer1" transform="translate(34.988349,-701.4045)" inkscape:groupmode="layer" inkscape:label="Layer 1">
	<g id="g4572" transform="translate(45.614518,492.85206)">
		<g id="g4310">
			<g id="path4312">
				<path fill="#C62828" d="M-61.518,243.21c-0.259,0-0.518-0.1-0.713-0.299l-15.327-15.594c-4.328-4.329-4.328-11.381,0.006-15.715
					c2.099-2.099,4.89-3.255,7.859-3.255s5.761,1.156,7.859,3.255l0.31,0.309l0.319-0.314c2.094-2.094,4.885-3.25,7.854-3.25
					c2.97,0,5.761,1.156,7.859,3.255c4.335,4.334,4.335,11.387,0,15.722l-11.519,11.461c-0.393,0.39-1.025,0.387-1.414-0.004
					c-0.39-0.392-0.388-1.024,0.004-1.414l11.517-11.459c3.553-3.553,3.553-9.337-0.002-12.892c-1.722-1.721-4.01-2.669-6.445-2.669
					c-2.435,0-4.724,0.948-6.445,2.669l-1.03,1.014c-0.391,0.386-1.019,0.384-1.407-0.004l-1.013-1.009
					c-1.723-1.723-4.012-2.671-6.447-2.671s-4.724,0.948-6.445,2.669c-3.554,3.554-3.554,9.338,0,12.893l15.333,15.6
					c0.388,0.395,0.382,1.027-0.012,1.414C-61.012,243.115-61.265,243.21-61.518,243.21z"/>
			</g>
			<g id="path4314">
				<path fill="#C62828" d="M-58.123,239.444c-0.256,0-0.513-0.098-0.708-0.294l-15.245-15.276
					c-2.431-2.433-2.437-6.385-0.013-8.811c1.173-1.173,2.735-1.82,4.397-1.82c1.663,0,3.225,0.646,4.398,1.821l3.75,3.739
					l3.775-3.72c1.186-1.185,2.757-1.84,4.419-1.84c1.661,0,3.223,0.646,4.396,1.819c1.176,1.176,1.823,2.738,1.823,4.399
					c0,1.662-0.647,3.224-1.823,4.4c-0.391,0.391-1.023,0.391-1.414,0s-0.391-1.023,0-1.414c0.798-0.798,1.237-1.858,1.237-2.986
					c0-1.127-0.439-2.187-1.237-2.985c-0.796-0.795-1.855-1.234-2.982-1.234c-1.145,0-2.186,0.436-3.01,1.26l-4.486,4.42
					c-0.392,0.386-1.019,0.384-1.408-0.004l-4.454-4.44c-0.797-0.797-1.857-1.236-2.985-1.236s-2.188,0.438-2.983,1.234
					c-1.645,1.646-1.639,4.33,0.014,5.983l15.246,15.277c0.39,0.391,0.39,1.023-0.002,1.414
					C-57.612,239.346-57.867,239.444-58.123,239.444z"/>
			</g>
		</g>
	</g>
</g>
</svg>
