<?xml version="1.0" encoding="utf-8"?>
<!-- Generator: Adobe Illustrator 17.0.0, SVG Export Plug-In . SVG Version: 6.00 Build 0)  -->
<!DOCTYPE svg PUBLIC "-//W3C//DTD SVG 1.1//EN" "http://www.w3.org/Graphics/SVG/1.1/DTD/svg11.dtd">
<svg version="1.1"
	 id="svg2" sodipodi:docname="home.svg" inkscape:version="0.91 r13725" xmlns:sodipodi="http://sodipodi.sourceforge.net/DTD/sodipodi-0.dtd" xmlns:dc="http://purl.org/dc/elements/1.1/" xmlns:inkscape="http://www.inkscape.org/namespaces/inkscape" xmlns:svg="http://www.w3.org/2000/svg" xmlns:cc="http://creativecommons.org/ns#" xmlns:rdf="http://www.w3.org/1999/02/22-rdf-syntax-ns#"
	 xmlns="http://www.w3.org/2000/svg" xmlns:xlink="http://www.w3.org/1999/xlink" x="0px" y="0px" width="35.3px" height="38.248px"
	 viewBox="0 0 35.3 38.248" enable-background="new 0 0 35.3 38.248" xml:space="preserve">
<sodipodi:namedview  id="base" inkscape:window-x="-8" inkscape:window-y="-8" inkscape:window-width="1366" inkscape:window-height="705" fit-margin-right="0" inkscape:pageopacity="0.0" inkscape:pageshadow="2" fit-margin-bottom="0" inkscape:current-layer="g4572" inkscape:document-units="px" inkscape:window-maximized="1" fit-margin-top="0" inkscape:cy="85.209906" showgrid="false" bordercolor="#666666" inkscape:cx="241.59107" borderopacity="1.0" inkscape:zoom="0.49497475" pagecolor="#ffffff" fit-margin-left="0">
	</sodipodi:namedview>
<g id="layer1" transform="translate(-506.82373,-504.94708)" inkscape:groupmode="layer" inkscape:label="Layer 1">
	<g id="g4572" transform="translate(45.614518,492.85206)">
		<g id="g4468">
			<g id="path4470">
				
					<path inkscape:connector-curvature="0" fill="none" stroke="#C62828" stroke-width="2" stroke-linecap="round" stroke-miterlimit="10" d="
					M484.912,18.769"/>
			</g>
			<g id="polyline4472">
				<path fill="#C62828" d="M492.461,50.543h-26.688V25.228c0-0.552,0.448-1,1-1s1,0.448,1,1v23.315h22.688V25.338
					c0-0.552,0.447-1,1-1s1,0.448,1,1V50.543z"/>
			</g>
			<g id="line4474">
				<path fill="#C62828" d="M470.935,44.841c-0.552,0-1-0.447-1-1V25.228c0-0.552,0.448-1,1-1s1,0.448,1,1v18.613
					C471.935,44.394,471.487,44.841,470.935,44.841z"/>
			</g>
			<g id="polyline4476">
				<path fill="#C62828" d="M495.709,26.228h-24.773c-0.552,0-1-0.448-1-1s0.448-1,1-1h21.752l-13.58-10.094l-14.001,10.094h1.667
					c0.552,0,1,0.448,1,1s-0.448,1-1,1h-4.765c-0.434,0-0.818-0.28-0.952-0.693c-0.133-0.413,0.015-0.865,0.367-1.118l17.108-12.333
					c0.354-0.255,0.832-0.252,1.182,0.008l16.592,12.333c0.346,0.257,0.488,0.708,0.353,1.117
					C496.522,25.951,496.14,26.228,495.709,26.228z"/>
			</g>
			<g id="polyline4478">
				<path fill="#C62828" d="M481.242,50.445c-0.553,0-1-0.447-1-1v-7.396h-3.096v7.396c0,0.553-0.448,1-1,1s-1-0.447-1-1v-8.396
					c0-0.553,0.448-1,1-1h5.096c0.553,0,1,0.447,1,1v8.396C482.242,49.997,481.795,50.445,481.242,50.445z"/>
			</g>
		</g>
	</g>
</g>
</svg>
