<?xml version="1.0" encoding="UTF-8" standalone="no"?>
<!-- Created with Inkscape (http://www.inkscape.org/) -->

<svg
   xmlns:dc="http://purl.org/dc/elements/1.1/"
   xmlns:cc="http://creativecommons.org/ns#"
   xmlns:rdf="http://www.w3.org/1999/02/22-rdf-syntax-ns#"
   xmlns:svg="http://www.w3.org/2000/svg"
   xmlns="http://www.w3.org/2000/svg"
   xmlns:sodipodi="http://sodipodi.sourceforge.net/DTD/sodipodi-0.dtd"
   xmlns:inkscape="http://www.inkscape.org/namespaces/inkscape"
   width="17.038145mm"
   height="18.061092mm"
   viewBox="0 0 60.371382 63.995996"
   id="svg2"
   version="1.1"
   inkscape:version="0.91 r13725"
   sodipodi:docname="imagotype.svg">
  <defs
     id="defs4" />
  <sodipodi:namedview
     id="base"
     pagecolor="#ffffff"
     bordercolor="#666666"
     borderopacity="1.0"
     inkscape:pageopacity="0.0"
     inkscape:pageshadow="2"
     inkscape:zoom="1.4"
     inkscape:cx="126.80941"
     inkscape:cy="13.126494"
     inkscape:document-units="px"
     inkscape:current-layer="layer1"
     showgrid="false"
     fit-margin-top="0"
     fit-margin-left="0"
     fit-margin-right="0"
     fit-margin-bottom="0"
     inkscape:window-width="1366"
     inkscape:window-height="705"
     inkscape:window-x="-8"
     inkscape:window-y="-8"
     inkscape:window-maximized="1" />
  <metadata
     id="metadata7">
    <rdf:RDF>
      <cc:Work
         rdf:about="">
        <dc:format>image/svg+xml</dc:format>
        <dc:type
           rdf:resource="http://purl.org/dc/dcmitype/StillImage" />
        <dc:title></dc:title>
      </cc:Work>
    </rdf:RDF>
  </metadata>
  <g
     inkscape:label="Layer 1"
     inkscape:groupmode="layer"
     id="layer1"
     transform="translate(-309.44333,-550.21935)">
    <g
       id="g3476"
       transform="translate(114.83302,185.75135)">
      <g
         id="g3478">
        <path
           id="path3480"
           d="m 219.135,373.102 0,36.999 c -5.115,-4.531 -9.199,-10.006 -12.061,-16.089 l 9.549,0 0,-2.126 -10.493,0 c -0.299,-0.705 -0.573,-1.421 -0.832,-2.141 l 11.325,0 0,-2.126 -12.04,0 c -1.172,-3.729 -1.913,-7.621 -2.192,-11.614 0,0 -0.096,-0.31 -0.02,-0.31 7.855,0 13.243,-1.248 16.764,-2.593 z"
           inkscape:connector-curvature="0"
           style="fill:#5A595C" />
        <path
           id="path3482"
           d="m 223.732,370.743 0,42.986 -0.157,-0.112 c -0.792,-0.558 -1.563,-1.131 -2.314,-1.735 l 0,-39.698 c 1.091,-0.533 1.903,-1.04 2.471,-1.441 z"
           inkscape:connector-curvature="0"
           style="fill:#5A595C" />
        <path
           id="path3484"
           d="m 225.858,393.93 16.693,0 c -3.648,7.788 -9.295,14.582 -16.541,19.687 l -0.152,0.107 0,-19.794 z"
           inkscape:connector-curvature="0"
           style="fill:#5A595C" />
        <path
           id="path3486"
           d="m 244.287,389.744 c -0.249,0.695 -0.512,1.385 -0.802,2.065 l -17.627,0 0,-2.065 18.429,0 z"
           inkscape:connector-curvature="0"
           style="fill:#5A595C" />
        <path
           id="path3488"
           d="m 247.194,376.004 c -0.279,3.993 -1.02,7.885 -2.192,11.614 l -19.144,0 0,-16.866 c 2.293,1.619 8.56,4.942 21.356,4.942 0.082,10e-4 -0.02,0.31 -0.02,0.31 z"
           inkscape:connector-curvature="0"
           style="fill:#5A595C" />
        <g
           id="g3490">
          <g
             id="g3492">
            <path
               id="path3494"
               d="m 222.454,420.335 c -0.634,0.269 -1.218,0.649 -1.715,1.116 -0.01,0.005 -0.02,0.015 -0.03,0.025 -1.152,1.055 -2.547,0.842 -3.932,-0.238 -1.258,-0.989 -3.491,-2.862 -3.77,-3.09 0,-0.005 0,-0.005 -0.005,-0.005 2.334,1 4.171,0.928 4.171,0.928 -3.146,-0.731 -5.601,-2.385 -7.245,-3.821 -0.827,-0.832 -1.619,-1.664 -2.365,-2.501 -0.112,-0.127 -0.228,-0.259 -0.335,-0.386 2.547,1.573 4.769,1.674 4.769,1.674 -3.805,-1.228 -6.434,-3.785 -7.834,-5.475 -0.883,-1.192 -1.69,-2.385 -2.42,-3.572 2.314,2.116 4.643,2.649 4.851,2.689 -4.369,-2.167 -6.713,-6.018 -7.535,-7.621 -0.005,-0.005 -0.01,-0.01 -0.01,-0.015 -0.487,-1.03 -0.923,-2.05 -1.319,-3.06 1.766,2.309 3.729,3.186 3.729,3.186 -3.176,-2.618 -4.683,-6.079 -5.343,-8.149 0,-0.005 -0.005,-0.015 -0.005,-0.02 -0.279,-1.055 -0.512,-2.085 -0.705,-3.09 0.994,1.979 2.304,2.938 2.304,2.938 -2.273,-2.852 -2.867,-6.845 -3.024,-8.834 -0.005,-0.025 -0.005,-0.056 -0.005,-0.081 -0.015,-0.244 -0.03,-0.487 -0.041,-0.726 -0.01,-0.213 -0.01,-0.35 -0.01,-0.396 l 0,-0.015 c -0.218,-7.317 1.446,-12.137 1.446,-12.137 l 0,2.892 c 0,18.276 8.92,35.472 23.857,46 l 2.521,1.784 z"
               inkscape:connector-curvature="0"
               style="fill:#5A595C" />
          </g>
        </g>
        <g
           id="g3496">
          <g
             id="g3498">
            <path
               id="path3500"
               d="m 254.962,381.799 0,0.015 c 0,0.041 0,0.172 -0.01,0.381 -0.005,0.117 -0.01,0.233 -0.015,0.355 0,0.02 0,0.036 -0.005,0.056 l -0.015,0.289 c -0.142,1.938 -0.715,6.043 -3.034,8.956 0,0 1.309,-0.959 2.304,-2.938 -0.183,0.964 -0.406,1.953 -0.67,2.963 -0.634,2.05 -2.131,5.617 -5.383,8.296 0,0 1.964,-0.878 3.729,-3.186 -0.396,1.01 -0.832,2.03 -1.319,3.06 0,0.005 -0.005,0.01 -0.01,0.015 -0.822,1.603 -3.166,5.454 -7.535,7.621 0.208,-0.041 2.537,-0.573 4.851,-2.694 -0.731,1.187 -1.537,2.38 -2.42,3.577 -1.4,1.69 -4.029,4.247 -7.839,5.475 0,0 2.232,-0.102 4.785,-1.68 -0.117,0.132 -0.233,0.264 -0.345,0.391 -0.736,0.827 -1.512,1.649 -2.329,2.466 -1.639,1.441 -4.105,3.12 -7.281,3.856 0,0 1.842,0.071 4.181,-0.934 -0.096,0.086 -0.193,0.173 -0.289,0.259 -0.056,0.046 -0.122,0.101 -0.188,0.157 -0.786,0.66 -2.329,1.933 -3.293,2.689 -1.395,1.096 -2.801,1.299 -3.958,0.223 -0.507,-0.472 -1.091,-0.863 -1.735,-1.137 l 2.517,-1.776 c 14.943,-10.528 23.863,-27.724 23.863,-46 l 0,-2.892 c -0.003,0 1.661,4.82 1.443,12.137 z"
               inkscape:connector-curvature="0"
               style="fill:#5A595C" />
          </g>
        </g>
        <g
           id="g3502">
          <path
             id="path3504"
             d="m 229.573,425.262 c -2.806,0.203 -4.14,1.766 -4.78,3.202 -0.634,-1.436 -1.969,-2.999 -4.78,-3.202 0.091,-0.781 0.37,-1.502 0.786,-2.121 0.655,-0.974 1.654,-1.695 2.821,-1.984 0.375,-0.096 0.766,-0.147 1.172,-0.147 0.406,0 0.797,0.051 1.172,0.147 1.167,0.289 2.167,1.01 2.821,1.984 0.422,0.619 0.696,1.339 0.788,2.121 z"
             inkscape:connector-curvature="0"
             style="fill:#5A595C" />
        </g>
        <g
           id="g3506">
          <path
             id="path3508"
             d="m 250.457,371.544 c -19.281,0 -25.664,-7.076 -25.664,-7.076 0,0 -6.21,7.076 -25.659,7.076 l -1.015,0 0,1.01 c 0,17.667 8.621,34.289 23.066,44.462 l 3.607,2.542 3.613,-2.542 c 14.44,-10.173 23.066,-26.795 23.066,-44.462 l 0,-1.01 -1.014,0 z m -23.219,43.819 -2.446,1.725 -2.446,-1.725 c -13.629,-9.605 -21.874,-25.172 -22.193,-41.804 15.831,-0.183 22.533,-4.572 24.639,-6.398 2.111,1.827 8.813,6.216 24.644,6.398 -0.319,16.632 -8.564,32.199 -22.198,41.804 z"
             inkscape:connector-curvature="0"
             style="fill:#5A595C" />
        </g>
      </g>
    </g>
  </g>
</svg>
