<?xml version="1.0" encoding="utf-8"?>
<!-- Generator: Adobe Illustrator 17.0.0, SVG Export Plug-In . SVG Version: 6.00 Build 0)  -->
<!DOCTYPE svg PUBLIC "-//W3C//DTD SVG 1.1//EN" "http://www.w3.org/Graphics/SVG/1.1/DTD/svg11.dtd">
<svg version="1.1"
	 id="svg2" sodipodi:docname="less.svg" inkscape:version="0.91 r13725" xmlns:sodipodi="http://sodipodi.sourceforge.net/DTD/sodipodi-0.dtd" xmlns:dc="http://purl.org/dc/elements/1.1/" xmlns:inkscape="http://www.inkscape.org/namespaces/inkscape" xmlns:svg="http://www.w3.org/2000/svg" xmlns:cc="http://creativecommons.org/ns#" xmlns:rdf="http://www.w3.org/1999/02/22-rdf-syntax-ns#"
	 xmlns="http://www.w3.org/2000/svg" xmlns:xlink="http://www.w3.org/1999/xlink" x="0px" y="0px" width="37.6px" height="37.6px"
	 viewBox="0 0 37.6 37.6" enable-background="new 0 0 37.6 37.6" xml:space="preserve">
<sodipodi:namedview  id="base" inkscape:window-x="-8" inkscape:window-y="-8" inkscape:window-width="1366" inkscape:window-height="705" fit-margin-right="0" inkscape:pageopacity="0.0" inkscape:pageshadow="2" fit-margin-bottom="0" inkscape:current-layer="g4572" inkscape:document-units="px" inkscape:window-maximized="1" fit-margin-top="0" inkscape:cy="116.91812" showgrid="false" bordercolor="#666666" inkscape:cx="697.73584" borderopacity="1.0" inkscape:zoom="0.49497475" pagecolor="#ffffff" fit-margin-left="0">
	</sodipodi:namedview>
<g id="layer1" transform="translate(-147.28752,-505.35206)" inkscape:groupmode="layer" inkscape:label="Layer 1">
	<g id="g4572" transform="translate(45.614518,492.85206)">
		<g id="circle4182">
			<path fill="#C62828" d="M120.473,50.3c-10.477,0-19-8.523-19-19s8.523-19,19-19s19,8.523,19,19S130.95,50.3,120.473,50.3z
				 M120.473,14.3c-9.374,0-17,7.626-17,17s7.626,17,17,17s17-7.626,17-17S129.847,14.3,120.473,14.3z"/>
		</g>
		<g id="circle4184">
			<path fill="#C62828" d="M120.473,50.3c-10.477,0-19-8.523-19-19s8.523-19,19-19s19,8.523,19,19S130.95,50.3,120.473,50.3z
				 M120.473,14.3c-9.374,0-17,7.626-17,17s7.626,17,17,17s17-7.626,17-17S129.847,14.3,120.473,14.3z"/>
		</g>
		<g id="rect4186">
			<path fill="#C62828" d="M126.838,34.568h-12.73c-0.552,0-1-0.447-1-1v-4.535c0-0.552,0.448-1,1-1h12.73c0.553,0,1,0.448,1,1
				v4.535C127.838,34.12,127.391,34.568,126.838,34.568z M115.108,32.568h10.73v-2.535h-10.73V32.568z"/>
		</g>
	</g>
</g>
</svg>
