<?xml version="1.0" encoding="utf-8"?>
<!-- Generator: Adobe Illustrator 17.0.0, SVG Export Plug-In . SVG Version: 6.00 Build 0)  -->
<!DOCTYPE svg PUBLIC "-//W3C//DTD SVG 1.1//EN" "http://www.w3.org/Graphics/SVG/1.1/DTD/svg11.dtd">
<svg version="1.1"
	 id="svg2" sodipodi:docname="list.svg" inkscape:version="0.91 r13725" xmlns:sodipodi="http://sodipodi.sourceforge.net/DTD/sodipodi-0.dtd" xmlns:dc="http://purl.org/dc/elements/1.1/" xmlns:inkscape="http://www.inkscape.org/namespaces/inkscape" xmlns:svg="http://www.w3.org/2000/svg" xmlns:cc="http://creativecommons.org/ns#" xmlns:rdf="http://www.w3.org/1999/02/22-rdf-syntax-ns#"
	 xmlns="http://www.w3.org/2000/svg" xmlns:xlink="http://www.w3.org/1999/xlink" x="0px" y="0px" width="41.602px" height="30.4px"
	 viewBox="0 0 41.602 30.4" enable-background="new 0 0 41.602 30.4" xml:space="preserve">
<sodipodi:namedview  id="base" inkscape:window-x="-8" inkscape:window-y="-8" inkscape:window-width="1366" inkscape:window-height="705" fit-margin-right="0" inkscape:pageopacity="0.0" inkscape:pageshadow="2" fit-margin-bottom="0" inkscape:current-layer="g4572" inkscape:document-units="px" inkscape:window-maximized="1" fit-margin-top="0" inkscape:cy="220.37964" showgrid="false" bordercolor="#666666" inkscape:cx="697.586" borderopacity="1.0" inkscape:zoom="0.49497475" pagecolor="#ffffff" fit-margin-left="0">
	</sodipodi:namedview>
<g id="layer1" transform="translate(-323.72027,-509.85196)" inkscape:groupmode="layer" inkscape:label="Layer 1">
	<g id="g4572" transform="translate(45.614518,492.85206)">
		<g id="g4216">
			<g id="g4218">
				<g id="line4220">
					<path fill="#C62828" d="M318.896,47.6h-23.864c-0.552,0-1-0.447-1-1s0.448-1,1-1h23.864c0.553,0,1,0.447,1,1
						S319.449,47.6,318.896,47.6z"/>
				</g>
				<g id="line4222">
					<path fill="#C62828" d="M318.896,41.851h-27.088c-0.552,0-1-0.447-1-1s0.448-1,1-1h27.088c0.553,0,1,0.447,1,1
						S319.449,41.851,318.896,41.851z"/>
				</g>
				<g id="path4224">
					
						<path inkscape:connector-curvature="0" fill="none" stroke="#C62828" stroke-width="2" stroke-linecap="round" stroke-linejoin="round" stroke-miterlimit="10" d="
						M296.736,35.099"/>
				</g>
				<g id="path4226">
					
						<path inkscape:connector-curvature="0" fill="none" stroke="#C62828" stroke-width="2" stroke-linecap="round" stroke-linejoin="round" stroke-miterlimit="10" d="
						M296.736,35.099"/>
				</g>
				<g id="line4228">
					<path fill="#C62828" d="M303.239,36.102h-14.654c-0.552,0-1-0.447-1-1s0.448-1,1-1h14.654c0.553,0,1,0.447,1,1
						S303.792,36.102,303.239,36.102z"/>
				</g>
				<g id="g4230">
					<g id="path4232">
						
							<path inkscape:connector-curvature="0" fill="none" stroke="#C62828" stroke-width="2" stroke-linecap="round" stroke-linejoin="round" stroke-miterlimit="10" d="
							M318.88,35.099"/>
					</g>
					<g id="path4234">
						
							<path inkscape:connector-curvature="0" fill="none" stroke="#C62828" stroke-width="2" stroke-linecap="round" stroke-linejoin="round" stroke-miterlimit="10" d="
							M288.585,35.102"/>
					</g>
				</g>
				<g id="line4236">
					<path fill="#C62828" d="M318.896,30.354h-33.533c-0.552,0-1-0.448-1-1s0.448-1,1-1h33.533c0.553,0,1,0.448,1,1
						S319.449,30.354,318.896,30.354z"/>
				</g>
				<g id="line4238">
					<path fill="#C62828" d="M303.239,24.59c-0.001,0-0.001,0-0.002,0l-21.099-0.041c-0.552-0.001-0.999-0.45-0.998-1.002
						c0.001-0.552,0.449-0.998,1-0.998c0,0,0.001,0,0.002,0l21.099,0.041c0.553,0.001,0.999,0.45,0.998,1.002
						C304.238,24.143,303.791,24.59,303.239,24.59z"/>
				</g>
				<g id="line4240">
					<path fill="#C62828" d="M318.896,24.59h-8.076c-0.553,0-1-0.448-1-1s0.447-1,1-1h8.076c0.553,0,1,0.448,1,1
						S319.449,24.59,318.896,24.59z"/>
				</g>
				<g id="line4242">
					<path fill="#C62828" d="M318.896,36.099h-8.076c-0.553,0-1-0.447-1-1s0.447-1,1-1h8.076c0.553,0,1,0.447,1,1
						S319.449,36.099,318.896,36.099z"/>
				</g>
				<g id="path4244">
					
						<path inkscape:connector-curvature="0" fill="none" stroke="#C62828" stroke-width="2" stroke-linecap="round" stroke-linejoin="round" stroke-miterlimit="10" d="
						M296.736,17.814"/>
				</g>
				<g id="path4246">
					
						<path inkscape:connector-curvature="0" fill="none" stroke="#C62828" stroke-width="2" stroke-linecap="round" stroke-linejoin="round" stroke-miterlimit="10" d="
						M296.736,17.814"/>
				</g>
				<g id="line4248">
					<path fill="#C62828" d="M318.896,18.8h-39.979c-0.552,0-1-0.448-1-1s0.448-1,1-1h39.979c0.553,0,1,0.448,1,1
						S319.449,18.8,318.896,18.8z"/>
				</g>
				<g id="g4250">
					<g id="path4252">
						
							<path inkscape:connector-curvature="0" fill="none" stroke="#C62828" stroke-width="2" stroke-linecap="round" stroke-linejoin="round" stroke-miterlimit="10" d="
							M318.88,17.814"/>
					</g>
					<g id="path4254">
						
							<path inkscape:connector-curvature="0" fill="none" stroke="#C62828" stroke-width="2" stroke-linecap="round" stroke-linejoin="round" stroke-miterlimit="10" d="
							M278.917,17.8"/>
					</g>
				</g>
			</g>
			<g id="rect4256">
				<path fill="#C62828" d="M318.88,47.586h-8.061c-0.553,0-1-0.447-1-1V17.814c0-0.552,0.447-1,1-1h8.061c0.553,0,1,0.448,1,1
					v28.771C319.88,47.138,319.433,47.586,318.88,47.586z M311.82,45.586h6.061V18.814h-6.061V45.586z"/>
			</g>
		</g>
	</g>
</g>
</svg>
