<?xml version="1.0" encoding="UTF-8" standalone="no"?>
<!-- Created with Inkscape (http://www.inkscape.org/) -->

<svg
   xmlns:dc="http://purl.org/dc/elements/1.1/"
   xmlns:cc="http://creativecommons.org/ns#"
   xmlns:rdf="http://www.w3.org/1999/02/22-rdf-syntax-ns#"
   xmlns:svg="http://www.w3.org/2000/svg"
   xmlns="http://www.w3.org/2000/svg"
   xmlns:sodipodi="http://sodipodi.sourceforge.net/DTD/sodipodi-0.dtd"
   xmlns:inkscape="http://www.inkscape.org/namespaces/inkscape"
   width="6.6172643mm"
   height="8.2507668mm"
   viewBox="0 0 23.447 29.235001"
   id="svg2"
   version="1.1"
   inkscape:version="0.91 r13725"
   sodipodi:docname="lock.svg">
  <defs
     id="defs4" />
  <sodipodi:namedview
     id="base"
     pagecolor="#ffffff"
     bordercolor="#666666"
     borderopacity="1.0"
     inkscape:pageopacity="0.0"
     inkscape:pageshadow="2"
     inkscape:zoom="0.98994949"
     inkscape:cx="-27.562365"
     inkscape:cy="71.83873"
     inkscape:document-units="px"
     inkscape:current-layer="g3379"
     showgrid="false"
     inkscape:window-width="1366"
     inkscape:window-height="705"
     inkscape:window-x="-8"
     inkscape:window-y="-8"
     inkscape:window-maximized="1"
     fit-margin-top="0"
     fit-margin-left="0"
     fit-margin-right="0"
     fit-margin-bottom="0" />
  <metadata
     id="metadata7">
    <rdf:RDF>
      <cc:Work
         rdf:about="">
        <dc:format>image/svg+xml</dc:format>
        <dc:type
           rdf:resource="http://purl.org/dc/dcmitype/StillImage" />
        <dc:title></dc:title>
      </cc:Work>
    </rdf:RDF>
  </metadata>
  <g
     inkscape:label="Layer 1"
     inkscape:groupmode="layer"
     id="layer1"
     transform="translate(-468.77913,-353.36582)">
    <g
       id="g3337"
       transform="translate(73.766909,-85.354495)">
      <g
         id="g3379"
         transform="translate(99.14922,57.467312)">
        <g
           id="g3367">
          <path
             id="path3369"
             d="m 317.509,407.121 c 0,0.885 -0.708,1.595 -1.595,1.595 l -16.684,0 c -0.885,0 -1.595,-0.708 -1.595,-1.595 l 0,-9.891 c 0,-0.885 0.708,-1.595 1.595,-1.595 l 16.655,0 c 0.885,0 1.595,0.708 1.595,1.595 l 0,9.891 0.029,0 z m -15.474,-18.515 c 0,-3.042 2.48,-5.552 5.552,-5.552 3.072,0 5.552,2.48 5.552,5.552 l 0,5.197 -11.103,0 0,-5.197 z m 13.879,5.227 -0.974,0 0,-5.227 c 0,-4.046 -3.307,-7.353 -7.353,-7.353 -4.046,0 -7.353,3.307 -7.353,7.353 l 0,5.197 -0.975,0 c -1.89,0 -3.396,1.535 -3.396,3.396 l 0,9.893 c 0,1.891 1.535,3.396 3.396,3.396 l 16.655,0 c 1.891,0 3.396,-1.535 3.396,-3.396 l 0,-9.864 c 0,-1.889 -1.507,-3.395 -3.396,-3.395 z"
             inkscape:connector-curvature="0"
             style="fill:#9f302e" />
          <path
             id="path3371"
             d="m 307.912,403.814 c -0.65,0 -1.152,-0.531 -1.152,-1.152 0,-0.65 0.531,-1.152 1.152,-1.152 0.65,0 1.151,0.531 1.151,1.152 0,0.621 -0.502,1.152 -1.151,1.152 z m 0,-4.134 c -1.654,0 -2.982,1.329 -2.982,2.982 0,1.653 1.329,2.982 2.982,2.982 1.653,0 2.982,-1.329 2.982,-2.982 0,-1.653 -1.329,-2.982 -2.982,-2.982 z"
             inkscape:connector-curvature="0"
             style="fill:#9f302e" />
        </g>
      </g>
    </g>
  </g>
</svg>
