<?xml version="1.0" encoding="utf-8"?>
<!-- Generator: Adobe Illustrator 17.0.0, SVG Export Plug-In . SVG Version: 6.00 Build 0)  -->
<!DOCTYPE svg PUBLIC "-//W3C//DTD SVG 1.1//EN" "http://www.w3.org/Graphics/SVG/1.1/DTD/svg11.dtd">
<svg version="1.1"
	 id="svg2" sodipodi:docname="medal-times.svg" inkscape:version="0.91 r13725" xmlns:sodipodi="http://sodipodi.sourceforge.net/DTD/sodipodi-0.dtd" xmlns:dc="http://purl.org/dc/elements/1.1/" xmlns:inkscape="http://www.inkscape.org/namespaces/inkscape" xmlns:svg="http://www.w3.org/2000/svg" xmlns:cc="http://creativecommons.org/ns#" xmlns:rdf="http://www.w3.org/1999/02/22-rdf-syntax-ns#"
	 xmlns="http://www.w3.org/2000/svg" xmlns:xlink="http://www.w3.org/1999/xlink" x="0px" y="0px" width="35.398px"
	 height="43.974px" viewBox="0 0 35.398 43.974" enable-background="new 0 0 35.398 43.974" xml:space="preserve">
<sodipodi:namedview  id="base" inkscape:window-x="-8" inkscape:window-y="-8" inkscape:window-width="1366" inkscape:window-height="705" fit-margin-right="0" inkscape:pageopacity="0.0" inkscape:pageshadow="2" fit-margin-bottom="0" inkscape:current-layer="g4572" inkscape:document-units="px" inkscape:window-maximized="1" fit-margin-top="0" inkscape:cy="90.345355" showgrid="false" bordercolor="#666666" inkscape:cx="680.57202" borderopacity="1.0" inkscape:zoom="0.49497475" pagecolor="#ffffff" fit-margin-left="0">
	</sodipodi:namedview>
<g id="layer1" transform="translate(-59.490538,-594.13013)" inkscape:groupmode="layer" inkscape:label="Layer 1">
	<g id="g4572" transform="translate(45.614518,492.85206)">
		<g id="polyline4166">
			<path fill="#C62828" d="M37.199,119.244c-0.256,0-0.512-0.098-0.707-0.293c-0.391-0.391-0.391-1.023,0-1.414l10.758-10.758
				l-2.012-3.873c-0.254-0.49-0.063-1.094,0.427-1.349c0.489-0.254,1.093-0.063,1.349,0.427l2.349,4.522
				c0.201,0.387,0.128,0.86-0.181,1.168l-11.275,11.276C37.711,119.146,37.455,119.244,37.199,119.244z"/>
		</g>
		<g id="line4168">
			<path fill="#C62828" d="M41.116,108.456H30.079c-0.552,0-1-0.448-1-1s0.448-1,1-1h11.038c0.553,0,1,0.448,1,1
				S41.669,108.456,41.116,108.456z"/>
		</g>
		<g id="path4170">
			<path fill="#C62828" d="M31.575,145.451c-8.061,0-14.618-6.558-14.618-14.618c0-3.45,1.224-6.799,3.446-9.43
				c0.357-0.421,0.987-0.474,1.41-0.119c0.422,0.356,0.475,0.988,0.119,1.41c-1.918,2.271-2.974,5.16-2.974,8.139
				c0,6.958,5.661,12.618,12.618,12.618c6.958,0,12.618-5.66,12.618-12.618s-5.66-12.619-12.618-12.619
				c-1.772,0-3.486,0.36-5.092,1.069c-0.376,0.167-0.818,0.084-1.111-0.208l-11.403-11.401c-0.29-0.29-0.374-0.727-0.211-1.104
				l2.113-4.89c0.131-0.304,0.405-0.523,0.73-0.586c0.325-0.061,0.66,0.041,0.895,0.275l14.145,14.145l12.071-12.071H24.979
				c-0.552,0-1-0.448-1-1s0.448-1,1-1h21.147c0.404,0,0.77,0.244,0.924,0.617c0.155,0.374,0.069,0.804-0.217,1.09l-13.206,13.206
				c7.093,1,12.566,7.111,12.566,14.476C46.193,138.894,39.636,145.451,31.575,145.451z M15.863,106.74l10.45,10.45
				c1.073-0.416,2.185-0.699,3.324-0.85l-12.515-12.515L15.863,106.74z"/>
		</g>
		<g id="g4172">
			<g id="line4174">
				<path fill="#C62828" d="M28.217,135.192c-0.256,0-0.512-0.098-0.707-0.293c-0.391-0.391-0.391-1.023,0-1.414l6.717-6.717
					c0.391-0.391,1.023-0.391,1.414,0s0.391,1.023,0,1.414l-6.717,6.717C28.729,135.094,28.473,135.192,28.217,135.192z"/>
			</g>
			<g id="line4176">
				<path fill="#C62828" d="M34.934,135.192c-0.256,0-0.512-0.098-0.707-0.293l-6.717-6.717c-0.391-0.391-0.391-1.023,0-1.414
					s1.023-0.391,1.414,0l6.717,6.717c0.391,0.391,0.391,1.023,0,1.414C35.445,135.094,35.189,135.192,34.934,135.192z"/>
			</g>
		</g>
		<g id="path4178">
			<path fill="#C62828" d="M25.397,138.076c-0.254,0-0.508-0.097-0.703-0.289c-1.872-1.852-2.903-4.321-2.903-6.954
				c0-2.612,1.018-5.069,2.866-6.918c0.391-0.391,1.023-0.391,1.414,0s0.391,1.023,0,1.414c-1.47,1.471-2.28,3.426-2.28,5.504
				c0,2.094,0.82,4.059,2.309,5.532c0.393,0.389,0.396,1.021,0.008,1.414C25.912,137.978,25.655,138.076,25.397,138.076z"/>
		</g>
		<g id="path4180">
			<path fill="#C62828" d="M37.786,138.044c-0.256,0-0.512-0.098-0.707-0.293c-0.391-0.391-0.391-1.024,0-1.414
				c1.471-1.47,2.28-3.424,2.28-5.504c0-2.094-0.82-4.059-2.309-5.532c-0.393-0.389-0.396-1.021-0.008-1.414
				c0.388-0.393,1.022-0.396,1.414-0.008c1.872,1.853,2.902,4.322,2.902,6.954c0,2.614-1.018,5.071-2.866,6.918
				C38.298,137.946,38.042,138.044,37.786,138.044z"/>
		</g>
	</g>
</g>
</svg>
