<?xml version="1.0" encoding="utf-8"?>
<!-- Generator: Adobe Illustrator 17.0.0, SVG Export Plug-In . SVG Version: 6.00 Build 0)  -->
<!DOCTYPE svg PUBLIC "-//W3C//DTD SVG 1.1//EN" "http://www.w3.org/Graphics/SVG/1.1/DTD/svg11.dtd">
<svg version="1.1"
	 id="svg2" sodipodi:docname="medal.svg" inkscape:version="0.91 r13725" xmlns:sodipodi="http://sodipodi.sourceforge.net/DTD/sodipodi-0.dtd" xmlns:dc="http://purl.org/dc/elements/1.1/" xmlns:inkscape="http://www.inkscape.org/namespaces/inkscape" xmlns:svg="http://www.w3.org/2000/svg" xmlns:cc="http://creativecommons.org/ns#" xmlns:rdf="http://www.w3.org/1999/02/22-rdf-syntax-ns#"
	 xmlns="http://www.w3.org/2000/svg" xmlns:xlink="http://www.w3.org/1999/xlink" x="0px" y="0px" width="35.397px"
	 height="43.973px" viewBox="0 0 35.397 43.973" enable-background="new 0 0 35.397 43.973" xml:space="preserve">
<sodipodi:namedview  id="base" inkscape:window-x="-8" inkscape:window-y="-8" inkscape:window-width="1366" inkscape:window-height="705" fit-margin-right="0" inkscape:pageopacity="0.0" inkscape:pageshadow="2" fit-margin-bottom="0" inkscape:current-layer="g4572" inkscape:document-units="px" inkscape:window-maximized="1" fit-margin-top="0" inkscape:cy="520.82408" showgrid="false" bordercolor="#666666" inkscape:cx="724.241" borderopacity="1.0" inkscape:zoom="0.49497475" pagecolor="#ffffff" fit-margin-left="0">
	</sodipodi:namedview>
<g id="layer1" transform="translate(-327.59854,-594.13113)" inkscape:groupmode="layer" inkscape:label="Layer 1">
	<g id="g4572" transform="translate(45.614518,492.85206)">
		<g id="g4486">
			<g id="polyline4488">
				<path fill="#C62828" d="M305.306,119.244c-0.256,0-0.512-0.098-0.707-0.293c-0.391-0.39-0.391-1.023,0-1.414l10.757-10.758
					l-2.011-3.872c-0.254-0.49-0.063-1.094,0.427-1.349c0.489-0.254,1.094-0.063,1.349,0.427l2.348,4.522
					c0.201,0.387,0.128,0.86-0.181,1.168l-11.274,11.276C305.818,119.146,305.562,119.244,305.306,119.244z"/>
			</g>
			<g id="path4490">
				<path fill="#C62828" d="M299.682,145.452c-8.061,0-14.619-6.558-14.619-14.618c0-3.449,1.224-6.799,3.446-9.43
					c0.357-0.421,0.987-0.474,1.41-0.119c0.422,0.356,0.475,0.988,0.119,1.41c-1.918,2.271-2.975,5.161-2.975,8.139
					c0,6.958,5.661,12.618,12.619,12.618s12.618-5.66,12.618-12.618s-5.66-12.619-12.618-12.619c-1.772,0-3.486,0.36-5.092,1.069
					c-0.378,0.167-0.819,0.083-1.111-0.208l-11.402-11.401c-0.29-0.29-0.374-0.728-0.211-1.104l2.113-4.89
					c0.131-0.304,0.405-0.523,0.73-0.586c0.326-0.062,0.66,0.041,0.895,0.275l14.145,14.145l12.07-12.071h-18.733
					c-0.552,0-1-0.448-1-1s0.448-1,1-1h21.147c0.404,0,0.77,0.244,0.924,0.617c0.155,0.374,0.069,0.804-0.217,1.09l-13.205,13.206
					c7.092,1.001,12.565,7.111,12.565,14.475C314.301,138.894,307.743,145.452,299.682,145.452z M283.971,106.741l10.45,10.45
					c1.074-0.416,2.185-0.699,3.324-0.85l-12.514-12.515L283.971,106.741z"/>
			</g>
			<g id="polyline4492">
				<path fill="#C62828" d="M297.923,138.322c-0.264,0-0.519-0.104-0.707-0.293l-4.605-4.604c-0.391-0.391-0.391-1.023,0-1.414
					s1.023-0.391,1.414,0l3.752,3.751l7.538-11.055c0.312-0.457,0.934-0.571,1.39-0.263c0.456,0.312,0.574,0.934,0.263,1.39
					l-8.217,12.052c-0.167,0.246-0.437,0.404-0.733,0.433C297.985,138.321,297.954,138.322,297.923,138.322z"/>
			</g>
		</g>
	</g>
</g>
</svg>
