<?xml version="1.0" encoding="utf-8"?>
<!-- Generator: Adobe Illustrator 17.0.0, SVG Export Plug-In . SVG Version: 6.00 Build 0)  -->
<!DOCTYPE svg PUBLIC "-//W3C//DTD SVG 1.1//EN" "http://www.w3.org/Graphics/SVG/1.1/DTD/svg11.dtd">
<svg version="1.1"
	 id="svg2" sodipodi:docname="money.svg" inkscape:version="0.91 r13725" xmlns:sodipodi="http://sodipodi.sourceforge.net/DTD/sodipodi-0.dtd" xmlns:dc="http://purl.org/dc/elements/1.1/" xmlns:inkscape="http://www.inkscape.org/namespaces/inkscape" xmlns:svg="http://www.w3.org/2000/svg" xmlns:cc="http://creativecommons.org/ns#" xmlns:rdf="http://www.w3.org/1999/02/22-rdf-syntax-ns#"
	 xmlns="http://www.w3.org/2000/svg" xmlns:xlink="http://www.w3.org/1999/xlink" x="0px" y="0px" width="19.536px"
	 height="41.598px" viewBox="0 0 19.536 41.598" enable-background="new 0 0 19.536 41.598" xml:space="preserve">
<sodipodi:namedview  id="base" inkscape:window-x="-8" inkscape:window-y="-8" inkscape:window-width="1366" inkscape:window-height="705" fit-margin-right="0" inkscape:pageopacity="0.0" inkscape:pageshadow="2" fit-margin-bottom="0" inkscape:current-layer="g4572" inkscape:document-units="px" inkscape:window-maximized="1" fit-margin-top="0" inkscape:cy="275.1577" showgrid="false" bordercolor="#666666" inkscape:cx="628.0841" borderopacity="1.0" inkscape:zoom="0.49497475" pagecolor="#ffffff" fit-margin-left="0">
	</sodipodi:namedview>
<g id="layer1" transform="translate(-424.33642,-503.04882)" inkscape:groupmode="layer" inkscape:label="Layer 1">
	<g id="g4572" transform="translate(45.614518,492.85206)">
		<g id="g4452">
			<g id="path4454">
				<path fill="#C62828" d="M386.015,46.345c-0.067,0-0.135-0.007-0.204-0.021c-4.428-0.918-7.289-4.324-7.289-8.68
					c0-0.553,0.448-1,1-1s1,0.447,1,1c0,3.418,2.182,5.993,5.694,6.721c0.541,0.112,0.889,0.642,0.776,1.183
					C386.895,46.02,386.479,46.345,386.015,46.345z"/>
			</g>
			<g id="path4456">
				<path fill="#C62828" d="M388.35,46.576c-0.878,0-1.732-0.085-2.539-0.251c-0.541-0.112-0.889-0.641-0.777-1.182
					s0.639-0.887,1.182-0.777c1.424,0.295,3.104,0.252,4.454,0.048c0.557-0.073,1.056,0.295,1.139,0.84
					c0.082,0.547-0.294,1.056-0.84,1.139C390.159,46.514,389.277,46.576,388.35,46.576z"/>
			</g>
			<g id="path4458">
				<path fill="#C62828" d="M394.33,45.224c-0.339,0-0.669-0.172-0.857-0.483c-0.285-0.473-0.133-1.087,0.34-1.373
					c1.78-1.074,2.646-2.854,2.646-5.439c0-5.849-5.017-6.753-7.712-7.239l-0.588-0.109c-2.969-0.583-9.019-1.772-9.019-7.57
					c0-5.526,3.444-8.825,9.212-8.825c8.732,0,9.458,7.876,9.465,7.956c0.044,0.55-0.367,1.032-0.918,1.076
					c-0.56,0.039-1.03-0.366-1.075-0.914l0,0c-0.022-0.25-0.613-6.118-7.472-6.118c-4.651,0-7.212,2.424-7.212,6.825
					c0,3.832,3.627,4.865,7.343,5.595l0.619,0.116c2.8,0.504,9.357,1.686,9.357,9.207c0,3.299-1.215,5.705-3.612,7.152
					C394.684,45.178,394.506,45.224,394.33,45.224z"/>
			</g>
			<g id="line4460">
				<path fill="#C62828" d="M390.82,51.983c-0.553,0-1-0.447-1-1V30.097c0-0.552,0.447-1,1-1s1,0.448,1,1v20.886
					C391.82,51.536,391.373,51.983,390.82,51.983z"/>
			</g>
			<g id="line4462">
				<path fill="#C62828" d="M390.82,26.079c-0.553,0-1-0.448-1-1V11.008c0-0.552,0.447-1,1-1s1,0.448,1,1v14.071
					C391.82,25.631,391.373,26.079,390.82,26.079z"/>
			</g>
			<g id="line4464">
				<path fill="#C62828" d="M386.016,51.983c-0.552,0-1-0.447-1-1V29.081c0-0.552,0.448-1,1-1s1,0.448,1,1v21.902
					C387.016,51.536,386.569,51.983,386.016,51.983z"/>
			</g>
			<g id="line4466">
				<path fill="#C62828" d="M386.016,26.079c-0.552,0-1-0.448-1-1V11.008c0-0.552,0.448-1,1-1s1,0.448,1,1v14.071
					C387.016,25.631,386.569,26.079,386.016,26.079z"/>
			</g>
		</g>
	</g>
</g>
</svg>
