<?xml version="1.0" encoding="utf-8"?>
<!-- Generator: Adobe Illustrator 17.0.0, SVG Export Plug-In . SVG Version: 6.00 Build 0)  -->
<!DOCTYPE svg PUBLIC "-//W3C//DTD SVG 1.1//EN" "http://www.w3.org/Graphics/SVG/1.1/DTD/svg11.dtd">
<svg version="1.1"
	 id="svg2" sodipodi:docname="pencil-hat.svg" inkscape:version="0.91 r13725" xmlns:sodipodi="http://sodipodi.sourceforge.net/DTD/sodipodi-0.dtd" xmlns:dc="http://purl.org/dc/elements/1.1/" xmlns:inkscape="http://www.inkscape.org/namespaces/inkscape" xmlns:svg="http://www.w3.org/2000/svg" xmlns:cc="http://creativecommons.org/ns#" xmlns:rdf="http://www.w3.org/1999/02/22-rdf-syntax-ns#"
	 xmlns="http://www.w3.org/2000/svg" xmlns:xlink="http://www.w3.org/1999/xlink" x="0px" y="0px" width="41.594px"
	 height="41.595px" viewBox="0 0 41.594 41.595" enable-background="new 0 0 41.594 41.595" xml:space="preserve">
<sodipodi:namedview  id="base" inkscape:window-x="-8" inkscape:window-y="-8" inkscape:window-width="1366" inkscape:window-height="705" fit-margin-right="0" inkscape:pageopacity="0.0" inkscape:pageshadow="2" fit-margin-bottom="0" inkscape:current-layer="g4572" inkscape:document-units="px" inkscape:window-maximized="1" fit-margin-top="0" inkscape:cy="237.69117" showgrid="false" bordercolor="#666666" inkscape:cx="701.61084" borderopacity="1.0" inkscape:zoom="0.49497475" pagecolor="#ffffff" fit-margin-left="0">
	</sodipodi:namedview>
<g id="layer1" transform="translate(-144.78853,-595.62052)" inkscape:groupmode="layer" inkscape:label="Layer 1">
	<g id="g4572" transform="translate(45.614518,492.85206)">
		<g id="g4150">
			<g id="g4152">
				<g id="path4154">
					<path fill="#C62828" d="M135.552,123.226c-0.962,0-1.865-0.375-2.545-1.055l-11.642-11.641c-0.68-0.68-1.055-1.583-1.055-2.545
						c0-0.961,0.375-1.865,1.055-2.545l0.38-0.38c1.359-1.359,3.731-1.36,5.091,0l11.642,11.642c0.68,0.68,1.055,1.583,1.055,2.545
						s-0.375,1.866-1.055,2.546l-0.38,0.379C137.418,122.851,136.514,123.226,135.552,123.226z M124.29,106.004
						c-0.427,0-0.829,0.166-1.131,0.468l-0.38,0.38c-0.303,0.302-0.469,0.704-0.469,1.131s0.166,0.829,0.469,1.131l11.642,11.642
						c0.604,0.605,1.658,0.604,2.263,0l0.38-0.38c0.303-0.302,0.469-0.704,0.469-1.131s-0.166-0.829-0.469-1.131l-11.642-11.642
						C125.119,106.171,124.718,106.004,124.29,106.004z"/>
				</g>
				<g id="path4156">
					<path fill="#C62828" d="M136.993,116.553c-0.962,0-1.866-0.374-2.546-1.054l-6.409-6.41c-0.68-0.68-1.055-1.583-1.055-2.545
						s0.375-1.866,1.055-2.545l0.379-0.38c1.361-1.36,3.732-1.361,5.092,0l6.409,6.41c0.68,0.68,1.055,1.583,1.055,2.545
						s-0.375,1.866-1.055,2.546l-0.379,0.379C138.859,116.178,137.955,116.553,136.993,116.553z M130.963,104.563
						c-0.427,0-0.829,0.166-1.131,0.468l-0.379,0.38c-0.304,0.303-0.47,0.705-0.47,1.132s0.166,0.829,0.469,1.131l6.409,6.41
						c0.604,0.603,1.658,0.605,2.263,0l0.379-0.38c0.304-0.303,0.47-0.705,0.47-1.132s-0.166-0.829-0.469-1.131l-6.409-6.41
						C131.792,104.73,131.391,104.563,130.963,104.563z"/>
				</g>
				<g id="path4158">
					<path fill="#C62828" d="M133.123,128.91c-0.962,0-1.865-0.375-2.545-1.055l-14.896-14.896c-1.404-1.403-1.404-3.688,0-5.091
						l0.381-0.38c1.358-1.358,3.729-1.359,5.091,0l14.896,14.896c1.402,1.404,1.402,3.688,0,5.091l-0.38,0.38
						C134.99,128.535,134.085,128.91,133.123,128.91z M118.608,108.434c-0.427,0-0.829,0.166-1.131,0.468l-0.381,0.38
						c-0.302,0.302-0.468,0.704-0.468,1.131s0.166,0.829,0.468,1.131l14.896,14.896c0.604,0.605,1.658,0.605,2.263,0l0.38-0.38
						c0.623-0.624,0.623-1.639,0-2.263l-14.896-14.896C119.437,108.6,119.035,108.434,118.608,108.434z"/>
				</g>
				<g id="polyline4160">
					<path fill="#C62828" d="M99.974,144.563c-0.264,0-0.519-0.104-0.707-0.293c-0.204-0.204-0.31-0.486-0.291-0.774l0.729-10.816
						c0.038-0.551,0.515-0.945,1.065-0.931c0.551,0.037,0.967,0.515,0.93,1.065l-0.652,9.674l9.674-0.653
						c0.566-0.014,1.028,0.38,1.065,0.931c0.038,0.551-0.379,1.028-0.93,1.065l-10.816,0.73
						C100.019,144.562,99.996,144.563,99.974,144.563z"/>
				</g>
				<g id="path4162">
					<path fill="#C62828" d="M110.79,143.833c-0.256,0-0.512-0.098-0.707-0.293l-10.086-10.086
						c-0.188-0.188-0.293-0.441-0.293-0.707s0.105-0.52,0.293-0.707l13.329-13.33c-0.656-0.714-1.015-1.636-1.015-2.613
						c0-1.033,0.402-2.005,1.133-2.735c1.46-1.46,4.01-1.461,5.471,0l11.261,11.262c1.509,1.508,1.509,3.963,0,5.471
						c-1.508,1.508-3.963,1.508-5.471,0l-6.247-6.247l-12.62,12.619l4.952,4.952l10.135-10.135c0.391-0.391,1.023-0.391,1.414,0
						s0.391,1.023,0,1.414l-10.842,10.842C111.302,143.735,111.046,143.833,110.79,143.833z M102.118,132.747l2.306,2.306
						l13.327-13.326c0.391-0.391,1.023-0.391,1.414,0l6.954,6.954c0.729,0.729,1.914,0.729,2.643,0s0.729-1.914,0-2.643
						L117.5,114.776c-0.707-0.707-1.937-0.706-2.643,0c-0.353,0.353-0.547,0.822-0.547,1.321c0,0.5,0.194,0.968,0.547,1.321
						l0.587,0.587c0.39,0.391,0.39,1.024,0,1.414L102.118,132.747z"/>
				</g>
			</g>
			<g id="polygon4164">
				<polygon fill="#C62828" points="99.974,143.563 103.465,143.327 100.209,140.071 				"/>
				<path fill="#C62828" d="M99.974,144.563c-0.264,0-0.519-0.104-0.707-0.293c-0.204-0.204-0.31-0.486-0.291-0.774l0.235-3.491
					c0.026-0.392,0.279-0.731,0.646-0.869c0.368-0.138,0.781-0.049,1.059,0.229l3.256,3.256c0.277,0.277,0.367,0.691,0.229,1.059
					c-0.138,0.367-0.478,0.62-0.869,0.646l-3.491,0.235C100.019,144.562,99.996,144.563,99.974,144.563z"/>
			</g>
		</g>
	</g>
</g>
</svg>
