<?xml version="1.0" encoding="utf-8"?>
<!-- Generator: Adobe Illustrator 17.0.0, SVG Export Plug-In . SVG Version: 6.00 Build 0)  -->
<!DOCTYPE svg PUBLIC "-//W3C//DTD SVG 1.1//EN" "http://www.w3.org/Graphics/SVG/1.1/DTD/svg11.dtd">
<svg version="1.1"
	 id="svg2" sodipodi:docname="people.svg" inkscape:version="0.91 r13725" xmlns:sodipodi="http://sodipodi.sourceforge.net/DTD/sodipodi-0.dtd" xmlns:dc="http://purl.org/dc/elements/1.1/" xmlns:inkscape="http://www.inkscape.org/namespaces/inkscape" xmlns:svg="http://www.w3.org/2000/svg" xmlns:cc="http://creativecommons.org/ns#" xmlns:rdf="http://www.w3.org/1999/02/22-rdf-syntax-ns#"
	 xmlns="http://www.w3.org/2000/svg" xmlns:xlink="http://www.w3.org/1999/xlink" x="0px" y="0px" width="39.246px"
	 height="37.901px" viewBox="0 0 39.246 37.901" enable-background="new 0 0 39.246 37.901" xml:space="preserve">
<sodipodi:namedview  id="base" inkscape:window-x="-8" inkscape:window-y="-8" inkscape:window-width="1366" inkscape:window-height="705" fit-margin-right="0" inkscape:pageopacity="0.0" inkscape:pageshadow="2" fit-margin-bottom="0" inkscape:current-layer="g4572" inkscape:document-units="px" inkscape:window-maximized="1" fit-margin-top="0" inkscape:cy="74.102724" showgrid="false" bordercolor="#666666" inkscape:cx="391.12056" borderopacity="1.0" inkscape:zoom="0.49497475" pagecolor="#ffffff" fit-margin-left="0">
	</sodipodi:namedview>
<g id="layer1" transform="translate(-236.66243,-417.01006)" inkscape:groupmode="layer" inkscape:label="Layer 1">
	<g id="g4572" transform="translate(45.614518,492.85206)">
		<g id="g4372">
			<g id="g4374">
				<g id="path4376">
					<path fill="#C62828" d="M202.51-37.737c-3.289,0.001-7.131-1.197-11.271-4.779l-0.308-0.266l-0.035-0.405
						c-0.448-5.266,2.294-9.6,5.009-11.898c0.42-0.357,1.052-0.305,1.41,0.116c0.357,0.422,0.305,1.053-0.117,1.409
						c-2.265,1.918-4.552,5.475-4.336,9.8c9.861,8.257,17.417,1.598,18.904,0.096c-0.125-5.184-2.728-9.69-6.555-11.29
						c-0.509-0.213-0.75-0.799-0.537-1.309c0.213-0.509,0.8-0.748,1.309-0.537c4.659,1.947,7.789,7.384,7.789,13.528v0.379
						l-0.251,0.284C213.455-42.536,209.094-37.737,202.51-37.737z"/>
				</g>
				<g id="path4378">
					<path fill="#C62828" d="M209.183-42.272c-0.523,0-0.964-0.407-0.997-0.938c-0.357-5.68-4.276-9.687-7.962-10.709
						c-0.532-0.147-0.844-0.699-0.696-1.231c0.147-0.531,0.698-0.842,1.23-0.696c5.094,1.413,9.058,6.675,9.424,12.512
						c0.035,0.551-0.384,1.026-0.936,1.061C209.225-42.273,209.204-42.272,209.183-42.272z"/>
				</g>
				<g id="circle4380">
					<path fill="#C62828" d="M201.972-53.739c-4.048,0-7.342-3.293-7.342-7.342s3.293-7.342,7.342-7.342s7.342,3.293,7.342,7.342
						S206.02-53.739,201.972-53.739z M201.972-66.423c-2.945,0-5.342,2.396-5.342,5.342s2.396,5.342,5.342,5.342
						s5.342-2.396,5.342-5.342S204.917-66.423,201.972-66.423z"/>
				</g>
			</g>
			<g id="g4382">
				<g id="path4384">
					<path fill="#C62828" d="M208.71-52.777c-0.05,0-0.1-0.004-0.15-0.011c-0.546-0.082-0.922-0.592-0.84-1.138
						c0.504-3.366,2.294-6.565,4.909-8.779c0.424-0.357,1.053-0.304,1.41,0.117c0.356,0.421,0.304,1.052-0.117,1.409
						c-2.251,1.905-3.79,4.657-4.224,7.55C209.623-53.133,209.197-52.777,208.71-52.777z"/>
				</g>
				<g id="path4386">
					<path fill="#C62828" d="M219.237-45.356c-2.35,0-4.983-0.611-7.807-2.268c-0.477-0.279-0.636-0.892-0.357-1.368
						c0.28-0.477,0.892-0.638,1.369-0.356c8.438,4.946,14.71-0.59,16.047-1.937c-0.125-5.184-2.728-9.69-6.556-11.29
						c-0.51-0.213-0.75-0.799-0.537-1.309s0.801-0.748,1.309-0.537c4.659,1.948,7.789,7.384,7.789,13.528v0.379l-0.251,0.284
						C230.184-50.163,225.826-45.356,219.237-45.356z"/>
				</g>
				<g id="path4388">
					<path fill="#C62828" d="M225.905-49.892c-0.523,0-0.964-0.407-0.997-0.938c-0.356-5.68-4.275-9.687-7.963-10.709
						c-0.532-0.147-0.844-0.698-0.696-1.23c0.148-0.533,0.7-0.844,1.231-0.696c5.094,1.413,9.058,6.675,9.424,12.511
						c0.034,0.551-0.384,1.026-0.936,1.061C225.947-49.893,225.927-49.892,225.905-49.892z"/>
				</g>
				<g id="circle4390">
					<path fill="#C62828" d="M218.694-61.359c-4.048,0-7.342-3.293-7.342-7.341c0-4.048,3.294-7.342,7.342-7.342
						s7.342,3.293,7.342,7.342C226.036-64.652,222.742-61.359,218.694-61.359z M218.694-74.042c-2.945,0-5.342,2.396-5.342,5.342
						s2.396,5.341,5.342,5.341s5.342-2.396,5.342-5.341S221.639-74.042,218.694-74.042z"/>
				</g>
			</g>
		</g>
	</g>
</g>
</svg>
