<?xml version="1.0" encoding="utf-8"?>
<!-- Generator: Adobe Illustrator 17.0.0, SVG Export Plug-In . SVG Version: 6.00 Build 0)  -->
<!DOCTYPE svg PUBLIC "-//W3C//DTD SVG 1.1//EN" "http://www.w3.org/Graphics/SVG/1.1/DTD/svg11.dtd">
<svg version="1.1"
	 id="svg2" sodipodi:docname="person.svg" inkscape:version="0.91 r13725" xmlns:sodipodi="http://sodipodi.sourceforge.net/DTD/sodipodi-0.dtd" xmlns:dc="http://purl.org/dc/elements/1.1/" xmlns:inkscape="http://www.inkscape.org/namespaces/inkscape" xmlns:svg="http://www.w3.org/2000/svg" xmlns:cc="http://creativecommons.org/ns#" xmlns:rdf="http://www.w3.org/1999/02/22-rdf-syntax-ns#"
	 xmlns="http://www.w3.org/2000/svg" xmlns:xlink="http://www.w3.org/1999/xlink" x="0px" y="0px" width="30.611px"
	 height="41.373px" viewBox="0 0 30.611 41.373" enable-background="new 0 0 30.611 41.373" xml:space="preserve">
<sodipodi:namedview  id="base" inkscape:window-x="-8" inkscape:window-y="-8" inkscape:window-width="1366" inkscape:window-height="705" fit-margin-right="0" inkscape:pageopacity="0.0" inkscape:pageshadow="2" fit-margin-bottom="0" inkscape:current-layer="g4572" inkscape:document-units="px" inkscape:window-maximized="1" fit-margin-top="0" inkscape:cy="109.98501" showgrid="false" bordercolor="#666666" inkscape:cx="272.94847" borderopacity="1.0" inkscape:zoom="0.49497475" pagecolor="#ffffff" fit-margin-left="0">
	</sodipodi:namedview>
<g id="layer1" transform="translate(-151.65615,-414.60606)" inkscape:groupmode="layer" inkscape:label="Layer 1">
	<g id="g4572" transform="translate(45.614518,492.85206)">
		<g id="g4364">
			<g id="path4366">
				<path fill="#C62828" d="M121.631-36.679c-4.484,0-9.729-1.634-15.381-6.526l-0.308-0.266l-0.035-0.405
					c-0.608-7.155,3.12-13.044,6.812-16.169c0.42-0.357,1.052-0.306,1.409,0.117c0.357,0.421,0.305,1.052-0.117,1.409
					c-3.241,2.744-6.513,7.855-6.14,14.07c14.251,12.05,25.151,1.985,26.978,0.099c-0.127-7.406-3.844-13.872-9.33-16.166
					c-0.51-0.213-0.75-0.799-0.537-1.309s0.801-0.75,1.309-0.537c6.317,2.641,10.562,10.035,10.562,18.4v0.379l-0.251,0.284
					C136.513-43.199,130.588-36.679,121.631-36.679z"/>
			</g>
			<g id="path4368">
				<path fill="#C62828" d="M130.878-42.961c-0.523,0-0.964-0.407-0.997-0.938c-0.508-8.055-6.081-13.742-11.324-15.197
					c-0.532-0.147-0.844-0.699-0.696-1.231c0.147-0.531,0.697-0.844,1.231-0.696c5.925,1.644,12.219,8.011,12.785,16.999
					c0.035,0.551-0.384,1.025-0.936,1.061C130.921-42.962,130.9-42.961,130.878-42.961z"/>
			</g>
			<g id="circle4370">
				<path fill="#C62828" d="M120.879-58.861c-5.4,0-9.793-4.393-9.793-9.792c0-5.4,4.393-9.793,9.793-9.793s9.792,4.393,9.792,9.793
					C130.671-63.254,126.279-58.861,120.879-58.861z M120.879-76.446c-4.297,0-7.793,3.496-7.793,7.793s3.496,7.792,7.793,7.792
					c4.296,0,7.792-3.496,7.792-7.792S125.175-76.446,120.879-76.446z"/>
			</g>
		</g>
	</g>
</g>
</svg>
