<?xml version="1.0" encoding="utf-8"?>
<!-- Generator: Adobe Illustrator 17.0.0, SVG Export Plug-In . SVG Version: 6.00 Build 0)  -->
<!DOCTYPE svg PUBLIC "-//W3C//DTD SVG 1.1//EN" "http://www.w3.org/Graphics/SVG/1.1/DTD/svg11.dtd">
<svg version="1.1"
	 id="svg2" sodipodi:docname="pillar.svg" inkscape:version="0.91 r13725" xmlns:sodipodi="http://sodipodi.sourceforge.net/DTD/sodipodi-0.dtd" xmlns:dc="http://purl.org/dc/elements/1.1/" xmlns:inkscape="http://www.inkscape.org/namespaces/inkscape" xmlns:svg="http://www.w3.org/2000/svg" xmlns:cc="http://creativecommons.org/ns#" xmlns:rdf="http://www.w3.org/1999/02/22-rdf-syntax-ns#"
	 xmlns="http://www.w3.org/2000/svg" xmlns:xlink="http://www.w3.org/1999/xlink" x="0px" y="0px" width="32.43px"
	 height="29.721px" viewBox="0 0 32.43 29.721" enable-background="new 0 0 32.43 29.721" xml:space="preserve">
<sodipodi:namedview  id="base" inkscape:window-x="-8" inkscape:window-y="-8" inkscape:window-width="1366" inkscape:window-height="705" fit-margin-right="0" inkscape:pageopacity="0.0" inkscape:pageshadow="2" fit-margin-bottom="0" inkscape:current-layer="g4572" inkscape:document-units="px" inkscape:window-maximized="1" fit-margin-top="0" inkscape:cy="473.59503" showgrid="false" bordercolor="#666666" inkscape:cx="388.98028" borderopacity="1.0" inkscape:zoom="0.49497475" pagecolor="#ffffff" fit-margin-left="0">
	</sodipodi:namedview>
<g id="layer1" transform="translate(-150.51952,-702.76606)" inkscape:groupmode="layer" inkscape:label="Layer 1">
	<g id="g4572" transform="translate(45.614518,492.85206)">
		<g id="g4338">
			<g id="polygon4340">
				<path fill="#C62828" d="M132.164,219.519h-22.089c-0.406,0-0.771-0.245-0.925-0.62l-1.602-3.902
					c-0.126-0.309-0.091-0.66,0.095-0.937c0.186-0.277,0.497-0.443,0.831-0.443h25.292c0.333,0,0.645,0.166,0.831,0.443
					c0.186,0.277,0.221,0.628,0.094,0.937l-1.602,3.902C132.936,219.274,132.569,219.519,132.164,219.519z M110.746,217.519h20.748
					l0.781-1.902h-22.31L110.746,217.519z"/>
			</g>
			<g id="rect4342">
				<path fill="#C62828" d="M136.535,215.616h-30.83c-0.552,0-1-0.448-1-1v-3.902c0-0.552,0.448-1,1-1h30.83c0.553,0,1,0.448,1,1
					v3.902C137.535,215.169,137.088,215.616,136.535,215.616z M106.705,213.616h28.83v-1.902h-28.83V213.616z"/>
			</g>
			<g id="g4344">
				<g id="line4346">
					<path fill="#C62828" d="M130.512,235.021c-0.553,0-1-0.447-1-1v-15.502c0-0.552,0.447-1,1-1s1,0.448,1,1v15.502
						C131.512,234.573,131.065,235.021,130.512,235.021z"/>
				</g>
				<g id="line4348">
					<path fill="#C62828" d="M126.755,237.422c-0.553,0-1-0.447-1-1v-13.904c0-0.552,0.447-1,1-1s1,0.448,1,1v13.904
						C127.755,236.975,127.308,237.422,126.755,237.422z"/>
				</g>
				<g id="line4350">
					<path fill="#C62828" d="M122.998,239.823c-0.553,0-1-0.447-1-1v-20.305c0-0.552,0.447-1,1-1s1,0.448,1,1v20.305
						C123.998,239.376,123.551,239.823,122.998,239.823z"/>
				</g>
				<g id="line4352">
					<path fill="#C62828" d="M119.242,239.823c-0.552,0-1-0.447-1-1v-16.305c0-0.552,0.448-1,1-1s1,0.448,1,1v16.305
						C120.242,239.376,119.794,239.823,119.242,239.823z"/>
				</g>
				<g id="line4354">
					<path fill="#C62828" d="M115.485,237.422c-0.552,0-1-0.447-1-1v-17.903c0-0.552,0.448-1,1-1s1,0.448,1,1v17.903
						C116.485,236.975,116.037,237.422,115.485,237.422z"/>
				</g>
				<g id="line4356">
					<path fill="#C62828" d="M111.728,235.021c-0.552,0-1-0.447-1-1v-15.502c0-0.552,0.448-1,1-1s1,0.448,1,1v15.502
						C112.728,234.573,112.28,235.021,111.728,235.021z"/>
				</g>
			</g>
		</g>
	</g>
</g>
</svg>
