<?xml version="1.0" encoding="UTF-8" standalone="no"?>
<!-- Created with Inkscape (http://www.inkscape.org/) -->

<svg
   xmlns:dc="http://purl.org/dc/elements/1.1/"
   xmlns:cc="http://creativecommons.org/ns#"
   xmlns:rdf="http://www.w3.org/1999/02/22-rdf-syntax-ns#"
   xmlns:svg="http://www.w3.org/2000/svg"
   xmlns="http://www.w3.org/2000/svg"
   xmlns:sodipodi="http://sodipodi.sourceforge.net/DTD/sodipodi-0.dtd"
   xmlns:inkscape="http://www.inkscape.org/namespaces/inkscape"
   width="6.6604424mm"
   height="8.1047516mm"
   viewBox="0 0 23.599993 28.717624"
   id="svg2"
   version="1.1"
   inkscape:version="0.91 r13725"
   sodipodi:docname="play.svg">
  <defs
     id="defs4" />
  <sodipodi:namedview
     id="base"
     pagecolor="#ffffff"
     bordercolor="#666666"
     borderopacity="1.0"
     inkscape:pageopacity="0.0"
     inkscape:pageshadow="2"
     inkscape:zoom="0.98994949"
     inkscape:cx="42.978554"
     inkscape:cy="15.804976"
     inkscape:document-units="px"
     inkscape:current-layer="g3367"
     showgrid="false"
     inkscape:window-width="1366"
     inkscape:window-height="705"
     inkscape:window-x="-8"
     inkscape:window-y="-8"
     inkscape:window-maximized="1"
     fit-margin-top="0"
     fit-margin-left="0"
     fit-margin-right="0"
     fit-margin-bottom="0" />
  <metadata
     id="metadata7">
    <rdf:RDF>
      <cc:Work
         rdf:about="">
        <dc:format>image/svg+xml</dc:format>
        <dc:type
           rdf:resource="http://purl.org/dc/dcmitype/StillImage" />
        <dc:title></dc:title>
      </cc:Work>
    </rdf:RDF>
  </metadata>
  <g
     inkscape:label="Layer 1"
     inkscape:groupmode="layer"
     id="layer1"
     transform="translate(-362.83913,-353.62519)">
    <g
       id="g3337"
       transform="translate(73.766909,-85.354495)">
      <g
         id="g3379"
         transform="translate(99.14922,57.467312)">
        <path
           id="path3365"
           d="m 190.513,381.66 c -0.393,0.197 -0.59,0.59 -0.59,1.047 l 0,26.343 c 0,0.654 0.525,1.18 1.18,1.18 0.654,0 1.18,-0.525 1.18,-1.18 l 0,-24.245 17.758,10.551 L 197,403.81 c -0.59,0.329 -0.722,1.115 -0.329,1.637 0.329,0.59 1.115,0.722 1.637,0.329 l 14.68,-9.436 c 0.329,-0.197 0.59,-0.59 0.525,-1.047 0,-0.393 -0.197,-0.786 -0.59,-0.983 l -21.232,-12.649 c -0.328,-0.198 -0.785,-0.198 -1.178,-10e-4 z"
           inkscape:connector-curvature="0"
           style="fill:#9f302e" />
        <g
           id="g3367" />
      </g>
    </g>
  </g>
</svg>
