<?xml version="1.0" encoding="utf-8"?>
<!-- Generator: Adobe Illustrator 17.0.0, SVG Export Plug-In . SVG Version: 6.00 Build 0)  -->
<!DOCTYPE svg PUBLIC "-//W3C//DTD SVG 1.1//EN" "http://www.w3.org/Graphics/SVG/1.1/DTD/svg11.dtd">
<svg version="1.1"
	 id="svg2" sodipodi:docname="quote.svg" inkscape:version="0.91 r13725" xmlns:sodipodi="http://sodipodi.sourceforge.net/DTD/sodipodi-0.dtd" xmlns:dc="http://purl.org/dc/elements/1.1/" xmlns:inkscape="http://www.inkscape.org/namespaces/inkscape" xmlns:svg="http://www.w3.org/2000/svg" xmlns:cc="http://creativecommons.org/ns#" xmlns:rdf="http://www.w3.org/1999/02/22-rdf-syntax-ns#"
	 xmlns="http://www.w3.org/2000/svg" xmlns:xlink="http://www.w3.org/1999/xlink" x="0px" y="0px" width="38.281px"
	 height="31.722px" viewBox="0 0 38.281 31.722" enable-background="new 0 0 38.281 31.722" xml:space="preserve">
<sodipodi:namedview  id="base" inkscape:window-x="-8" inkscape:window-y="-8" inkscape:window-width="1366" inkscape:window-height="705" fit-margin-right="0" inkscape:pageopacity="0.0" inkscape:pageshadow="2" fit-margin-bottom="0" inkscape:current-layer="g4572" inkscape:document-units="px" inkscape:window-maximized="1" fit-margin-top="0" inkscape:cy="478.14501" showgrid="false" bordercolor="#666666" inkscape:cx="47.452591" borderopacity="1.0" inkscape:zoom="0.49497475" pagecolor="#ffffff" fit-margin-left="0">
	</sodipodi:namedview>
<g id="layer1" transform="translate(-595.08552,-701.51106)" inkscape:groupmode="layer" inkscape:label="Layer 1">
	<g id="g4572" transform="translate(45.614518,492.85206)">
		<g id="g4562">
			<g id="path4564">
				<path fill="#C62828" d="M550.538,240.579c-0.466,0-0.883-0.327-0.979-0.801c-0.11-0.541,0.24-1.069,0.781-1.18
					c4.505-0.914,8.04-2.841,10.506-5.725c2.455-2.87,3.7-6.943,3.7-12.106v-10.309h-13.274v12.095h7.415
					c0.514,0,0.944,0.389,0.995,0.9c0.16,1.602-0.158,3.273-0.946,4.97c-1.354,3.135-4.017,5.342-7.901,6.536
					c-0.525,0.165-1.087-0.134-1.25-0.662c-0.162-0.528,0.134-1.088,0.662-1.25c3.346-1.028,5.526-2.809,6.665-5.442
					c0.5-1.076,0.765-2.078,0.806-3.052h-7.445c-0.552,0-1-0.448-1-1v-14.095c0-0.552,0.448-1,1-1h15.274c0.552,0,1,0.448,1,1
					v11.309c0,5.653-1.406,10.164-4.18,13.406c-2.763,3.231-6.675,5.38-11.627,6.386
					C550.671,240.572,550.604,240.579,550.538,240.579z M571.944,240.579c-0.468,0-0.887-0.33-0.98-0.807
					c-0.106-0.542,0.246-1.067,0.788-1.175c4.641-0.914,8.205-2.853,10.596-5.763c2.392-2.91,3.604-6.971,3.604-12.067v-10.309
					h-13.274v12.095h7.414c0.525,0,0.962,0.407,0.998,0.932c0.118,1.728-0.181,3.418-0.886,5.025
					c-1.372,3.056-4.049,5.223-7.96,6.447c-0.529,0.165-1.088-0.129-1.253-0.655c-0.165-0.527,0.128-1.088,0.655-1.253
					c3.389-1.062,5.59-2.812,6.729-5.351c0.444-1.012,0.689-2.067,0.732-3.146h-7.431c-0.553,0-1-0.448-1-1v-14.095
					c0-0.552,0.447-1,1-1h15.274c0.553,0,1,0.448,1,1v11.309c0,5.572-1.366,10.059-4.06,13.336
					c-2.692,3.277-6.647,5.449-11.754,6.456C572.073,240.573,572.009,240.579,571.944,240.579z"/>
			</g>
		</g>
	</g>
</g>
</svg>
