<?xml version="1.0" encoding="UTF-8" standalone="no"?>
<!-- Created with Inkscape (http://www.inkscape.org/) -->

<svg
   xmlns:dc="http://purl.org/dc/elements/1.1/"
   xmlns:cc="http://creativecommons.org/ns#"
   xmlns:rdf="http://www.w3.org/1999/02/22-rdf-syntax-ns#"
   xmlns:svg="http://www.w3.org/2000/svg"
   xmlns="http://www.w3.org/2000/svg"
   xmlns:sodipodi="http://sodipodi.sourceforge.net/DTD/sodipodi-0.dtd"
   xmlns:inkscape="http://www.inkscape.org/namespaces/inkscape"
   width="10.017477mm"
   height="11.305821mm"
   viewBox="0 0 35.494998 40.059998"
   id="svg2"
   version="1.1"
   inkscape:version="0.91 r13725"
   sodipodi:docname="resources.svg">
  <defs
     id="defs4" />
  <sodipodi:namedview
     id="base"
     pagecolor="#ffffff"
     bordercolor="#666666"
     borderopacity="1.0"
     inkscape:pageopacity="0.0"
     inkscape:pageshadow="2"
     inkscape:zoom="0.98994949"
     inkscape:cx="-126.8969"
     inkscape:cy="-59.703674"
     inkscape:document-units="px"
     inkscape:current-layer="g3488"
     showgrid="false"
     inkscape:window-width="1366"
     inkscape:window-height="705"
     inkscape:window-x="-8"
     inkscape:window-y="-8"
     inkscape:window-maximized="1"
     fit-margin-top="0"
     fit-margin-left="0"
     fit-margin-right="0"
     fit-margin-bottom="0" />
  <metadata
     id="metadata7">
    <rdf:RDF>
      <cc:Work
         rdf:about="">
        <dc:format>image/svg+xml</dc:format>
        <dc:type
           rdf:resource="http://purl.org/dc/dcmitype/StillImage" />
        <dc:title></dc:title>
      </cc:Work>
    </rdf:RDF>
  </metadata>
  <g
     inkscape:label="Layer 1"
     inkscape:groupmode="layer"
     id="layer1"
     transform="translate(-568.11367,-210.99841)">
    <g
       id="g3337"
       transform="translate(73.766909,-85.354495)">
      <g
         id="g3379"
         transform="translate(99.14922,57.467312)">
        <g
           id="g3488"
           transform="translate(396.19754,239.88559)">
          <g
             id="g3414">
            <g
               id="g3416">
              <g
                 id="g3418">
                <g
                   id="g3420">
                  <path
                     id="path3422"
                     d="m 33.495,39.06 -28.981,0 c -0.002,0 -0.003,0 -0.003,0 -0.001,0 -0.002,0 -0.002,0 l 0,0 C 4.261,39.059 4.035,38.967 3.861,38.817 l -4.51,-3.848 C -0.872,34.78 -1,34.502 -1,34.209 L -1,0 c 0,-0.404 0.244,-0.769 0.617,-0.924 0.374,-0.153 0.804,-0.07 1.09,0.217 l 4.514,4.514 c 0.188,0.188 0.293,0.442 0.293,0.707 l 0,32.546 26.981,0 0,-31.548 -23.113,0.002 c -0.552,0 -1,-0.448 -1,-1 0,-0.552 0.448,-1 1,-1 L 33.495,3.512 c 0.265,0 0.52,0.105 0.707,0.293 0.187,0.188 0.293,0.442 0.293,0.707 l 0,33.548 c 0,0.552 -0.448,1 -1,1 z M 1,33.748 3.514,35.893 3.514,4.928 1,2.414 1,33.748 Z"
                     inkscape:connector-curvature="0"
                     style="fill:#424243" />
                </g>
                <g
                   id="g3424">
                  <path
                     id="path3426"
                     d="M 28.334,1 0,1 c -0.552,0 -1,-0.448 -1,-1 0,-0.552 0.448,-1 1,-1 l 28.334,0 c 0.552,0 1,0.448 1,1 0,0.552 -0.448,1 -1,1 z"
                     inkscape:connector-curvature="0"
                     style="fill:#424243" />
                </g>
                <g
                   id="g3428">
                  <path
                     id="path3430"
                     d="M 6.953,30.934"
                     stroke-miterlimit="10"
                     inkscape:connector-curvature="0"
                     style="fill:none;stroke:#424243;stroke-width:2;stroke-linecap:round;stroke-linejoin:round;stroke-miterlimit:10" />
                </g>
              </g>
              <g
                 id="g3432">
                <path
                   id="path3434"
                   d="m 28.013,14.91 -16.259,0 c -0.552,0 -1,-0.448 -1,-1 0,-0.552 0.448,-1 1,-1 l 16.258,0 c 0.552,0 1,0.448 1,1 0,0.552 -0.447,1 -0.999,1 z"
                   inkscape:connector-curvature="0"
                   style="fill:#424243" />
              </g>
              <g
                 id="g3436">
                <path
                   id="path3438"
                   d="m 28.013,20.746 -16.259,0 c -0.552,0 -1,-0.448 -1,-1 0,-0.552 0.448,-1 1,-1 l 16.258,0 c 0.552,0 1,0.448 1,1 0,0.552 -0.447,1 -0.999,1 z"
                   inkscape:connector-curvature="0"
                   style="fill:#424243" />
              </g>
              <g
                 id="g3440">
                <path
                   id="path3442"
                   d="m 28.013,26.583 -16.259,0 c -0.552,0 -1,-0.448 -1,-1 0,-0.552 0.448,-1 1,-1 l 16.258,0 c 0.552,0 1,0.448 1,1 0,0.552 -0.447,1 -0.999,1 z"
                   inkscape:connector-curvature="0"
                   style="fill:#424243" />
              </g>
            </g>
          </g>
        </g>
      </g>
    </g>
  </g>
</svg>
