<?xml version="1.0" encoding="utf-8"?>
<!-- Generator: Adobe Illustrator 17.0.0, SVG Export Plug-In . SVG Version: 6.00 Build 0)  -->
<!DOCTYPE svg PUBLIC "-//W3C//DTD SVG 1.1//EN" "http://www.w3.org/Graphics/SVG/1.1/DTD/svg11.dtd">
<svg version="1.1"
	 id="svg2" sodipodi:docname="share.svg" inkscape:version="0.91 r13725" xmlns:sodipodi="http://sodipodi.sourceforge.net/DTD/sodipodi-0.dtd" xmlns:dc="http://purl.org/dc/elements/1.1/" xmlns:inkscape="http://www.inkscape.org/namespaces/inkscape" xmlns:svg="http://www.w3.org/2000/svg" xmlns:cc="http://creativecommons.org/ns#" xmlns:rdf="http://www.w3.org/1999/02/22-rdf-syntax-ns#"
	 xmlns="http://www.w3.org/2000/svg" xmlns:xlink="http://www.w3.org/1999/xlink" x="0px" y="0px" width="34.731px"
	 height="29.152px" viewBox="0 0 34.731 29.152" enable-background="new 0 0 34.731 29.152" xml:space="preserve">
<sodipodi:namedview  id="base" inkscape:window-x="-8" inkscape:window-y="-8" inkscape:window-width="1366" inkscape:window-height="705" fit-margin-right="0" inkscape:pageopacity="0.0" inkscape:pageshadow="2" fit-margin-bottom="0" inkscape:current-layer="g4572" inkscape:document-units="px" inkscape:window-maximized="1" fit-margin-top="0" inkscape:cy="183.07952" showgrid="false" bordercolor="#666666" inkscape:cx="-651.41929" borderopacity="1.0" inkscape:zoom="0.49497475" pagecolor="#ffffff" fit-margin-left="0">
	</sodipodi:namedview>
<g id="layer1" transform="translate(-509.63797,-610.95692)" inkscape:groupmode="layer" inkscape:label="Layer 1">
	<g id="g4572" transform="translate(45.614518,492.85206)">
		<g id="g4480">
			<g id="path4482">
				<path fill="#C62828" d="M491.838,147.457c-0.396,0-0.756-0.234-0.916-0.599l-1.871-4.271
					c-10.394,3.713-18.352-2.064-22.396-8.868c-4.126-6.94-2.553-14.682-2.484-15.008c0.114-0.54,0.646-0.885,1.184-0.771
					c0.54,0.114,0.886,0.644,0.773,1.184c-0.015,0.073-1.471,7.322,2.246,13.574c3.737,6.287,11.172,11.609,20.834,7.69
					c0.5-0.201,1.075,0.029,1.292,0.525l1.29,2.942l4.879-12.359l-12.411-5.401l1.332,3.343c0.099,0.246,0.095,0.521-0.01,0.765
					c-0.105,0.244-0.303,0.436-0.549,0.534c-0.196,0.079-4.854,1.875-10.886-0.719c-1.917-0.824-3.799-2.263-5.592-4.276
					c-0.368-0.412-0.331-1.044,0.082-1.412c0.412-0.368,1.045-0.332,1.412,0.082c1.597,1.792,3.242,3.061,4.889,3.769
					c3.728,1.603,6.869,1.286,8.385,0.963l-1.819-4.565c-0.15-0.376-0.058-0.806,0.233-1.088c0.291-0.283,0.722-0.359,1.095-0.199
					l15.524,6.756c0.494,0.215,0.729,0.783,0.53,1.284l-6.116,15.492c-0.147,0.376-0.508,0.625-0.911,0.633
					C491.851,147.457,491.844,147.457,491.838,147.457z"/>
			</g>
			<g id="path4484">
				<path fill="#C62828" d="M489.584,142.313c-0.423,0-0.815-0.27-0.952-0.693l-0.635-1.969c-5.026,1.565-11.265,0.228-16.211-3.553
					c-5.567-4.254-8.419-10.722-7.629-17.301c0.066-0.548,0.569-0.938,1.112-0.874c0.548,0.065,0.939,0.563,0.874,1.112
					c-0.715,5.957,1.784,11.596,6.858,15.474c4.734,3.616,10.725,4.766,15.257,2.927c0.258-0.104,0.547-0.097,0.799,0.021
					c0.252,0.118,0.443,0.335,0.529,0.6l0.951,2.95c0.169,0.525-0.12,1.089-0.646,1.259
					C489.789,142.297,489.686,142.313,489.584,142.313z"/>
			</g>
		</g>
	</g>
</g>
</svg>
