<?xml version="1.0" encoding="utf-8"?>
<!-- Generator: Adobe Illustrator 17.0.0, SVG Export Plug-In . SVG Version: 6.00 Build 0)  -->
<!DOCTYPE svg PUBLIC "-//W3C//DTD SVG 1.1//EN" "http://www.w3.org/Graphics/SVG/1.1/DTD/svg11.dtd">
<svg version="1.1"
	 id="svg2" sodipodi:docname="shoe.svg" inkscape:version="0.91 r13725" xmlns:sodipodi="http://sodipodi.sourceforge.net/DTD/sodipodi-0.dtd" xmlns:dc="http://purl.org/dc/elements/1.1/" xmlns:inkscape="http://www.inkscape.org/namespaces/inkscape" xmlns:svg="http://www.w3.org/2000/svg" xmlns:cc="http://creativecommons.org/ns#" xmlns:rdf="http://www.w3.org/1999/02/22-rdf-syntax-ns#"
	 xmlns="http://www.w3.org/2000/svg" xmlns:xlink="http://www.w3.org/1999/xlink" x="0px" y="0px" width="43.777px"
	 height="30.419px" viewBox="0 0 43.777 30.419" enable-background="new 0 0 43.777 30.419" xml:space="preserve">
<sodipodi:namedview  id="base" inkscape:window-x="-8" inkscape:window-y="-8" inkscape:window-width="1366" inkscape:window-height="705" fit-margin-right="0" inkscape:pageopacity="0.0" inkscape:pageshadow="2" fit-margin-bottom="0" inkscape:current-layer="g4572" inkscape:document-units="px" inkscape:window-maximized="1" fit-margin-top="0" inkscape:cy="12.740241" showgrid="false" bordercolor="#666666" inkscape:cx="321.55534" borderopacity="1.0" inkscape:zoom="0.49497475" pagecolor="#ffffff" fit-margin-left="0">
	</sodipodi:namedview>
<g id="layer1" transform="translate(38.494034,-509.8424)" inkscape:groupmode="layer" inkscape:label="Layer 1">
	<g id="g4572" transform="translate(45.614518,492.85206)">
		<g id="g4282">
			<g id="g4284">
				<g id="g4286">
					<g id="path4288">
						<path fill="#C62828" d="M-45.518,43.726h-6.22c-1.607,0-3.146-0.599-4.332-1.685l-25.607-23.507
							c-0.407-0.374-0.434-1.006-0.061-1.413c0.373-0.407,1.006-0.434,1.413-0.061l25.606,23.507
							c0.815,0.746,1.875,1.158,2.98,1.158h6.22c0.553,0,1,0.447,1,1S-44.965,43.726-45.518,43.726z"/>
					</g>
					<g id="path4290">
						<path fill="#C62828" d="M-41.142,47.598c-0.553,0-1-0.447-1-1v-5.718c0-0.185-0.11-0.353-0.281-0.428l-8.003-3.479
							c-0.24-0.104-0.43-0.299-0.528-0.541l-3.79-9.337c-4.358-0.356-8.125-3.229-9.614-7.357l-6.656,7.255
							c-0.373,0.407-1.005,0.435-1.413,0.061c-0.407-0.373-0.435-1.006-0.061-1.413l7.816-8.521
							c0.241-0.263,0.604-0.376,0.953-0.301c0.348,0.077,0.629,0.334,0.737,0.674l0.39,1.229c1.191,3.744,4.63,6.319,8.557,6.408
							c0.398,0.009,0.754,0.254,0.904,0.624l3.876,9.548l7.63,3.316c0.901,0.394,1.482,1.28,1.482,2.261v5.718
							C-40.142,47.151-40.589,47.598-41.142,47.598z"/>
					</g>
					<g id="path4292">
						<path fill="#C62828" d="M-41.143,47.598h-11.857c-1.608,0-3.146-0.599-4.332-1.685L-72.141,32.68
							c-0.412-0.368-0.447-1-0.079-1.412c0.367-0.411,1-0.447,1.412-0.079l14.817,13.241c0.825,0.757,1.884,1.168,2.99,1.168h11.857
							c0.553,0,1,0.447,1,1S-40.59,47.598-41.143,47.598z"/>
					</g>
					<g id="line4294">
						<path fill="#C62828" d="M-78.179,40.244c-0.241,0-0.483-0.087-0.675-0.263c-0.407-0.374-0.435-1.006-0.061-1.413l6.704-7.309
							c0.373-0.407,1.006-0.435,1.413-0.061c0.407,0.373,0.435,1.006,0.061,1.413l-6.704,7.309
							C-77.639,40.134-77.909,40.244-78.179,40.244z"/>
					</g>
					<g id="line4296">
						<path fill="#C62828" d="M-69.408,37.163c-0.241,0-0.483-0.087-0.675-0.263c-0.407-0.373-0.435-1.006-0.061-1.413l1.17-1.276
							c0.372-0.406,1.005-0.435,1.413-0.062c0.407,0.373,0.435,1.006,0.061,1.413l-1.17,1.276
							C-68.867,37.053-69.137,37.163-69.408,37.163z"/>
					</g>
					<g id="line4298">
						<path fill="#C62828" d="M-63.142,42.846c-0.241,0-0.483-0.087-0.675-0.263c-0.407-0.373-0.435-1.006-0.061-1.413l1.17-1.276
							c0.372-0.406,1.005-0.435,1.413-0.062c0.406,0.373,0.434,1.006,0.061,1.413l-1.17,1.276
							C-62.601,42.737-62.871,42.846-63.142,42.846z"/>
					</g>
					<g id="line4300">
						<path fill="#C62828" d="M-66.089,40.046c-0.241,0-0.483-0.087-0.675-0.263c-0.407-0.373-0.435-1.006-0.061-1.413l1.17-1.276
							c0.373-0.407,1.006-0.435,1.413-0.062c0.407,0.373,0.435,1.006,0.061,1.413l-1.17,1.276
							C-65.549,39.936-65.819,40.046-66.089,40.046z"/>
					</g>
					<g id="line4302">
						<path fill="#C62828" d="M-60.097,45.599c-0.242,0-0.484-0.087-0.676-0.263c-0.407-0.374-0.435-1.006-0.062-1.413l1.171-1.276
							c0.374-0.408,1.008-0.434,1.413-0.062c0.407,0.374,0.435,1.006,0.062,1.413l-1.171,1.276
							C-59.557,45.49-59.827,45.599-60.097,45.599z"/>
					</g>
				</g>
				<g id="line4304">
					<path fill="#C62828" d="M-81.001,37.402c-0.241,0-0.483-0.087-0.675-0.263c-0.407-0.374-0.435-1.006-0.061-1.413l6.746-7.354
						c0.374-0.408,1.005-0.435,1.413-0.061c0.407,0.373,0.435,1.006,0.061,1.413l-6.746,7.354
						C-80.461,37.293-80.731,37.402-81.001,37.402z"/>
				</g>
				<g id="line4306">
					<path fill="#C62828" d="M-68.916,29.892c-0.241,0-0.483-0.087-0.675-0.263c-0.407-0.373-0.435-1.006-0.061-1.413l6.612-7.208
						c0.373-0.407,1.006-0.436,1.413-0.061c0.407,0.373,0.435,1.006,0.062,1.413l-6.612,7.208
						C-68.376,29.783-68.645,29.892-68.916,29.892z"/>
				</g>
			</g>
			<g id="line4308">
				<path fill="#C62828" d="M-74.256,30.049c-0.24,0-0.481-0.086-0.673-0.261l-9.045-8.243c-0.408-0.372-0.438-1.004-0.066-1.413
					c0.373-0.409,1.005-0.437,1.413-0.066l9.045,8.243c0.408,0.372,0.438,1.004,0.066,1.413
					C-73.713,29.939-73.984,30.049-74.256,30.049z"/>
			</g>
		</g>
	</g>
</g>
</svg>
