<?xml version="1.0" encoding="UTF-8" standalone="no"?>
<!-- Created with Inkscape (http://www.inkscape.org/) -->

<svg
   xmlns:dc="http://purl.org/dc/elements/1.1/"
   xmlns:cc="http://creativecommons.org/ns#"
   xmlns:rdf="http://www.w3.org/1999/02/22-rdf-syntax-ns#"
   xmlns:svg="http://www.w3.org/2000/svg"
   xmlns="http://www.w3.org/2000/svg"
   xmlns:sodipodi="http://sodipodi.sourceforge.net/DTD/sodipodi-0.dtd"
   xmlns:inkscape="http://www.inkscape.org/namespaces/inkscape"
   width="52.873749mm"
   height="7.3601985mm"
   viewBox="0 0 187.34793 26.079444"
   id="svg2"
   version="1.1"
   inkscape:version="0.91 r13725"
   sodipodi:docname="signature.svg">
  <defs
     id="defs4" />
  <sodipodi:namedview
     id="base"
     pagecolor="#ffffff"
     bordercolor="#666666"
     borderopacity="1.0"
     inkscape:pageopacity="0.0"
     inkscape:pageshadow="2"
     inkscape:zoom="0.98994949"
     inkscape:cx="21.476769"
     inkscape:cy="-36.294181"
     inkscape:document-units="px"
     inkscape:current-layer="g3488"
     showgrid="false"
     inkscape:window-width="1366"
     inkscape:window-height="705"
     inkscape:window-x="-8"
     inkscape:window-y="-8"
     inkscape:window-maximized="1"
     fit-margin-top="0"
     fit-margin-left="0"
     fit-margin-right="0"
     fit-margin-bottom="0" />
  <metadata
     id="metadata7">
    <rdf:RDF>
      <cc:Work
         rdf:about="">
        <dc:format>image/svg+xml</dc:format>
        <dc:type
           rdf:resource="http://purl.org/dc/dcmitype/StillImage" />
        <dc:title></dc:title>
      </cc:Work>
    </rdf:RDF>
  </metadata>
  <g
     inkscape:label="Layer 1"
     inkscape:groupmode="layer"
     id="layer1"
     transform="translate(-327.74107,-295.65767)">
    <g
       id="g3337"
       transform="translate(73.766909,-85.354495)">
      <g
         id="g3379"
         transform="translate(99.14922,57.467312)">
        <g
           id="g3488"
           transform="translate(396.19754,239.88559)">
          <g
             id="g3525"
             transform="translate(-241.37295,83.659989)">
            <path
               id="path3527"
               d="M 33.542,19.253 C 32.602,13.837 31.864,8.58 31.952,3.064 c 0.022,-1.382 -2.125,-1.383 -2.147,0 -0.067,4.224 0.216,8.432 0.886,12.604 0.279,1.736 0.961,3.655 0.925,5.426 -0.065,3.204 -2.936,2.948 -5.278,2.625 -8.484,-1.171 -16.77,-3.498 -25.008,-5.776 -1.334,-0.369 -1.903,1.702 -0.571,2.071 5.059,1.399 10.122,2.8 15.244,3.953 2.558,0.576 5.129,1.09 7.717,1.511 1.985,0.323 4.14,0.815 6.156,0.499 3.49,-0.549 4.194,-3.678 3.666,-6.724 z"
               inkscape:connector-curvature="0"
               style="fill:#434244" />
            <path
               id="path3529"
               d="m 83.788,14.747 c -7.358,2.379 -15.257,3.006 -22.864,1.488 -1.46,-0.291 -3.499,-0.618 -4.475,-1.863 -0.013,-0.016 -0.021,-0.034 -0.033,-0.05 0.234,-0.188 0.464,-0.383 0.687,-0.592 0.214,-0.2 0.309,-0.426 0.325,-0.649 0.204,0.101 0.454,0.128 0.744,0.025 2.198,-0.783 4.08,-2.114 5.379,-4.079 0.98,-1.483 1.568,-3.487 -0.426,-4.392 -3.95,-1.792 -8.601,3.744 -9.273,7.251 -0.04,-0.062 -0.086,-0.119 -0.14,-0.168 C 50.029,8.393 44.903,7.386 40.34,8.694 40.06,8.54 39.71,8.52 39.35,8.745 c -0.353,0.221 -0.714,0.457 -1.064,0.711 -1.164,0.541 -2.265,1.248 -3.265,2.122 -0.386,0.337 -0.355,0.882 -0.168,1.301 0.257,0.578 0.632,1.062 1.079,1.479 0.477,1.615 2.161,2.317 3.857,2.64 1.928,0.367 3.861,0.372 5.731,0.058 3.167,0.299 6.358,-0.065 9.092,-1.538 2.001,2.605 7.025,3.108 9.938,3.42 6.677,0.715 13.429,-0.057 19.81,-2.12 1.308,-0.424 0.748,-2.498 -0.572,-2.071 z M 58.252,8.412 c 0.816,-0.856 4.781,-3.231 3.445,-0.471 -0.726,1.501 -2.608,2.562 -4.096,3.092 -0.512,0.183 -0.73,0.619 -0.73,1.05 -0.245,-0.151 -0.541,-0.213 -0.834,-0.132 0.348,-1.344 1.402,-2.685 2.215,-3.539 z M 45.436,14.91 c -2.024,-0.154 -5.325,-0.408 -7.306,-1.616 -0.014,-0.691 0.624,-1.439 1.413,-2.069 3.772,-1.61 8.305,-1.191 11.681,1.235 -1.731,1.228 -3.7,2.069 -5.788,2.45 z m 7.097,-0.774 c 0.402,-0.284 0.798,-0.581 1.179,-0.901 0.019,-0.016 0.032,-0.037 0.049,-0.054 0.006,0.115 0.018,0.227 0.032,0.337 -0.409,0.234 -0.827,0.445 -1.26,0.618 z"
               inkscape:connector-curvature="0"
               style="fill:#434244" />
            <path
               id="path3531"
               d="m 109.249,13.161 c -1.455,-4.514 -3.598,-8.771 -6.276,-12.68 -0.776,-1.133 -2.638,-0.06 -1.854,1.084 2.383,3.479 11.808,18.607 3.58,20.149 -4.135,0.775 -8.676,0.568 -12.868,0.484 -4.503,-0.09 -8.998,-0.383 -13.491,-0.674 -1.38,-0.089 -1.374,2.058 0,2.147 5.474,0.355 10.954,0.71 16.442,0.702 2.668,-0.004 5.339,-0.09 7.999,-0.31 1.868,-0.155 3.949,-0.278 5.448,-1.548 2.735,-2.315 1.983,-6.367 1.02,-9.354 z"
               inkscape:connector-curvature="0"
               style="fill:#434244" />
            <path
               id="path3533"
               d="m 185.21,12.993 c -1.024,-0.692 -2.129,-0.92 -3.25,-0.868 0.539,-0.634 1.04,-1.309 1.494,-2.036 0.605,-0.969 -0.56,-1.916 -1.469,-1.469 -1.557,0.765 -3.113,1.529 -4.67,2.294 -6.278,1.962 -12.769,2.786 -19.324,2.462 0.032,-0.049 0.067,-0.094 0.098,-0.143 0.656,-1.039 -0.831,-2.158 -1.686,-1.301 -0.42,0.421 -0.745,0.825 -1.03,1.301 -3.089,3.092 -8.454,1.518 -9.372,-3.088 -0.171,-0.858 -1.228,-0.951 -1.794,-0.474 -0.787,0.663 -1.61,1.228 -2.473,1.734 l 0.151,-1.091 c 0.102,-0.735 -0.457,-1.619 -1.321,-1.321 -4.756,1.641 -9.705,2.358 -14.666,2.105 0.001,-1.038 -0.753,-1.961 -1.77,-2.312 -1.821,-0.627 -3.313,0.694 -4.417,1.976 -0.481,0.558 -0.382,1.633 0.474,1.794 0.526,0.099 1.053,0.185 1.58,0.263 -0.461,0.261 -0.954,0.483 -1.375,0.669 -1.279,0.566 -2.599,0.855 -3.96,0.929 0.528,-1.477 1.296,-2.799 2.368,-4.021 0.908,-1.035 -0.605,-2.56 -1.518,-1.518 -1.628,1.856 -2.74,3.93 -3.332,6.33 -0.173,0.703 0.33,1.323 1.035,1.359 2.199,0.111 4.355,-0.245 6.369,-1.154 1.054,-0.476 2.548,-1.242 3.534,-2.247 4.946,0.364 9.891,-0.162 14.674,-1.599 l -0.203,1.462 c -0.133,0.956 0.674,1.622 1.577,1.212 1.234,-0.56 2.371,-1.236 3.451,-2.016 1.927,4.746 7.816,6.091 11.712,3.174 7.018,0.583 14.028,-0.135 20.768,-2.109 0.21,0.038 0.441,0.013 0.677,-0.104 0.096,-0.047 0.191,-0.094 0.286,-0.141 -0.412,0.298 -0.839,0.581 -1.291,0.842 -1.207,0.7 -0.146,2.46 1.084,1.854 1.987,-0.978 5.172,-2.568 6.971,-0.414 2.212,2.649 -2.764,3.978 -4.555,4.405 -4.36,1.039 -8.94,0.584 -13.351,0.164 -1.375,-0.131 -1.366,2.017 0,2.147 3.79,0.361 7.615,0.695 11.41,0.205 2.729,-0.352 7.026,-1.103 8.688,-3.621 1.283,-1.937 0.216,-4.425 -1.574,-5.634 z"
               inkscape:connector-curvature="0"
               style="fill:#434244" />
          </g>
        </g>
      </g>
    </g>
  </g>
</svg>
