<?xml version="1.0" encoding="utf-8"?>
<!-- Generator: Adobe Illustrator 17.0.0, SVG Export Plug-In . SVG Version: 6.00 Build 0)  -->
<!DOCTYPE svg PUBLIC "-//W3C//DTD SVG 1.1//EN" "http://www.w3.org/Graphics/SVG/1.1/DTD/svg11.dtd">
<svg version="1.1"
	 id="svg2" sodipodi:docname="times.svg" inkscape:version="0.91 r13725" xmlns:sodipodi="http://sodipodi.sourceforge.net/DTD/sodipodi-0.dtd" xmlns:dc="http://purl.org/dc/elements/1.1/" xmlns:inkscape="http://www.inkscape.org/namespaces/inkscape" xmlns:svg="http://www.w3.org/2000/svg" xmlns:cc="http://creativecommons.org/ns#" xmlns:rdf="http://www.w3.org/1999/02/22-rdf-syntax-ns#"
	 xmlns="http://www.w3.org/2000/svg" xmlns:xlink="http://www.w3.org/1999/xlink" x="0px" y="0px" width="31.005px"
	 height="31.513px" viewBox="0 0 31.005 31.513" enable-background="new 0 0 31.005 31.513" xml:space="preserve">
<sodipodi:namedview  id="base" inkscape:window-x="-8" inkscape:window-y="-8" inkscape:window-width="1366" inkscape:window-height="705" fit-margin-right="0" inkscape:pageopacity="0.0" inkscape:pageshadow="2" fit-margin-bottom="0" inkscape:current-layer="g4572" inkscape:document-units="px" inkscape:window-maximized="1" fit-margin-top="0" inkscape:cy="-171.05181" showgrid="false" bordercolor="#666666" inkscape:cx="396.58908" borderopacity="1.0" inkscape:zoom="0.98994949" pagecolor="#ffffff" fit-margin-left="0">
	</sodipodi:namedview>
<g id="layer1" transform="translate(30.204579,-420.32496)" inkscape:groupmode="layer" inkscape:label="Layer 1">
	<g id="g4572" transform="translate(45.614518,492.85206)">
		<g id="g4098">
			<g id="line4100">
				<path fill="#C62828" d="M-75.011-44.756c-0.256,0-0.512-0.098-0.707-0.293c-0.391-0.391-0.391-1.023,0-1.414l25.456-25.456
					c0.391-0.391,1.023-0.391,1.414,0s0.391,1.023,0,1.414l-25.456,25.456C-74.499-44.854-74.755-44.756-75.011-44.756z"/>
			</g>
			<g id="line4102">
				<path fill="#C62828" d="M-71.078-40.822c-0.256,0-0.512-0.098-0.707-0.293c-0.391-0.391-0.391-1.023,0-1.414l25.456-25.456
					c0.391-0.391,1.023-0.391,1.414,0s0.391,1.023,0,1.414l-25.456,25.456C-70.567-40.92-70.822-40.822-71.078-40.822z"/>
			</g>
			<g id="line4104">
				<path fill="#C62828" d="M-46.04-45.264c-0.256,0-0.512-0.098-0.707-0.293l-10.148-10.147c-0.391-0.391-0.391-1.023,0-1.414
					s1.023-0.391,1.414,0l10.148,10.147c0.391,0.391,0.391,1.023,0,1.414C-45.529-45.361-45.784-45.264-46.04-45.264z"/>
			</g>
			<g id="line4106">
				<path fill="#C62828" d="M-64.136-63.358c-0.256,0-0.512-0.098-0.707-0.293l-7.361-7.361c-0.391-0.391-0.391-1.023,0-1.414
					s1.023-0.391,1.414,0l7.361,7.361c0.391,0.391,0.391,1.023,0,1.414C-63.624-63.456-63.88-63.358-64.136-63.358z"/>
			</g>
			<g id="line4108">
				<path fill="#C62828" d="M-49.527-41.777c-0.256,0-0.512-0.098-0.707-0.293l-10.148-10.147c-0.391-0.391-0.391-1.023,0-1.414
					s1.023-0.391,1.414,0l10.148,10.147c0.391,0.391,0.391,1.023,0,1.414C-49.015-41.875-49.271-41.777-49.527-41.777z"/>
			</g>
			<g id="line4110">
				<path fill="#C62828" d="M-67.622-59.872c-0.256,0-0.512-0.098-0.707-0.293l-7.361-7.361c-0.391-0.391-0.391-1.023,0-1.414
					s1.023-0.391,1.414,0l7.361,7.361c0.391,0.391,0.391,1.023,0,1.414C-67.111-59.969-67.366-59.872-67.622-59.872z"/>
			</g>
		</g>
	</g>
</g>
</svg>
