<?xml version="1.0" encoding="utf-8"?>
<!-- Generator: Adobe Illustrator 17.0.0, SVG Export Plug-In . SVG Version: 6.00 Build 0)  -->
<!DOCTYPE svg PUBLIC "-//W3C//DTD SVG 1.1//EN" "http://www.w3.org/Graphics/SVG/1.1/DTD/svg11.dtd">
<svg version="1.1"
	 id="svg2" sodipodi:docname="tintbottle.svg" inkscape:version="0.91 r13725" xmlns:sodipodi="http://sodipodi.sourceforge.net/DTD/sodipodi-0.dtd" xmlns:dc="http://purl.org/dc/elements/1.1/" xmlns:inkscape="http://www.inkscape.org/namespaces/inkscape" xmlns:svg="http://www.w3.org/2000/svg" xmlns:cc="http://creativecommons.org/ns#" xmlns:rdf="http://www.w3.org/1999/02/22-rdf-syntax-ns#"
	 xmlns="http://www.w3.org/2000/svg" xmlns:xlink="http://www.w3.org/1999/xlink" x="0px" y="0px" width="43.673px"
	 height="43.681px" viewBox="0 0 43.673 43.681" enable-background="new 0 0 43.673 43.681" xml:space="preserve">
<sodipodi:namedview  id="base" inkscape:window-x="-8" inkscape:window-y="-8" inkscape:window-width="1366" inkscape:window-height="705" fit-margin-right="0" inkscape:pageopacity="0.0" inkscape:pageshadow="2" fit-margin-bottom="0" inkscape:current-layer="g4572" inkscape:document-units="px" inkscape:window-maximized="1" fit-margin-top="0" inkscape:cy="172.79572" showgrid="false" bordercolor="#666666" inkscape:cx="818.17292" borderopacity="1.0" inkscape:zoom="0.49497475" pagecolor="#ffffff" fit-margin-left="0">
	</sodipodi:namedview>
<g id="layer1" transform="translate(-234.39744,-501.54494)" inkscape:groupmode="layer" inkscape:label="Layer 1">
	<g id="g4572" transform="translate(45.614518,492.85206)">
		<g id="g4134">
			<g id="rect4136">
				<path fill="#C62828" d="M200.282,52.573c-0.256,0-0.512-0.098-0.707-0.293l-10.699-10.699c-0.188-0.188-0.293-0.441-0.293-0.707
					s0.105-0.52,0.293-0.707l3.303-3.302c0.391-0.391,1.023-0.391,1.414,0l10.699,10.699c0.188,0.188,0.293,0.441,0.293,0.707
					s-0.105,0.52-0.293,0.707l-3.303,3.302C200.794,52.476,200.538,52.573,200.282,52.573z M190.997,40.874l9.285,9.285l1.888-1.888
					l-9.285-9.285L190.997,40.874z"/>
			</g>
			<g id="g4138">
				<g id="polyline4140">
					<path fill="#C62828" d="M201.861,47.548c-0.259,0-0.515-0.1-0.708-0.293l-7.25-7.25c-0.329-0.328-0.388-0.839-0.143-1.234
						l18.473-29.795c0.29-0.468,0.908-0.613,1.377-0.323c0.469,0.291,0.613,0.908,0.322,1.377l-18.054,29.122l6.129,6.129
						l28.049-17.389L216.116,13.95c-0.391-0.391-0.391-1.023,0-1.414s1.023-0.391,1.414,0l14.832,14.833
						c0.216,0.216,0.321,0.519,0.286,0.822c-0.035,0.304-0.207,0.574-0.466,0.735l-29.795,18.471
						C202.225,47.499,202.042,47.548,201.861,47.548z"/>
				</g>
				<g id="line4142">
					<path fill="#C62828" d="M201.181,39.472c-0.18,0-0.362-0.049-0.526-0.15c-0.469-0.291-0.614-0.907-0.323-1.377l15.642-25.228
						c0.292-0.469,0.908-0.614,1.377-0.323c0.469,0.291,0.613,0.908,0.322,1.377l-15.641,25.229
						C201.843,39.304,201.516,39.472,201.181,39.472z"/>
				</g>
			</g>
		</g>
	</g>
</g>
</svg>
