<?xml version="1.0" encoding="utf-8"?>
<!-- Generator: Adobe Illustrator 17.0.0, SVG Export Plug-In . SVG Version: 6.00 Build 0)  -->
<!DOCTYPE svg PUBLIC "-//W3C//DTD SVG 1.1//EN" "http://www.w3.org/Graphics/SVG/1.1/DTD/svg11.dtd">
<svg version="1.1"
	 id="svg2" sodipodi:docname="wheel.svg" inkscape:version="0.91 r13725" xmlns:sodipodi="http://sodipodi.sourceforge.net/DTD/sodipodi-0.dtd" xmlns:dc="http://purl.org/dc/elements/1.1/" xmlns:inkscape="http://www.inkscape.org/namespaces/inkscape" xmlns:svg="http://www.w3.org/2000/svg" xmlns:cc="http://creativecommons.org/ns#" xmlns:rdf="http://www.w3.org/1999/02/22-rdf-syntax-ns#"
	 xmlns="http://www.w3.org/2000/svg" xmlns:xlink="http://www.w3.org/1999/xlink" x="0px" y="0px" width="38.81px"
	 height="38.832px" viewBox="0 0 38.81 38.832" enable-background="new 0 0 38.81 38.832" xml:space="preserve">
<sodipodi:namedview  id="base" inkscape:window-x="-8" inkscape:window-y="-8" inkscape:window-width="1366" inkscape:window-height="705" fit-margin-right="0" inkscape:pageopacity="0.0" inkscape:pageshadow="2" fit-margin-bottom="0" inkscape:current-layer="g4572" inkscape:document-units="px" inkscape:window-maximized="1" fit-margin-top="0" inkscape:cy="-6.5804952" showgrid="false" bordercolor="#666666" inkscape:cx="436.98659" borderopacity="1.0" inkscape:zoom="0.49497475" pagecolor="#ffffff" fit-margin-left="0">
	</sodipodi:namedview>
<g id="layer1" transform="translate(-413.29852,-697.06482)" inkscape:groupmode="layer" inkscape:label="Layer 1">
	<g id="g4572" transform="translate(45.614518,492.85206)">
		<g id="g4530">
			<g id="path4532">
				<path fill="#C62828" d="M387.089,243.233c-10.81,0-19.605-8.795-19.605-19.604c0-10.81,8.795-19.605,19.605-19.605
					c0.553,0,1,0.448,1,1s-0.447,1-1,1c-9.708,0-17.605,7.897-17.605,17.605c0,9.707,7.897,17.604,17.605,17.604
					c9.707,0,17.604-7.897,17.604-17.604c0-6.24-3.197-11.885-8.553-15.103c-0.474-0.285-0.627-0.899-0.343-1.373
					c0.283-0.473,0.898-0.626,1.372-0.342c5.874,3.529,9.523,9.973,9.523,16.817C406.693,234.439,397.898,243.233,387.089,243.233z"
					/>
			</g>
			<g id="path4534">
				<path fill="#C62828" d="M398.694,229.252c-0.124,0-0.249-0.022-0.37-0.071c-0.514-0.204-0.764-0.786-0.559-1.299
					c0.539-1.353,0.813-2.783,0.813-4.253c0-6.335-5.154-11.49-11.489-11.49c-4.753,0-8.95,2.856-10.693,7.276
					c-0.202,0.514-0.783,0.768-1.297,0.563c-0.514-0.203-0.766-0.783-0.563-1.297c2.046-5.189,6.974-8.543,12.553-8.543
					c7.438,0,13.489,6.051,13.489,13.49c0,1.725-0.321,3.405-0.955,4.993C399.467,229.014,399.091,229.252,398.694,229.252z"/>
			</g>
			<g id="path4536">
				<path fill="#C62828" d="M387.089,237.118c-5.912,0-11.081-3.783-12.863-9.415c-0.167-0.526,0.125-1.089,0.652-1.255
					c0.527-0.168,1.088,0.125,1.255,0.651c1.518,4.796,5.92,8.019,10.956,8.019c2.262,0,4.45-0.656,6.328-1.897
					c0.46-0.306,1.08-0.179,1.386,0.282c0.305,0.461,0.178,1.081-0.282,1.386C392.313,236.348,389.744,237.118,387.089,237.118z"/>
			</g>
			<g id="line4538">
				<path fill="#C62828" d="M387.089,212.139c-0.552,0-1-0.448-1-1v-6.115c0-0.552,0.448-1,1-1c0.553,0,1,0.448,1,1v6.115
					C388.089,211.691,387.642,212.139,387.089,212.139z"/>
			</g>
			<g id="line4540">
				<path fill="#C62828" d="M387.089,243.233c-0.552,0-1-0.447-1-1v-6.115c0-0.553,0.448-1,1-1c0.553,0,1,0.447,1,1v6.115
					C388.089,242.786,387.642,243.233,387.089,243.233z"/>
			</g>
			<g id="line4542">
				<path fill="#C62828" d="M382.933,220.472c-0.256,0-0.512-0.098-0.707-0.293l-4.674-4.674c-0.391-0.391-0.391-1.023,0-1.414
					s1.023-0.391,1.414,0l4.674,4.674c0.391,0.391,0.391,1.023,0,1.414C383.445,220.375,383.189,220.472,382.933,220.472z"/>
			</g>
			<g id="line4544">
				<path fill="#C62828" d="M378.264,233.454c-0.256,0-0.512-0.098-0.707-0.293c-0.391-0.391-0.391-1.023,0-1.414l4.669-4.669
					c0.391-0.391,1.023-0.391,1.414,0s0.391,1.023,0,1.414l-4.669,4.669C378.776,233.357,378.52,233.454,378.264,233.454z"/>
			</g>
			<g id="path4546">
				<path fill="#C62828" d="M387.089,230.506c-3.792,0-6.877-3.085-6.877-6.878c0-1.837,0.715-3.564,2.015-4.863
					c0.391-0.391,1.024-0.391,1.414,0c0.391,0.391,0.391,1.024,0,1.414c-0.921,0.921-1.429,2.146-1.429,3.449
					c0,2.689,2.188,4.878,4.877,4.878s4.878-2.188,4.878-4.878c0-1.533-0.7-2.947-1.921-3.88c-0.438-0.335-0.522-0.963-0.188-1.402
					c0.336-0.438,0.963-0.521,1.402-0.187c1.72,1.314,2.706,3.308,2.706,5.469C393.967,227.421,390.882,230.506,387.089,230.506z"/>
			</g>
		</g>
	</g>
</g>
</svg>
