<?xml version="1.0" encoding="UTF-8" standalone="no"?>
<!-- Created with Inkscape (http://www.inkscape.org/) -->

<svg
   xmlns:dc="http://purl.org/dc/elements/1.1/"
   xmlns:cc="http://creativecommons.org/ns#"
   xmlns:rdf="http://www.w3.org/1999/02/22-rdf-syntax-ns#"
   xmlns:svg="http://www.w3.org/2000/svg"
   xmlns="http://www.w3.org/2000/svg"
   xmlns:sodipodi="http://sodipodi.sourceforge.net/DTD/sodipodi-0.dtd"
   xmlns:inkscape="http://www.inkscape.org/namespaces/inkscape"
   width="63.507812mm"
   height="18.061092mm"
   viewBox="0 0 225.02769 63.995996"
   id="svg2"
   version="1.1"
   inkscape:version="0.91 r13725"
   sodipodi:docname="logotype.svg">
  <defs
     id="defs4" />
  <sodipodi:namedview
     id="base"
     pagecolor="#ffffff"
     bordercolor="#666666"
     borderopacity="1.0"
     inkscape:pageopacity="0.0"
     inkscape:pageshadow="2"
     inkscape:zoom="0.35"
     inkscape:cx="83.228137"
     inkscape:cy="-36.573438"
     inkscape:document-units="px"
     inkscape:current-layer="layer1"
     showgrid="false"
     fit-margin-top="0"
     fit-margin-left="0"
     fit-margin-right="0"
     fit-margin-bottom="0"
     inkscape:window-width="1366"
     inkscape:window-height="705"
     inkscape:window-x="-8"
     inkscape:window-y="-8"
     inkscape:window-maximized="1" />
  <metadata
     id="metadata7">
    <rdf:RDF>
      <cc:Work
         rdf:about="">
        <dc:format>image/svg+xml</dc:format>
        <dc:type
           rdf:resource="http://purl.org/dc/dcmitype/StillImage" />
        <dc:title></dc:title>
      </cc:Work>
    </rdf:RDF>
  </metadata>
  <g
     inkscape:label="Layer 1"
     inkscape:groupmode="layer"
     id="layer1"
     transform="translate(-241.77187,-546.07849)">
    <g
       id="g3337"
       transform="translate(47.16156,181.61049)">
      <g
         id="g3339">
        <g
           id="g3341">
          <path
             id="path3343"
             d="m 263.36,395.267 c 0.423,-0.133 0.824,-0.267 1.247,-0.401 0.512,-0.156 0.846,-0.779 0.869,-1.403 0.022,-1.203 0.045,-2.405 0.067,-3.608 l 0,-8.307 c 0,-0.356 -0.178,-0.757 -0.534,-0.891 -0.534,-0.2 -1.091,-0.379 -1.626,-0.579 -0.022,-0.178 0,-0.334 0.067,-0.557 l 11.314,0 0,3.408 c -0.245,0.045 -0.646,0.045 -0.869,-0.022 -0.245,-1.047 -0.579,-1.915 -2.004,-2.004 -1.448,-0.089 -2.918,-0.156 -4.365,-0.245 l 0,7.016 c 2.094,-0.067 4.209,-0.133 6.303,-0.2 l 0,1.47 c -2.094,-0.044 -4.209,-0.067 -6.303,-0.111 l 0,1.047 c 0.022,1.292 0.067,2.583 0.089,3.875 0,0.423 -0.045,0.646 0.468,0.757 0.846,0.178 1.693,0.334 2.539,0.512 0,0.201 0,0.668 -0.089,0.913 l -7.149,0 c -0.068,-0.203 -0.068,-0.381 -0.024,-0.67 z"
             inkscape:connector-curvature="0"
             style="fill:#2b2c2d" />
          <path
             id="path3345"
             d="m 280.798,388.385 c 0,-4.989 3.296,-9.109 8.129,-9.109 5.056,0 7.639,3.118 7.639,7.75 0,4.855 -3.029,9.176 -8.062,9.176 -4.877,0 -7.706,-3.007 -7.706,-7.817 z m 13.319,-0.668 c 0,-3.72 -1.537,-7.172 -5.39,-7.172 -4.031,0 -5.479,3.452 -5.479,7.127 0,3.564 1.381,7.216 5.323,7.216 4.188,0 5.546,-3.452 5.546,-7.171 z"
             inkscape:connector-curvature="0"
             style="fill:#2b2c2d" />
          <path
             id="path3347"
             d="m 304.74,390.59 0,-8.842 c 0,-0.245 -0.067,-0.49 -0.178,-0.713 -0.111,-0.223 -0.267,-0.379 -0.468,-0.445 -0.468,-0.156 -0.935,-0.312 -1.403,-0.468 0,-0.201 0.022,-0.356 0.089,-0.602 l 5.991,0 c 0.067,0.334 0.067,0.423 0.045,0.713 -0.423,0.089 -0.846,0.178 -1.269,0.267 -0.446,0.089 -0.579,0.29 -0.579,0.712 l 0,9.221 c 0,3.207 2.16,4.566 4.12,4.566 2.495,0 4.098,-1.537 4.098,-5.1 l 0,-7.973 c 0,-0.535 -0.223,-1.225 -1.247,-1.515 -0.312,-0.089 -0.646,-0.2 -0.958,-0.29 0,-0.112 -0.022,-0.201 -0.022,-0.289 0,-0.089 0,-0.178 0.045,-0.312 l 5.835,0 c 0.067,0.334 0.067,0.356 0.067,0.646 -0.379,0.111 -0.735,0.245 -1.114,0.356 -0.29,0.111 -0.601,0.223 -0.601,0.891 l 0,8.575 c 0,4.343 -3.675,6.236 -6.459,6.236 -3.052,0 -5.992,-1.091 -5.992,-5.634 z"
             inkscape:connector-curvature="0"
             style="fill:#2b2c2d" />
          <path
             id="path3349"
             d="m 328.392,381.792 -0.156,0 c 0.067,0.601 0.133,1.181 0.2,1.782 l 0,6.281 c 0.022,1.292 0.045,2.583 0.067,3.875 0,0.534 0.045,0.668 0.534,0.846 0.624,0.223 1.27,0.423 1.893,0.646 0,0.2 -0.022,0.467 -0.111,0.712 l -6.036,0 c -0.022,-0.178 -0.045,-0.267 -0.067,-0.356 -0.022,-0.089 -0.045,-0.156 -0.022,-0.312 0.423,-0.133 0.869,-0.267 1.292,-0.401 0.691,-0.2 1.047,-1.158 1.069,-1.871 0.022,-1.047 0.022,-2.094 0.045,-3.14 l 0,-8.129 c 0,-0.245 -0.067,-0.49 -0.178,-0.69 -0.111,-0.2 -0.267,-0.356 -0.468,-0.445 -0.445,-0.156 -0.913,-0.312 -1.358,-0.468 l 0,-0.289 c 0,-0.089 0,-0.178 0.044,-0.312 l 4.499,0 c 2.873,4.365 5.724,8.708 8.597,13.074 0.045,0 0.111,0 0.156,0 l -0.2,-2.339 0,-8.24 c 0,-0.557 -0.356,-1.248 -0.824,-1.425 -0.468,-0.156 -0.935,-0.312 -1.403,-0.468 0,-0.201 0,-0.356 0.089,-0.602 l 5.612,0 c 0.022,0.156 0.045,0.223 0.067,0.289 0.022,0.067 0.022,0.111 0.022,0.267 -0.445,0.134 -0.869,0.245 -1.314,0.379 -0.557,0.156 -0.913,0.891 -0.913,1.537 l 0,13.92 c -0.557,0.156 -1.136,0.334 -1.693,0.49 -3.14,-4.878 -6.302,-9.733 -9.443,-14.611 z"
             inkscape:connector-curvature="0"
             style="fill:#2b2c2d" />
          <path
             id="path3351"
             d="m 347.546,395.534 c -0.022,-0.111 -0.022,-0.2 0,-0.356 0.512,-0.133 1.002,-0.267 1.514,-0.401 0.579,-0.156 0.846,-0.779 0.869,-1.514 0.022,-1.136 0.022,-2.294 0.045,-3.43 l 0,-8.352 c 0,-0.356 -0.178,-0.69 -0.512,-0.802 -0.557,-0.178 -1.091,-0.356 -1.648,-0.534 -0.022,-0.178 -0.022,-0.334 0.089,-0.624 l 6.258,0 c 5.1,0 8.931,1.604 8.931,7.818 0,5.456 -3.519,8.597 -8.775,8.597 l -6.704,0 c -0.023,-0.179 -0.045,-0.291 -0.067,-0.402 z m 6.993,-0.757 c 4.098,0 6.08,-2.405 6.102,-7.038 0,-4.499 -2.294,-7.016 -6.526,-7.016 l -2.115,0 0,9.131 c 0.045,1.648 0.089,3.274 0.134,4.922 l 2.405,0 z"
             inkscape:connector-curvature="0"
             style="fill:#2b2c2d" />
          <path
             id="path3353"
             d="m 369.55,395.534 c -0.022,-0.111 -0.022,-0.223 0,-0.379 0.512,-0.134 1.002,-0.267 1.514,-0.401 0.512,-0.134 0.846,-0.668 0.869,-1.292 0.022,-1.203 0.045,-2.428 0.067,-3.63 l 0,-8.285 c 0,-0.356 -0.178,-0.757 -0.534,-0.891 -0.557,-0.2 -1.114,-0.379 -1.67,-0.579 -0.022,-0.178 0,-0.267 0.111,-0.557 l 11.314,0 0,3.252 c -0.134,0.045 -0.312,0.045 -0.49,0.045 -0.178,0 -0.312,-0.022 -0.445,-0.022 -0.245,-1.336 -0.668,-1.982 -1.782,-2.004 -1.492,-0.045 -3.007,-0.089 -4.499,-0.134 l 0,6.459 c 2.027,-0.044 4.031,-0.067 6.058,-0.111 l 0,1.381 c -2.027,-0.045 -4.031,-0.067 -6.058,-0.112 l 0,1.581 c 0.045,1.648 0.067,3.274 0.112,4.922 1.47,-0.022 2.94,-0.045 4.41,-0.067 1.626,-0.022 2.517,-1.292 2.851,-2.294 0.245,0.044 0.512,0.111 0.757,0.156 -0.133,1.113 -0.267,2.249 -0.401,3.363 l -12.116,0 c -0.024,-0.178 -0.046,-0.29 -0.068,-0.401 z"
             inkscape:connector-curvature="0"
             style="fill:#2b2c2d" />
          <path
             id="path3355"
             d="m 403.625,396.291 c -1.247,-0.089 -3.296,-0.379 -4.677,-1.849 -1.024,-1.069 -2.116,-3.229 -2.828,-4.655 -0.245,-0.468 -0.446,-0.891 -0.579,-1.136 -0.401,0.067 -0.401,0.067 -0.869,0.067 l -1.96,0 c 0.022,1.782 0.067,3.564 0.089,5.345 0,0.379 0.111,0.557 0.379,0.602 0.601,0.133 1.203,0.289 1.804,0.423 0,0.2 0,0.601 -0.089,0.846 l -6.147,0 c -0.022,-0.178 -0.044,-0.267 -0.067,-0.356 -0.022,-0.089 -0.022,-0.156 0,-0.312 0.356,-0.133 0.713,-0.267 1.069,-0.401 0.512,-0.178 0.802,-0.779 0.891,-1.403 0.022,-1.203 0.045,-2.405 0.067,-3.608 l 0,-8.552 c -0.022,-0.133 -0.089,-0.267 -0.178,-0.379 -0.089,-0.111 -0.178,-0.2 -0.334,-0.267 -0.557,-0.2 -1.114,-0.379 -1.67,-0.579 -0.022,-0.178 0,-0.267 0.111,-0.557 l 6.726,0 c 3.14,0 5.39,1.136 5.39,4.365 0,1.804 -1.002,3.719 -2.895,4.298 0.534,0.869 1.982,3.608 3.029,4.744 1.136,1.225 2.316,2.227 3.497,2.628 -0.067,0.267 -0.134,0.512 -0.201,0.779 -0.157,0.002 -0.357,-0.02 -0.558,-0.043 z m -8.842,-8.73 c 2.45,0 3.675,-1.292 3.697,-3.363 0,-1.915 -1.203,-3.452 -3.675,-3.496 -0.691,-0.023 -1.403,-0.023 -2.094,-0.045 l 0,6.904 2.072,0 z"
             inkscape:connector-curvature="0"
             style="fill:#2b2c2d" />
          <path
             id="path3357"
             d="m 409.126,395.066 c 0.067,-1.114 0.111,-2.227 0.178,-3.341 l 0.869,0 c 0.624,2.517 2.361,3.229 4.276,3.229 1.804,0 3.274,-1.403 3.274,-3.074 0,-1.247 -1.114,-1.96 -2.517,-2.606 -2.316,-1.092 -5.412,-2.071 -5.412,-5.279 0,-2.94 2.717,-4.699 5.39,-4.699 1.804,0 2.962,0.401 3.92,0.958 l 0,2.918 -0.713,0 c -0.446,-1.849 -1.893,-2.583 -3.541,-2.583 -2.071,0 -3.385,0.913 -3.385,2.628 0,1.425 1.604,2.16 3.407,3.007 2.25,1.069 4.766,2.338 4.766,5.301 0,3.207 -2.918,4.655 -5.857,4.655 -1.559,0 -3.229,-0.49 -4.655,-1.114 z"
             inkscape:connector-curvature="0"
             style="fill:#2b2c2d" />
        </g>
        <g
           id="g3359">
          <path
             id="path3361"
             d="m 263.576,409.126 c 0,-1.793 1.053,-2.959 2.911,-2.959 1.029,0 1.52,0.233 1.648,0.29 l -0.185,0.531 c -0.233,-0.072 -0.651,-0.241 -1.447,-0.241 -1.182,0 -2.236,0.643 -2.236,2.3 0,1.697 1.094,2.412 2.396,2.412 0.531,0 1.029,-0.113 1.335,-0.209 l 0.161,0.531 c -0.217,0.088 -0.692,0.249 -1.64,0.249 -1.873,-0.002 -2.943,-1.208 -2.943,-2.904 z"
             inkscape:connector-curvature="0"
             style="fill:#2b2c2d" />
          <path
             id="path3363"
             d="m 274.468,406.247 0.659,0 0,2.557 3.12,0 0,-2.557 0.659,0 0,5.685 -0.659,0 0,-2.581 -3.12,0 0,2.581 -0.659,0 0,-5.685 z"
             inkscape:connector-curvature="0"
             style="fill:#2b2c2d" />
          <path
             id="path3365"
             d="m 288.955,411.152 -1.053,-1.52 c -0.137,0.024 -0.362,0.04 -0.531,0.04 l -0.772,0 0,2.26 -0.668,0 0,-5.685 1.858,0 c 1.086,0 1.841,0.515 1.841,1.665 0,0.667 -0.314,1.271 -1.069,1.56 l 0.885,1.263 c 0.386,0.531 0.82,0.683 1.118,0.764 l -0.145,0.523 c -0.314,-0.025 -0.974,-0.178 -1.464,-0.87 z m -1.536,-2.034 c 0.885,0 1.512,-0.265 1.512,-1.158 0,-0.868 -0.45,-1.174 -1.319,-1.174 l -1.013,0 0,2.332 0.82,0 z"
             inkscape:connector-curvature="0"
             style="fill:#2b2c2d" />
          <path
             id="path3367"
             d="m 296.807,406.247 0.659,0 0,5.685 -0.659,0 0,-5.685 z"
             inkscape:connector-curvature="0"
             style="fill:#2b2c2d" />
          <path
             id="path3369"
             d="m 304.023,411.683 0.225,-0.531 c 0.418,0.185 0.804,0.298 1.343,0.298 0.635,0 1.367,-0.217 1.367,-0.949 0,-1.423 -2.782,-1.094 -2.782,-2.951 0,-0.925 0.772,-1.375 1.681,-1.375 0.651,0 1.045,0.129 1.383,0.273 l -0.185,0.491 c -0.338,-0.121 -0.66,-0.217 -1.182,-0.217 -0.611,0 -1.069,0.241 -1.069,0.804 0,1.271 2.807,1.11 2.807,2.927 0,1.085 -0.901,1.576 -2.002,1.576 -0.83,-10e-4 -1.264,-0.177 -1.586,-0.346 z"
             inkscape:connector-curvature="0"
             style="fill:#2b2c2d" />
          <path
             id="path3371"
             d="m 315.236,406.81 -1.938,0 0,-0.563 4.543,0 0,0.563 -1.938,0 0,5.122 -0.667,0 0,-5.122 z"
             inkscape:connector-curvature="0"
             style="fill:#2b2c2d" />
          <path
             id="path3373"
             d="m 323.98,406.247 0.659,0 0,5.685 -0.659,0 0,-5.685 z"
             inkscape:connector-curvature="0"
             style="fill:#2b2c2d" />
          <path
             id="path3375"
             d="m 333.142,406.247 0.893,0 2.051,5.685 -0.708,0 -0.748,-2.123 -2.252,0 -0.836,2.123 -0.667,0 2.267,-5.685 z m 1.303,3.032 -0.885,-2.565 -0.973,2.565 1.858,0 z"
             inkscape:connector-curvature="0"
             style="fill:#2b2c2d" />
          <path
             id="path3377"
             d="m 342.289,406.247 0.949,0 2.903,5.123 -0.024,-0.708 0,-4.415 0.676,0 0,5.685 -1.037,0 -2.839,-5.05 0.032,0.587 0,4.463 -0.659,0 0,-5.685 z"
             inkscape:connector-curvature="0"
             style="fill:#2b2c2d" />
          <path
             id="path3379"
             d="m 360.269,411.683 0.225,-0.531 c 0.418,0.185 0.804,0.298 1.343,0.298 0.635,0 1.367,-0.217 1.367,-0.949 0,-1.423 -2.782,-1.094 -2.782,-2.951 0,-0.925 0.772,-1.375 1.681,-1.375 0.651,0 1.045,0.129 1.383,0.273 l -0.185,0.491 c -0.338,-0.121 -0.66,-0.217 -1.182,-0.217 -0.611,0 -1.07,0.241 -1.07,0.804 0,1.271 2.807,1.11 2.807,2.927 0,1.085 -0.901,1.576 -2.002,1.576 -0.829,-10e-4 -1.264,-0.177 -1.585,-0.346 z"
             inkscape:connector-curvature="0"
             style="fill:#2b2c2d" />
          <path
             id="path3381"
             d="m 369.978,409.126 c 0,-1.793 1.053,-2.959 2.911,-2.959 1.029,0 1.52,0.233 1.648,0.29 l -0.185,0.531 c -0.233,-0.072 -0.651,-0.241 -1.447,-0.241 -1.182,0 -2.236,0.643 -2.236,2.3 0,1.697 1.094,2.412 2.396,2.412 0.531,0 1.029,-0.113 1.335,-0.209 l 0.161,0.531 c -0.217,0.088 -0.692,0.249 -1.64,0.249 -1.873,-0.002 -2.943,-1.208 -2.943,-2.904 z"
             inkscape:connector-curvature="0"
             style="fill:#2b2c2d" />
          <path
             id="path3383"
             d="m 380.87,406.247 0.659,0 0,2.557 3.12,0 0,-2.557 0.659,0 0,5.685 -0.659,0 0,-2.581 -3.12,0 0,2.581 -0.659,0 0,-5.685 z"
             inkscape:connector-curvature="0"
             style="fill:#2b2c2d" />
          <path
             id="path3385"
             d="m 391.891,409.077 c 0,-1.777 1.19,-2.911 2.935,-2.911 1.834,0 2.758,1.271 2.758,2.927 0,1.737 -1.085,2.935 -2.911,2.935 -1.769,0 -2.782,-1.214 -2.782,-2.951 z m 5.034,0.008 c 0,-1.351 -0.772,-2.372 -2.171,-2.372 -1.464,0 -2.203,1.021 -2.203,2.356 0,1.294 0.716,2.412 2.147,2.412 1.511,0.001 2.227,-1.045 2.227,-2.396 z"
             inkscape:connector-curvature="0"
             style="fill:#2b2c2d" />
          <path
             id="path3387"
             d="m 403.724,409.077 c 0,-1.777 1.19,-2.911 2.935,-2.911 1.834,0 2.758,1.271 2.758,2.927 0,1.737 -1.085,2.935 -2.911,2.935 -1.769,0 -2.782,-1.214 -2.782,-2.951 z m 5.034,0.008 c 0,-1.351 -0.772,-2.372 -2.171,-2.372 -1.464,0 -2.203,1.021 -2.203,2.356 0,1.294 0.716,2.412 2.147,2.412 1.511,0.001 2.227,-1.045 2.227,-2.396 z"
             inkscape:connector-curvature="0"
             style="fill:#2b2c2d" />
          <path
             id="path3389"
             d="m 415.999,406.247 0.659,0 0,5.115 2.469,0 0,0.571 -3.128,0 0,-5.686 z"
             inkscape:connector-curvature="0"
             style="fill:#2b2c2d" />
        </g>
        <rect
           id="rect3391"
           height="2.0599999"
           width="155.78799"
           y="400.06"
           x="263.38599"
           style="fill:#a0302e" />
      </g>
      <g
         id="g3393">
        <path
           id="path3395"
           d="m 219.135,373.102 0,36.999 c -5.115,-4.531 -9.199,-10.006 -12.061,-16.089 l 9.549,0 0,-2.126 -10.493,0 c -0.299,-0.705 -0.573,-1.421 -0.832,-2.141 l 11.325,0 0,-2.126 -12.04,0 c -1.172,-3.729 -1.913,-7.621 -2.192,-11.614 0,0 -0.096,-0.31 -0.02,-0.31 7.855,0 13.243,-1.248 16.764,-2.593 z"
           inkscape:connector-curvature="0"
           style="fill:#a0302e" />
        <path
           id="path3397"
           d="m 223.732,370.743 0,42.986 -0.157,-0.112 c -0.792,-0.558 -1.563,-1.131 -2.314,-1.735 l 0,-39.698 c 1.091,-0.533 1.903,-1.04 2.471,-1.441 z"
           inkscape:connector-curvature="0"
           style="fill:#a0302e" />
        <path
           id="path3399"
           d="m 225.858,393.93 16.693,0 c -3.648,7.788 -9.295,14.582 -16.541,19.687 l -0.152,0.107 0,-19.794 z"
           inkscape:connector-curvature="0"
           style="fill:#a0302e" />
        <path
           id="path3401"
           d="m 244.287,389.744 c -0.249,0.695 -0.512,1.385 -0.802,2.065 l -17.627,0 0,-2.065 18.429,0 z"
           inkscape:connector-curvature="0"
           style="fill:#a0302e" />
        <path
           id="path3403"
           d="m 247.194,376.004 c -0.279,3.993 -1.02,7.885 -2.192,11.614 l -19.144,0 0,-16.866 c 2.293,1.619 8.56,4.942 21.356,4.942 0.082,10e-4 -0.02,0.31 -0.02,0.31 z"
           inkscape:connector-curvature="0"
           style="fill:#a0302e" />
        <g
           id="g3405">
          <g
             id="g3407">
            <path
               id="path3409"
               d="m 222.454,420.335 c -0.634,0.269 -1.218,0.649 -1.715,1.116 -0.01,0.005 -0.02,0.015 -0.03,0.025 -1.152,1.055 -2.547,0.842 -3.932,-0.238 -1.258,-0.989 -3.491,-2.862 -3.77,-3.09 0,-0.005 0,-0.005 -0.005,-0.005 2.334,1 4.171,0.928 4.171,0.928 -3.146,-0.731 -5.601,-2.385 -7.245,-3.821 -0.827,-0.832 -1.619,-1.664 -2.365,-2.501 -0.112,-0.127 -0.228,-0.259 -0.335,-0.386 2.547,1.573 4.769,1.674 4.769,1.674 -3.805,-1.228 -6.434,-3.785 -7.834,-5.475 -0.883,-1.192 -1.69,-2.385 -2.42,-3.572 2.314,2.116 4.643,2.649 4.851,2.689 -4.369,-2.167 -6.713,-6.018 -7.535,-7.621 -0.005,-0.005 -0.01,-0.01 -0.01,-0.015 -0.487,-1.03 -0.923,-2.05 -1.319,-3.06 1.766,2.309 3.729,3.186 3.729,3.186 -3.176,-2.618 -4.683,-6.079 -5.343,-8.149 0,-0.005 -0.005,-0.015 -0.005,-0.02 -0.279,-1.055 -0.512,-2.085 -0.705,-3.09 0.994,1.979 2.304,2.938 2.304,2.938 -2.273,-2.852 -2.867,-6.845 -3.024,-8.834 -0.005,-0.025 -0.005,-0.056 -0.005,-0.081 -0.015,-0.244 -0.03,-0.487 -0.041,-0.726 -0.01,-0.213 -0.01,-0.35 -0.01,-0.396 l 0,-0.015 c -0.218,-7.317 1.446,-12.137 1.446,-12.137 l 0,2.892 c 0,18.276 8.92,35.472 23.857,46 l 2.521,1.784 z"
               inkscape:connector-curvature="0"
               style="fill:#2b2c2d" />
          </g>
        </g>
        <g
           id="g3411">
          <g
             id="g3413">
            <path
               id="path3415"
               d="m 254.962,381.799 0,0.015 c 0,0.041 0,0.172 -0.01,0.381 -0.005,0.117 -0.01,0.233 -0.015,0.355 0,0.02 0,0.036 -0.005,0.056 l -0.015,0.289 c -0.142,1.938 -0.715,6.043 -3.034,8.956 0,0 1.309,-0.959 2.304,-2.938 -0.183,0.964 -0.406,1.953 -0.67,2.963 -0.634,2.05 -2.131,5.617 -5.383,8.296 0,0 1.964,-0.878 3.729,-3.186 -0.396,1.01 -0.832,2.03 -1.319,3.06 0,0.005 -0.005,0.01 -0.01,0.015 -0.822,1.603 -3.166,5.454 -7.535,7.621 0.208,-0.041 2.537,-0.573 4.851,-2.694 -0.731,1.187 -1.537,2.38 -2.42,3.577 -1.4,1.69 -4.029,4.247 -7.839,5.475 0,0 2.232,-0.102 4.785,-1.68 -0.117,0.132 -0.233,0.264 -0.345,0.391 -0.736,0.827 -1.512,1.649 -2.329,2.466 -1.639,1.441 -4.105,3.12 -7.281,3.856 0,0 1.842,0.071 4.181,-0.934 -0.096,0.086 -0.193,0.173 -0.289,0.259 -0.056,0.046 -0.122,0.101 -0.188,0.157 -0.786,0.66 -2.329,1.933 -3.293,2.689 -1.395,1.096 -2.801,1.299 -3.958,0.223 -0.507,-0.472 -1.091,-0.863 -1.735,-1.137 l 2.517,-1.776 c 14.943,-10.528 23.863,-27.724 23.863,-46 l 0,-2.892 c -0.003,0 1.661,4.82 1.443,12.137 z"
               inkscape:connector-curvature="0"
               style="fill:#2b2c2d" />
          </g>
        </g>
        <g
           id="g3417">
          <path
             id="path3419"
             d="m 229.573,425.262 c -2.806,0.203 -4.14,1.766 -4.78,3.202 -0.634,-1.436 -1.969,-2.999 -4.78,-3.202 0.091,-0.781 0.37,-1.502 0.786,-2.121 0.655,-0.974 1.654,-1.695 2.821,-1.984 0.375,-0.096 0.766,-0.147 1.172,-0.147 0.406,0 0.797,0.051 1.172,0.147 1.167,0.289 2.167,1.01 2.821,1.984 0.422,0.619 0.696,1.339 0.788,2.121 z"
             inkscape:connector-curvature="0"
             style="fill:#2b2c2d" />
        </g>
        <g
           id="g3421">
          <path
             id="path3423"
             d="m 250.457,371.544 c -19.281,0 -25.664,-7.076 -25.664,-7.076 0,0 -6.21,7.076 -25.659,7.076 l -1.015,0 0,1.01 c 0,17.667 8.621,34.289 23.066,44.462 l 3.607,2.542 3.613,-2.542 c 14.44,-10.173 23.066,-26.795 23.066,-44.462 l 0,-1.01 -1.014,0 z m -23.219,43.819 -2.446,1.725 -2.446,-1.725 c -13.629,-9.605 -21.874,-25.172 -22.193,-41.804 15.831,-0.183 22.533,-4.572 24.639,-6.398 2.111,1.827 8.813,6.216 24.644,6.398 -0.319,16.632 -8.564,32.199 -22.198,41.804 z"
             inkscape:connector-curvature="0"
             style="fill:#2b2c2d" />
        </g>
      </g>
    </g>
  </g>
</svg>
