<?xml version="1.0" encoding="utf-8"?>
<!-- Generator: Adobe Illustrator 17.0.0, SVG Export Plug-In . SVG Version: 6.00 Build 0)  -->
<!DOCTYPE svg PUBLIC "-//W3C//DTD SVG 1.1//EN" "http://www.w3.org/Graphics/SVG/1.1/DTD/svg11.dtd">
<svg version="1.1" id="Layer_1" xmlns="http://www.w3.org/2000/svg" xmlns:xlink="http://www.w3.org/1999/xlink" x="0px" y="0px"
	 width="612px" height="792px" viewBox="0 0 612 792" enable-background="new 0 0 612 792" xml:space="preserve">
<g>
	<path fill="#9F302E" d="M236.029,59.75H35.673c-0.966,0-1.75-0.784-1.75-1.75s0.784-1.75,1.75-1.75h200.356
		c8.506,0,15.691-12.021,15.691-26.25s-7.186-26.25-15.691-26.25H20.441C11.789,3.75,4.75,15.526,4.75,30s7.039,26.25,15.691,26.25
		c8.652,0,15.691-11.776,15.691-26.25c0-6.355-1.4-12.5-3.941-17.302c-0.452-0.854-0.126-1.914,0.728-2.366
		c0.854-0.453,1.914-0.126,2.366,0.728c2.804,5.297,4.348,12.023,4.348,18.939c0,16.404-8.609,29.75-19.191,29.75
		S1.25,46.404,1.25,30S9.859,0.25,20.441,0.25h215.588c10.582,0,19.191,13.346,19.191,29.75S246.611,59.75,236.029,59.75z"/>
</g>
</svg>
